<mxfile host="Electron" modified="2024-07-12T18:43:52.969Z" agent="Mozilla/5.0 (Windows NT 10.0; Win64; x64) AppleWebKit/537.36 (KHTML, like Gecko) draw.io/21.5.0 Chrome/112.0.5615.204 Electron/24.5.1 Safari/537.36" etag="Oh7EFupI2zlNTUv2EE_g" version="21.5.0" type="device" pages="6">
  <diagram name="Traditional" id="Ue7A1E2Ny-PlDWM6F3uy">
    <mxGraphModel dx="1211" dy="820" grid="1" gridSize="10" guides="1" tooltips="1" connect="1" arrows="1" fold="1" page="1" pageScale="1" pageWidth="850" pageHeight="1100" math="0" shadow="0">
      <root>
        <mxCell id="0" />
        <mxCell id="1" parent="0" />
        <mxCell id="lKy7l3t24TNQIwh7Rjwj-26" value="" style="rounded=0;whiteSpace=wrap;html=1;fillColor=#fff2cc;strokeColor=#d6b656;" parent="1" vertex="1">
          <mxGeometry x="310" y="430" width="480" height="200" as="geometry" />
        </mxCell>
        <mxCell id="lKy7l3t24TNQIwh7Rjwj-6" value="" style="rounded=0;whiteSpace=wrap;html=1;fillColor=#d5e8d4;strokeColor=#82b366;" parent="1" vertex="1">
          <mxGeometry x="380" y="650" width="340" height="260" as="geometry" />
        </mxCell>
        <mxCell id="lKy7l3t24TNQIwh7Rjwj-1" value="&lt;font style=&quot;font-size: 18px;&quot;&gt;DBContext&lt;/font&gt;" style="rounded=1;whiteSpace=wrap;html=1;" parent="1" vertex="1">
          <mxGeometry x="400" y="810" width="300" height="60" as="geometry" />
        </mxCell>
        <mxCell id="lKy7l3t24TNQIwh7Rjwj-2" value="" style="shape=cylinder3;whiteSpace=wrap;html=1;boundedLbl=1;backgroundOutline=1;size=15;" parent="1" vertex="1">
          <mxGeometry x="520" y="940" width="60" height="80" as="geometry" />
        </mxCell>
        <mxCell id="lKy7l3t24TNQIwh7Rjwj-3" value="" style="endArrow=classic;startArrow=classic;html=1;rounded=0;exitX=0.5;exitY=0;exitDx=0;exitDy=0;exitPerimeter=0;entryX=0.5;entryY=1;entryDx=0;entryDy=0;" parent="1" source="lKy7l3t24TNQIwh7Rjwj-2" target="lKy7l3t24TNQIwh7Rjwj-1" edge="1">
          <mxGeometry width="50" height="50" relative="1" as="geometry">
            <mxPoint x="520" y="860" as="sourcePoint" />
            <mxPoint x="570" y="810" as="targetPoint" />
          </mxGeometry>
        </mxCell>
        <mxCell id="lKy7l3t24TNQIwh7Rjwj-4" value="&lt;font style=&quot;font-size: 18px;&quot;&gt;Repository&lt;/font&gt;" style="rounded=1;whiteSpace=wrap;html=1;" parent="1" vertex="1">
          <mxGeometry x="400" y="690" width="300" height="60" as="geometry" />
        </mxCell>
        <mxCell id="lKy7l3t24TNQIwh7Rjwj-5" value="" style="endArrow=classic;startArrow=classic;html=1;rounded=0;exitX=0.5;exitY=0;exitDx=0;exitDy=0;entryX=0.5;entryY=1;entryDx=0;entryDy=0;" parent="1" source="lKy7l3t24TNQIwh7Rjwj-1" target="lKy7l3t24TNQIwh7Rjwj-4" edge="1">
          <mxGeometry width="50" height="50" relative="1" as="geometry">
            <mxPoint x="510" y="680" as="sourcePoint" />
            <mxPoint x="550" y="770" as="targetPoint" />
          </mxGeometry>
        </mxCell>
        <mxCell id="lKy7l3t24TNQIwh7Rjwj-7" value="" style="shape=flexArrow;endArrow=classic;html=1;rounded=0;entryX=0;entryY=0.538;entryDx=0;entryDy=0;entryPerimeter=0;endWidth=37;endSize=9.33;fillColor=#f5f5f5;strokeColor=#666666;" parent="1" edge="1">
          <mxGeometry width="50" height="50" relative="1" as="geometry">
            <mxPoint x="150" y="779.62" as="sourcePoint" />
            <mxPoint x="380" y="779.5000000000001" as="targetPoint" />
          </mxGeometry>
        </mxCell>
        <mxCell id="lKy7l3t24TNQIwh7Rjwj-9" value="&lt;font style=&quot;font-size: 14px;&quot;&gt;Infrastructure Layer&lt;/font&gt;" style="edgeLabel;html=1;align=center;verticalAlign=middle;resizable=0;points=[];" parent="lKy7l3t24TNQIwh7Rjwj-7" vertex="1" connectable="0">
          <mxGeometry x="-0.313" relative="1" as="geometry">
            <mxPoint x="21" y="-20" as="offset" />
          </mxGeometry>
        </mxCell>
        <mxCell id="lKy7l3t24TNQIwh7Rjwj-11" value="Repo Service" style="rounded=1;whiteSpace=wrap;html=1;" parent="1" vertex="1">
          <mxGeometry x="350" y="540" width="120" height="60" as="geometry" />
        </mxCell>
        <mxCell id="lKy7l3t24TNQIwh7Rjwj-12" value="Repo Service" style="rounded=1;whiteSpace=wrap;html=1;" parent="1" vertex="1">
          <mxGeometry x="490" y="540" width="120" height="60" as="geometry" />
        </mxCell>
        <mxCell id="lKy7l3t24TNQIwh7Rjwj-13" value="Repo Service" style="rounded=1;whiteSpace=wrap;html=1;" parent="1" vertex="1">
          <mxGeometry x="630" y="540" width="120" height="60" as="geometry" />
        </mxCell>
        <mxCell id="lKy7l3t24TNQIwh7Rjwj-15" value="Business Rules/Service" style="rounded=1;whiteSpace=wrap;html=1;" parent="1" vertex="1">
          <mxGeometry x="350" y="450" width="190" height="60" as="geometry" />
        </mxCell>
        <mxCell id="lKy7l3t24TNQIwh7Rjwj-16" value="Business Rules/Service" style="rounded=1;whiteSpace=wrap;html=1;" parent="1" vertex="1">
          <mxGeometry x="560" y="450" width="190" height="60" as="geometry" />
        </mxCell>
        <mxCell id="lKy7l3t24TNQIwh7Rjwj-18" value="" style="endArrow=classic;startArrow=classic;html=1;rounded=0;entryX=0.432;entryY=0.983;entryDx=0;entryDy=0;entryPerimeter=0;" parent="1" source="lKy7l3t24TNQIwh7Rjwj-11" target="lKy7l3t24TNQIwh7Rjwj-15" edge="1">
          <mxGeometry width="50" height="50" relative="1" as="geometry">
            <mxPoint x="510" y="680" as="sourcePoint" />
            <mxPoint x="560" y="630" as="targetPoint" />
          </mxGeometry>
        </mxCell>
        <mxCell id="lKy7l3t24TNQIwh7Rjwj-19" value="" style="endArrow=classic;startArrow=classic;html=1;rounded=0;entryX=0.75;entryY=1;entryDx=0;entryDy=0;exitX=0.25;exitY=0;exitDx=0;exitDy=0;" parent="1" source="lKy7l3t24TNQIwh7Rjwj-12" target="lKy7l3t24TNQIwh7Rjwj-15" edge="1">
          <mxGeometry width="50" height="50" relative="1" as="geometry">
            <mxPoint x="510" y="680" as="sourcePoint" />
            <mxPoint x="560" y="630" as="targetPoint" />
          </mxGeometry>
        </mxCell>
        <mxCell id="lKy7l3t24TNQIwh7Rjwj-20" value="" style="endArrow=classic;startArrow=classic;html=1;rounded=0;entryX=0.25;entryY=1;entryDx=0;entryDy=0;exitX=0.75;exitY=0;exitDx=0;exitDy=0;" parent="1" source="lKy7l3t24TNQIwh7Rjwj-12" target="lKy7l3t24TNQIwh7Rjwj-16" edge="1">
          <mxGeometry width="50" height="50" relative="1" as="geometry">
            <mxPoint x="510" y="680" as="sourcePoint" />
            <mxPoint x="560" y="630" as="targetPoint" />
          </mxGeometry>
        </mxCell>
        <mxCell id="lKy7l3t24TNQIwh7Rjwj-21" value="" style="endArrow=classic;startArrow=classic;html=1;rounded=0;entryX=0.658;entryY=1.05;entryDx=0;entryDy=0;entryPerimeter=0;exitX=0.75;exitY=0;exitDx=0;exitDy=0;" parent="1" source="lKy7l3t24TNQIwh7Rjwj-13" target="lKy7l3t24TNQIwh7Rjwj-16" edge="1">
          <mxGeometry width="50" height="50" relative="1" as="geometry">
            <mxPoint x="660" y="580" as="sourcePoint" />
            <mxPoint x="710" y="530" as="targetPoint" />
          </mxGeometry>
        </mxCell>
        <mxCell id="lKy7l3t24TNQIwh7Rjwj-22" value="" style="endArrow=classic;startArrow=classic;html=1;rounded=0;entryX=0.5;entryY=1;entryDx=0;entryDy=0;exitX=0.14;exitY=0.017;exitDx=0;exitDy=0;exitPerimeter=0;" parent="1" source="lKy7l3t24TNQIwh7Rjwj-4" target="lKy7l3t24TNQIwh7Rjwj-11" edge="1">
          <mxGeometry width="50" height="50" relative="1" as="geometry">
            <mxPoint x="510" y="680" as="sourcePoint" />
            <mxPoint x="560" y="630" as="targetPoint" />
          </mxGeometry>
        </mxCell>
        <mxCell id="lKy7l3t24TNQIwh7Rjwj-23" value="" style="endArrow=classic;startArrow=classic;html=1;rounded=0;entryX=0.5;entryY=1;entryDx=0;entryDy=0;" parent="1" source="lKy7l3t24TNQIwh7Rjwj-4" target="lKy7l3t24TNQIwh7Rjwj-12" edge="1">
          <mxGeometry width="50" height="50" relative="1" as="geometry">
            <mxPoint x="510" y="680" as="sourcePoint" />
            <mxPoint x="560" y="630" as="targetPoint" />
          </mxGeometry>
        </mxCell>
        <mxCell id="lKy7l3t24TNQIwh7Rjwj-24" value="" style="endArrow=classic;startArrow=classic;html=1;rounded=0;entryX=0.5;entryY=1;entryDx=0;entryDy=0;exitX=0.813;exitY=0;exitDx=0;exitDy=0;exitPerimeter=0;" parent="1" source="lKy7l3t24TNQIwh7Rjwj-4" target="lKy7l3t24TNQIwh7Rjwj-13" edge="1">
          <mxGeometry width="50" height="50" relative="1" as="geometry">
            <mxPoint x="510" y="680" as="sourcePoint" />
            <mxPoint x="560" y="630" as="targetPoint" />
          </mxGeometry>
        </mxCell>
        <mxCell id="lKy7l3t24TNQIwh7Rjwj-27" value="" style="shape=flexArrow;endArrow=classic;html=1;rounded=0;entryX=0;entryY=0.538;entryDx=0;entryDy=0;entryPerimeter=0;endWidth=37;endSize=9.33;fillColor=#f5f5f5;strokeColor=#666666;" parent="1" edge="1">
          <mxGeometry width="50" height="50" relative="1" as="geometry">
            <mxPoint x="80" y="529.62" as="sourcePoint" />
            <mxPoint x="310" y="529.5000000000001" as="targetPoint" />
          </mxGeometry>
        </mxCell>
        <mxCell id="lKy7l3t24TNQIwh7Rjwj-28" value="&lt;span style=&quot;font-size: 14px;&quot;&gt;Business/Domain/Core Layer&lt;/span&gt;" style="edgeLabel;html=1;align=center;verticalAlign=middle;resizable=0;points=[];" parent="lKy7l3t24TNQIwh7Rjwj-27" vertex="1" connectable="0">
          <mxGeometry x="-0.313" relative="1" as="geometry">
            <mxPoint x="21" y="-20" as="offset" />
          </mxGeometry>
        </mxCell>
        <mxCell id="lKy7l3t24TNQIwh7Rjwj-29" value="" style="rounded=0;whiteSpace=wrap;html=1;fillColor=#dae8fc;strokeColor=#6c8ebf;" parent="1" vertex="1">
          <mxGeometry x="310" y="300" width="480" height="100" as="geometry" />
        </mxCell>
        <mxCell id="lKy7l3t24TNQIwh7Rjwj-30" value="REST API" style="rounded=1;whiteSpace=wrap;html=1;" parent="1" vertex="1">
          <mxGeometry x="330" y="320" width="120" height="60" as="geometry" />
        </mxCell>
        <mxCell id="lKy7l3t24TNQIwh7Rjwj-31" value="User Interface" style="rounded=1;whiteSpace=wrap;html=1;" parent="1" vertex="1">
          <mxGeometry x="490" y="320" width="120" height="60" as="geometry" />
        </mxCell>
        <mxCell id="lKy7l3t24TNQIwh7Rjwj-32" value="Unattended Process" style="rounded=1;whiteSpace=wrap;html=1;" parent="1" vertex="1">
          <mxGeometry x="650" y="320" width="120" height="60" as="geometry" />
        </mxCell>
        <mxCell id="lKy7l3t24TNQIwh7Rjwj-33" value="" style="endArrow=classic;startArrow=classic;html=1;rounded=0;entryX=0.5;entryY=1;entryDx=0;entryDy=0;exitX=0.5;exitY=0;exitDx=0;exitDy=0;" parent="1" source="lKy7l3t24TNQIwh7Rjwj-15" target="lKy7l3t24TNQIwh7Rjwj-31" edge="1">
          <mxGeometry width="50" height="50" relative="1" as="geometry">
            <mxPoint x="400" y="640" as="sourcePoint" />
            <mxPoint x="450" y="590" as="targetPoint" />
          </mxGeometry>
        </mxCell>
        <mxCell id="lKy7l3t24TNQIwh7Rjwj-34" value="" style="endArrow=classic;startArrow=classic;html=1;rounded=0;entryX=0.5;entryY=1;entryDx=0;entryDy=0;exitX=0.5;exitY=0;exitDx=0;exitDy=0;" parent="1" source="lKy7l3t24TNQIwh7Rjwj-15" target="lKy7l3t24TNQIwh7Rjwj-30" edge="1">
          <mxGeometry width="50" height="50" relative="1" as="geometry">
            <mxPoint x="400" y="640" as="sourcePoint" />
            <mxPoint x="450" y="590" as="targetPoint" />
          </mxGeometry>
        </mxCell>
        <mxCell id="lKy7l3t24TNQIwh7Rjwj-35" value="" style="endArrow=classic;startArrow=classic;html=1;rounded=0;entryX=0.5;entryY=1;entryDx=0;entryDy=0;exitX=0.547;exitY=0.033;exitDx=0;exitDy=0;exitPerimeter=0;" parent="1" source="lKy7l3t24TNQIwh7Rjwj-16" target="lKy7l3t24TNQIwh7Rjwj-32" edge="1">
          <mxGeometry width="50" height="50" relative="1" as="geometry">
            <mxPoint x="400" y="640" as="sourcePoint" />
            <mxPoint x="450" y="590" as="targetPoint" />
          </mxGeometry>
        </mxCell>
        <mxCell id="lKy7l3t24TNQIwh7Rjwj-36" value="" style="shape=flexArrow;endArrow=classic;html=1;rounded=0;entryX=0;entryY=0.538;entryDx=0;entryDy=0;entryPerimeter=0;endWidth=37;endSize=9.33;fillColor=#f5f5f5;strokeColor=#666666;" parent="1" edge="1">
          <mxGeometry width="50" height="50" relative="1" as="geometry">
            <mxPoint x="80" y="350.03999999999996" as="sourcePoint" />
            <mxPoint x="310" y="349.9200000000001" as="targetPoint" />
          </mxGeometry>
        </mxCell>
        <mxCell id="lKy7l3t24TNQIwh7Rjwj-37" value="&lt;span style=&quot;font-size: 14px;&quot;&gt;Application Purpose&lt;/span&gt;" style="edgeLabel;html=1;align=center;verticalAlign=middle;resizable=0;points=[];" parent="lKy7l3t24TNQIwh7Rjwj-36" vertex="1" connectable="0">
          <mxGeometry x="-0.313" relative="1" as="geometry">
            <mxPoint x="21" y="-20" as="offset" />
          </mxGeometry>
        </mxCell>
        <mxCell id="lKy7l3t24TNQIwh7Rjwj-38" value="&lt;font style=&quot;font-size: 36px;&quot;&gt;A &lt;b&gt;Single-Tier&lt;/b&gt;&amp;nbsp;application using a typical &lt;b&gt;Layered&lt;/b&gt;&amp;nbsp;approach to represent &lt;b&gt;Functional&lt;/b&gt; division&lt;/font&gt;" style="text;strokeColor=none;align=center;fillColor=none;html=1;verticalAlign=middle;whiteSpace=wrap;rounded=0;" parent="1" vertex="1">
          <mxGeometry x="90" y="50" width="710" height="150" as="geometry" />
        </mxCell>
      </root>
    </mxGraphModel>
  </diagram>
  <diagram name="Mediator Pattern" id="sQbIlHopyrJ7eoxxe6ap">
    <mxGraphModel dx="1211" dy="820" grid="1" gridSize="10" guides="1" tooltips="1" connect="1" arrows="1" fold="1" page="1" pageScale="1" pageWidth="850" pageHeight="1100" math="0" shadow="0">
      <root>
        <mxCell id="WADw0BpMhU3uEaADD-8K-0" />
        <mxCell id="WADw0BpMhU3uEaADD-8K-1" parent="WADw0BpMhU3uEaADD-8K-0" />
        <mxCell id="WADw0BpMhU3uEaADD-8K-2" value="" style="rounded=0;whiteSpace=wrap;html=1;fillColor=#fff2cc;strokeColor=#d6b656;" parent="WADw0BpMhU3uEaADD-8K-1" vertex="1">
          <mxGeometry x="310" y="420" width="480" height="220" as="geometry" />
        </mxCell>
        <mxCell id="WADw0BpMhU3uEaADD-8K-3" value="" style="rounded=0;whiteSpace=wrap;html=1;fillColor=#d5e8d4;strokeColor=#82b366;" parent="WADw0BpMhU3uEaADD-8K-1" vertex="1">
          <mxGeometry x="380" y="650" width="340" height="260" as="geometry" />
        </mxCell>
        <mxCell id="WADw0BpMhU3uEaADD-8K-4" value="&lt;font style=&quot;font-size: 18px;&quot;&gt;DBContext&lt;/font&gt;" style="rounded=1;whiteSpace=wrap;html=1;" parent="WADw0BpMhU3uEaADD-8K-1" vertex="1">
          <mxGeometry x="400" y="810" width="300" height="60" as="geometry" />
        </mxCell>
        <mxCell id="WADw0BpMhU3uEaADD-8K-5" value="" style="shape=cylinder3;whiteSpace=wrap;html=1;boundedLbl=1;backgroundOutline=1;size=15;" parent="WADw0BpMhU3uEaADD-8K-1" vertex="1">
          <mxGeometry x="520" y="940" width="60" height="80" as="geometry" />
        </mxCell>
        <mxCell id="WADw0BpMhU3uEaADD-8K-6" value="" style="endArrow=classic;startArrow=classic;html=1;rounded=0;exitX=0.5;exitY=0;exitDx=0;exitDy=0;exitPerimeter=0;entryX=0.5;entryY=1;entryDx=0;entryDy=0;" parent="WADw0BpMhU3uEaADD-8K-1" source="WADw0BpMhU3uEaADD-8K-5" target="WADw0BpMhU3uEaADD-8K-4" edge="1">
          <mxGeometry width="50" height="50" relative="1" as="geometry">
            <mxPoint x="520" y="860" as="sourcePoint" />
            <mxPoint x="570" y="810" as="targetPoint" />
          </mxGeometry>
        </mxCell>
        <mxCell id="WADw0BpMhU3uEaADD-8K-7" value="&lt;font style=&quot;font-size: 18px;&quot;&gt;Repository&lt;/font&gt;" style="rounded=1;whiteSpace=wrap;html=1;" parent="WADw0BpMhU3uEaADD-8K-1" vertex="1">
          <mxGeometry x="400" y="690" width="300" height="60" as="geometry" />
        </mxCell>
        <mxCell id="WADw0BpMhU3uEaADD-8K-8" value="" style="endArrow=classic;startArrow=classic;html=1;rounded=0;exitX=0.5;exitY=0;exitDx=0;exitDy=0;entryX=0.5;entryY=1;entryDx=0;entryDy=0;" parent="WADw0BpMhU3uEaADD-8K-1" source="WADw0BpMhU3uEaADD-8K-4" target="WADw0BpMhU3uEaADD-8K-7" edge="1">
          <mxGeometry width="50" height="50" relative="1" as="geometry">
            <mxPoint x="510" y="680" as="sourcePoint" />
            <mxPoint x="550" y="770" as="targetPoint" />
          </mxGeometry>
        </mxCell>
        <mxCell id="WADw0BpMhU3uEaADD-8K-9" value="" style="shape=flexArrow;endArrow=classic;html=1;rounded=0;entryX=0;entryY=0.538;entryDx=0;entryDy=0;entryPerimeter=0;endWidth=37;endSize=9.33;fillColor=#f5f5f5;strokeColor=#666666;" parent="WADw0BpMhU3uEaADD-8K-1" edge="1">
          <mxGeometry width="50" height="50" relative="1" as="geometry">
            <mxPoint x="150" y="779.62" as="sourcePoint" />
            <mxPoint x="380" y="779.5000000000001" as="targetPoint" />
          </mxGeometry>
        </mxCell>
        <mxCell id="WADw0BpMhU3uEaADD-8K-10" value="&lt;font style=&quot;font-size: 14px;&quot;&gt;Infrastructure Layer&lt;/font&gt;" style="edgeLabel;html=1;align=center;verticalAlign=middle;resizable=0;points=[];" parent="WADw0BpMhU3uEaADD-8K-9" vertex="1" connectable="0">
          <mxGeometry x="-0.313" relative="1" as="geometry">
            <mxPoint x="21" y="-20" as="offset" />
          </mxGeometry>
        </mxCell>
        <mxCell id="WADw0BpMhU3uEaADD-8K-11" value="Repo Service" style="rounded=1;whiteSpace=wrap;html=1;" parent="WADw0BpMhU3uEaADD-8K-1" vertex="1">
          <mxGeometry x="350" y="540" width="120" height="60" as="geometry" />
        </mxCell>
        <mxCell id="WADw0BpMhU3uEaADD-8K-12" value="Repo Service" style="rounded=1;whiteSpace=wrap;html=1;" parent="WADw0BpMhU3uEaADD-8K-1" vertex="1">
          <mxGeometry x="490" y="540" width="120" height="60" as="geometry" />
        </mxCell>
        <mxCell id="WADw0BpMhU3uEaADD-8K-13" value="Repo Service" style="rounded=1;whiteSpace=wrap;html=1;" parent="WADw0BpMhU3uEaADD-8K-1" vertex="1">
          <mxGeometry x="630" y="540" width="120" height="60" as="geometry" />
        </mxCell>
        <mxCell id="WADw0BpMhU3uEaADD-8K-20" value="" style="endArrow=classic;startArrow=classic;html=1;rounded=0;entryX=0.5;entryY=1;entryDx=0;entryDy=0;exitX=0.14;exitY=0.017;exitDx=0;exitDy=0;exitPerimeter=0;" parent="WADw0BpMhU3uEaADD-8K-1" source="WADw0BpMhU3uEaADD-8K-7" target="WADw0BpMhU3uEaADD-8K-11" edge="1">
          <mxGeometry width="50" height="50" relative="1" as="geometry">
            <mxPoint x="510" y="680" as="sourcePoint" />
            <mxPoint x="560" y="630" as="targetPoint" />
          </mxGeometry>
        </mxCell>
        <mxCell id="WADw0BpMhU3uEaADD-8K-21" value="" style="endArrow=classic;startArrow=classic;html=1;rounded=0;entryX=0.5;entryY=1;entryDx=0;entryDy=0;" parent="WADw0BpMhU3uEaADD-8K-1" source="WADw0BpMhU3uEaADD-8K-7" target="WADw0BpMhU3uEaADD-8K-12" edge="1">
          <mxGeometry width="50" height="50" relative="1" as="geometry">
            <mxPoint x="510" y="680" as="sourcePoint" />
            <mxPoint x="560" y="630" as="targetPoint" />
          </mxGeometry>
        </mxCell>
        <mxCell id="WADw0BpMhU3uEaADD-8K-22" value="" style="endArrow=classic;startArrow=classic;html=1;rounded=0;entryX=0.5;entryY=1;entryDx=0;entryDy=0;exitX=0.813;exitY=0;exitDx=0;exitDy=0;exitPerimeter=0;" parent="WADw0BpMhU3uEaADD-8K-1" source="WADw0BpMhU3uEaADD-8K-7" target="WADw0BpMhU3uEaADD-8K-13" edge="1">
          <mxGeometry width="50" height="50" relative="1" as="geometry">
            <mxPoint x="510" y="680" as="sourcePoint" />
            <mxPoint x="560" y="630" as="targetPoint" />
          </mxGeometry>
        </mxCell>
        <mxCell id="WADw0BpMhU3uEaADD-8K-23" value="" style="shape=flexArrow;endArrow=classic;html=1;rounded=0;entryX=0;entryY=0.538;entryDx=0;entryDy=0;entryPerimeter=0;endWidth=37;endSize=9.33;fillColor=#f5f5f5;strokeColor=#666666;" parent="WADw0BpMhU3uEaADD-8K-1" edge="1">
          <mxGeometry width="50" height="50" relative="1" as="geometry">
            <mxPoint x="80" y="529.62" as="sourcePoint" />
            <mxPoint x="310" y="529.5000000000001" as="targetPoint" />
          </mxGeometry>
        </mxCell>
        <mxCell id="WADw0BpMhU3uEaADD-8K-24" value="&lt;span style=&quot;font-size: 14px;&quot;&gt;Business/Domain/Core Layer&lt;/span&gt;" style="edgeLabel;html=1;align=center;verticalAlign=middle;resizable=0;points=[];" parent="WADw0BpMhU3uEaADD-8K-23" vertex="1" connectable="0">
          <mxGeometry x="-0.313" relative="1" as="geometry">
            <mxPoint x="21" y="-20" as="offset" />
          </mxGeometry>
        </mxCell>
        <mxCell id="WADw0BpMhU3uEaADD-8K-25" value="" style="rounded=0;whiteSpace=wrap;html=1;fillColor=#dae8fc;strokeColor=#6c8ebf;" parent="WADw0BpMhU3uEaADD-8K-1" vertex="1">
          <mxGeometry x="310" y="240" width="480" height="100" as="geometry" />
        </mxCell>
        <mxCell id="WADw0BpMhU3uEaADD-8K-26" value="REST API" style="rounded=1;whiteSpace=wrap;html=1;" parent="WADw0BpMhU3uEaADD-8K-1" vertex="1">
          <mxGeometry x="330" y="260" width="120" height="60" as="geometry" />
        </mxCell>
        <mxCell id="WADw0BpMhU3uEaADD-8K-27" value="User Interface" style="rounded=1;whiteSpace=wrap;html=1;" parent="WADw0BpMhU3uEaADD-8K-1" vertex="1">
          <mxGeometry x="490" y="260" width="120" height="60" as="geometry" />
        </mxCell>
        <mxCell id="WADw0BpMhU3uEaADD-8K-28" value="Unattended Process" style="rounded=1;whiteSpace=wrap;html=1;" parent="WADw0BpMhU3uEaADD-8K-1" vertex="1">
          <mxGeometry x="650" y="260" width="120" height="60" as="geometry" />
        </mxCell>
        <mxCell id="WADw0BpMhU3uEaADD-8K-32" value="" style="shape=flexArrow;endArrow=classic;html=1;rounded=0;entryX=0;entryY=0.538;entryDx=0;entryDy=0;entryPerimeter=0;endWidth=37;endSize=9.33;fillColor=#f5f5f5;strokeColor=#666666;" parent="WADw0BpMhU3uEaADD-8K-1" edge="1">
          <mxGeometry width="50" height="50" relative="1" as="geometry">
            <mxPoint x="80" y="290.03999999999996" as="sourcePoint" />
            <mxPoint x="310" y="289.9200000000001" as="targetPoint" />
          </mxGeometry>
        </mxCell>
        <mxCell id="WADw0BpMhU3uEaADD-8K-33" value="&lt;span style=&quot;font-size: 14px;&quot;&gt;Application Purpose&lt;/span&gt;" style="edgeLabel;html=1;align=center;verticalAlign=middle;resizable=0;points=[];" parent="WADw0BpMhU3uEaADD-8K-32" vertex="1" connectable="0">
          <mxGeometry x="-0.313" relative="1" as="geometry">
            <mxPoint x="21" y="-20" as="offset" />
          </mxGeometry>
        </mxCell>
        <mxCell id="WADw0BpMhU3uEaADD-8K-34" value="&lt;span style=&quot;font-size: 36px;&quot;&gt;Refactor Business Rules/Services &lt;br&gt;in favor of Mediator Pattern&lt;br&gt;(using MediatR)&lt;br&gt;&lt;/span&gt;" style="text;strokeColor=none;align=center;fillColor=none;html=1;verticalAlign=middle;whiteSpace=wrap;rounded=0;" parent="WADw0BpMhU3uEaADD-8K-1" vertex="1">
          <mxGeometry x="90" y="50" width="710" height="150" as="geometry" />
        </mxCell>
        <mxCell id="Ul6DKK56gcki7yTC4wtb-1" value="Handler" style="rounded=1;whiteSpace=wrap;html=1;" parent="WADw0BpMhU3uEaADD-8K-1" vertex="1">
          <mxGeometry x="412.5" y="460" width="60" height="30" as="geometry" />
        </mxCell>
        <mxCell id="Ul6DKK56gcki7yTC4wtb-6" value="Handler" style="rounded=1;whiteSpace=wrap;html=1;" parent="WADw0BpMhU3uEaADD-8K-1" vertex="1">
          <mxGeometry x="342.5" y="460" width="60" height="30" as="geometry" />
        </mxCell>
        <mxCell id="Ul6DKK56gcki7yTC4wtb-7" value="Handler" style="rounded=1;whiteSpace=wrap;html=1;" parent="WADw0BpMhU3uEaADD-8K-1" vertex="1">
          <mxGeometry x="482.5" y="460" width="60" height="30" as="geometry" />
        </mxCell>
        <mxCell id="Ul6DKK56gcki7yTC4wtb-8" value="Handler" style="rounded=1;whiteSpace=wrap;html=1;" parent="WADw0BpMhU3uEaADD-8K-1" vertex="1">
          <mxGeometry x="557.5" y="460" width="60" height="30" as="geometry" />
        </mxCell>
        <mxCell id="Ul6DKK56gcki7yTC4wtb-9" value="Handler" style="rounded=1;whiteSpace=wrap;html=1;" parent="WADw0BpMhU3uEaADD-8K-1" vertex="1">
          <mxGeometry x="627.5" y="460" width="60" height="30" as="geometry" />
        </mxCell>
        <mxCell id="Ul6DKK56gcki7yTC4wtb-10" value="Handler" style="rounded=1;whiteSpace=wrap;html=1;" parent="WADw0BpMhU3uEaADD-8K-1" vertex="1">
          <mxGeometry x="697.5" y="460" width="60" height="30" as="geometry" />
        </mxCell>
        <mxCell id="Ul6DKK56gcki7yTC4wtb-11" value="" style="endArrow=classic;startArrow=classic;html=1;rounded=0;exitX=0.25;exitY=0;exitDx=0;exitDy=0;entryX=0.5;entryY=1;entryDx=0;entryDy=0;" parent="WADw0BpMhU3uEaADD-8K-1" source="WADw0BpMhU3uEaADD-8K-11" target="Ul6DKK56gcki7yTC4wtb-6" edge="1">
          <mxGeometry width="50" height="50" relative="1" as="geometry">
            <mxPoint x="400" y="450" as="sourcePoint" />
            <mxPoint x="450" y="400" as="targetPoint" />
          </mxGeometry>
        </mxCell>
        <mxCell id="Ul6DKK56gcki7yTC4wtb-13" value="" style="endArrow=classic;startArrow=classic;html=1;rounded=0;entryX=0.5;entryY=1;entryDx=0;entryDy=0;" parent="WADw0BpMhU3uEaADD-8K-1" source="WADw0BpMhU3uEaADD-8K-11" target="Ul6DKK56gcki7yTC4wtb-1" edge="1">
          <mxGeometry width="50" height="50" relative="1" as="geometry">
            <mxPoint x="400" y="450" as="sourcePoint" />
            <mxPoint x="450" y="400" as="targetPoint" />
          </mxGeometry>
        </mxCell>
        <mxCell id="Ul6DKK56gcki7yTC4wtb-14" value="" style="endArrow=classic;startArrow=classic;html=1;rounded=0;exitX=0.025;exitY=0.133;exitDx=0;exitDy=0;exitPerimeter=0;entryX=0.5;entryY=1;entryDx=0;entryDy=0;" parent="WADw0BpMhU3uEaADD-8K-1" source="WADw0BpMhU3uEaADD-8K-12" target="Ul6DKK56gcki7yTC4wtb-1" edge="1">
          <mxGeometry width="50" height="50" relative="1" as="geometry">
            <mxPoint x="400" y="450" as="sourcePoint" />
            <mxPoint x="450" y="400" as="targetPoint" />
          </mxGeometry>
        </mxCell>
        <mxCell id="Ul6DKK56gcki7yTC4wtb-15" value="" style="endArrow=classic;startArrow=classic;html=1;rounded=0;entryX=0.5;entryY=1;entryDx=0;entryDy=0;" parent="WADw0BpMhU3uEaADD-8K-1" source="WADw0BpMhU3uEaADD-8K-11" target="Ul6DKK56gcki7yTC4wtb-7" edge="1">
          <mxGeometry width="50" height="50" relative="1" as="geometry">
            <mxPoint x="400" y="450" as="sourcePoint" />
            <mxPoint x="450" y="400" as="targetPoint" />
          </mxGeometry>
        </mxCell>
        <mxCell id="Ul6DKK56gcki7yTC4wtb-16" value="" style="endArrow=classic;startArrow=classic;html=1;rounded=0;exitX=0.5;exitY=0;exitDx=0;exitDy=0;entryX=0.5;entryY=1;entryDx=0;entryDy=0;" parent="WADw0BpMhU3uEaADD-8K-1" source="WADw0BpMhU3uEaADD-8K-12" target="Ul6DKK56gcki7yTC4wtb-7" edge="1">
          <mxGeometry width="50" height="50" relative="1" as="geometry">
            <mxPoint x="400" y="450" as="sourcePoint" />
            <mxPoint x="450" y="400" as="targetPoint" />
          </mxGeometry>
        </mxCell>
        <mxCell id="Ul6DKK56gcki7yTC4wtb-17" value="" style="endArrow=classic;startArrow=classic;html=1;rounded=0;exitX=0.75;exitY=0;exitDx=0;exitDy=0;entryX=0.5;entryY=1;entryDx=0;entryDy=0;" parent="WADw0BpMhU3uEaADD-8K-1" source="WADw0BpMhU3uEaADD-8K-12" target="Ul6DKK56gcki7yTC4wtb-8" edge="1">
          <mxGeometry width="50" height="50" relative="1" as="geometry">
            <mxPoint x="400" y="450" as="sourcePoint" />
            <mxPoint x="450" y="400" as="targetPoint" />
          </mxGeometry>
        </mxCell>
        <mxCell id="Ul6DKK56gcki7yTC4wtb-18" value="" style="endArrow=classic;startArrow=classic;html=1;rounded=0;exitX=0.25;exitY=0;exitDx=0;exitDy=0;" parent="WADw0BpMhU3uEaADD-8K-1" source="WADw0BpMhU3uEaADD-8K-13" target="Ul6DKK56gcki7yTC4wtb-9" edge="1">
          <mxGeometry width="50" height="50" relative="1" as="geometry">
            <mxPoint x="400" y="450" as="sourcePoint" />
            <mxPoint x="450" y="400" as="targetPoint" />
          </mxGeometry>
        </mxCell>
        <mxCell id="Ul6DKK56gcki7yTC4wtb-19" value="" style="endArrow=classic;startArrow=classic;html=1;rounded=0;exitX=0.75;exitY=0;exitDx=0;exitDy=0;" parent="WADw0BpMhU3uEaADD-8K-1" source="WADw0BpMhU3uEaADD-8K-13" target="Ul6DKK56gcki7yTC4wtb-10" edge="1">
          <mxGeometry width="50" height="50" relative="1" as="geometry">
            <mxPoint x="400" y="450" as="sourcePoint" />
            <mxPoint x="450" y="400" as="targetPoint" />
          </mxGeometry>
        </mxCell>
        <mxCell id="Ul6DKK56gcki7yTC4wtb-20" value="" style="endArrow=classic;html=1;rounded=0;exitX=0.25;exitY=1;exitDx=0;exitDy=0;entryX=0.25;entryY=0;entryDx=0;entryDy=0;" parent="WADw0BpMhU3uEaADD-8K-1" source="WADw0BpMhU3uEaADD-8K-26" target="Ul6DKK56gcki7yTC4wtb-6" edge="1">
          <mxGeometry width="50" height="50" relative="1" as="geometry">
            <mxPoint x="400" y="450" as="sourcePoint" />
            <mxPoint x="450" y="400" as="targetPoint" />
          </mxGeometry>
        </mxCell>
        <mxCell id="Ul6DKK56gcki7yTC4wtb-21" value="Request" style="edgeLabel;html=1;align=center;verticalAlign=middle;resizable=0;points=[];" parent="Ul6DKK56gcki7yTC4wtb-20" vertex="1" connectable="0">
          <mxGeometry x="-0.2434" y="2" relative="1" as="geometry">
            <mxPoint y="-13" as="offset" />
          </mxGeometry>
        </mxCell>
        <mxCell id="Ul6DKK56gcki7yTC4wtb-22" value="" style="endArrow=classic;html=1;rounded=0;exitX=0.75;exitY=0;exitDx=0;exitDy=0;entryX=0.5;entryY=1;entryDx=0;entryDy=0;" parent="WADw0BpMhU3uEaADD-8K-1" source="Ul6DKK56gcki7yTC4wtb-6" target="WADw0BpMhU3uEaADD-8K-26" edge="1">
          <mxGeometry width="50" height="50" relative="1" as="geometry">
            <mxPoint x="400" y="450" as="sourcePoint" />
            <mxPoint x="450" y="400" as="targetPoint" />
          </mxGeometry>
        </mxCell>
        <mxCell id="Ul6DKK56gcki7yTC4wtb-23" value="Response" style="edgeLabel;html=1;align=center;verticalAlign=middle;resizable=0;points=[];" parent="Ul6DKK56gcki7yTC4wtb-22" vertex="1" connectable="0">
          <mxGeometry x="0.1439" y="-4" relative="1" as="geometry">
            <mxPoint x="-3" y="10" as="offset" />
          </mxGeometry>
        </mxCell>
        <mxCell id="Ul6DKK56gcki7yTC4wtb-24" value="" style="endArrow=classic;html=1;rounded=0;exitX=0;exitY=0.75;exitDx=0;exitDy=0;entryX=0.25;entryY=0;entryDx=0;entryDy=0;" parent="WADw0BpMhU3uEaADD-8K-1" source="WADw0BpMhU3uEaADD-8K-27" target="Ul6DKK56gcki7yTC4wtb-1" edge="1">
          <mxGeometry width="50" height="50" relative="1" as="geometry">
            <mxPoint x="400" y="450" as="sourcePoint" />
            <mxPoint x="450" y="400" as="targetPoint" />
          </mxGeometry>
        </mxCell>
        <mxCell id="Ul6DKK56gcki7yTC4wtb-25" value="Request" style="edgeLabel;html=1;align=center;verticalAlign=middle;resizable=0;points=[];" parent="Ul6DKK56gcki7yTC4wtb-24" vertex="1" connectable="0">
          <mxGeometry x="-0.3272" y="2" relative="1" as="geometry">
            <mxPoint x="-1" y="2" as="offset" />
          </mxGeometry>
        </mxCell>
        <mxCell id="Ul6DKK56gcki7yTC4wtb-26" value="" style="endArrow=classic;html=1;rounded=0;exitX=0.75;exitY=0;exitDx=0;exitDy=0;entryX=0.167;entryY=0.967;entryDx=0;entryDy=0;entryPerimeter=0;" parent="WADw0BpMhU3uEaADD-8K-1" source="Ul6DKK56gcki7yTC4wtb-1" target="WADw0BpMhU3uEaADD-8K-27" edge="1">
          <mxGeometry width="50" height="50" relative="1" as="geometry">
            <mxPoint x="400" y="450" as="sourcePoint" />
            <mxPoint x="450" y="400" as="targetPoint" />
          </mxGeometry>
        </mxCell>
        <mxCell id="Ul6DKK56gcki7yTC4wtb-27" value="Response" style="edgeLabel;html=1;align=center;verticalAlign=middle;resizable=0;points=[];" parent="Ul6DKK56gcki7yTC4wtb-26" vertex="1" connectable="0">
          <mxGeometry x="0.2218" y="-1" relative="1" as="geometry">
            <mxPoint y="15" as="offset" />
          </mxGeometry>
        </mxCell>
        <mxCell id="Ul6DKK56gcki7yTC4wtb-28" value="" style="endArrow=classic;html=1;rounded=0;exitX=0.5;exitY=1;exitDx=0;exitDy=0;entryX=0.25;entryY=0;entryDx=0;entryDy=0;" parent="WADw0BpMhU3uEaADD-8K-1" source="WADw0BpMhU3uEaADD-8K-27" target="Ul6DKK56gcki7yTC4wtb-7" edge="1">
          <mxGeometry width="50" height="50" relative="1" as="geometry">
            <mxPoint x="400" y="450" as="sourcePoint" />
            <mxPoint x="450" y="400" as="targetPoint" />
          </mxGeometry>
        </mxCell>
        <mxCell id="Ul6DKK56gcki7yTC4wtb-30" value="Request" style="edgeLabel;html=1;align=center;verticalAlign=middle;resizable=0;points=[];" parent="Ul6DKK56gcki7yTC4wtb-28" vertex="1" connectable="0">
          <mxGeometry x="-0.4239" y="-1" relative="1" as="geometry">
            <mxPoint as="offset" />
          </mxGeometry>
        </mxCell>
        <mxCell id="Ul6DKK56gcki7yTC4wtb-29" value="" style="endArrow=classic;html=1;rounded=0;exitX=0.75;exitY=0;exitDx=0;exitDy=0;entryX=0.75;entryY=1;entryDx=0;entryDy=0;" parent="WADw0BpMhU3uEaADD-8K-1" source="Ul6DKK56gcki7yTC4wtb-7" target="WADw0BpMhU3uEaADD-8K-27" edge="1">
          <mxGeometry width="50" height="50" relative="1" as="geometry">
            <mxPoint x="400" y="450" as="sourcePoint" />
            <mxPoint x="450" y="400" as="targetPoint" />
          </mxGeometry>
        </mxCell>
        <mxCell id="Ul6DKK56gcki7yTC4wtb-31" value="Response" style="edgeLabel;html=1;align=center;verticalAlign=middle;resizable=0;points=[];" parent="Ul6DKK56gcki7yTC4wtb-29" vertex="1" connectable="0">
          <mxGeometry x="-0.171" y="-3" relative="1" as="geometry">
            <mxPoint x="5" y="-13" as="offset" />
          </mxGeometry>
        </mxCell>
        <mxCell id="Ul6DKK56gcki7yTC4wtb-32" value="" style="endArrow=classic;html=1;rounded=0;entryX=0.25;entryY=0;entryDx=0;entryDy=0;exitX=0.25;exitY=1;exitDx=0;exitDy=0;" parent="WADw0BpMhU3uEaADD-8K-1" source="WADw0BpMhU3uEaADD-8K-28" target="Ul6DKK56gcki7yTC4wtb-9" edge="1">
          <mxGeometry width="50" height="50" relative="1" as="geometry">
            <mxPoint x="400" y="450" as="sourcePoint" />
            <mxPoint x="450" y="400" as="targetPoint" />
          </mxGeometry>
        </mxCell>
        <mxCell id="Ul6DKK56gcki7yTC4wtb-33" value="Request" style="edgeLabel;html=1;align=center;verticalAlign=middle;resizable=0;points=[];" parent="Ul6DKK56gcki7yTC4wtb-32" vertex="1" connectable="0">
          <mxGeometry x="-0.4614" y="1" relative="1" as="geometry">
            <mxPoint as="offset" />
          </mxGeometry>
        </mxCell>
        <mxCell id="Ul6DKK56gcki7yTC4wtb-34" value="" style="endArrow=classic;html=1;rounded=0;exitX=0.5;exitY=0;exitDx=0;exitDy=0;entryX=0.5;entryY=1;entryDx=0;entryDy=0;" parent="WADw0BpMhU3uEaADD-8K-1" source="Ul6DKK56gcki7yTC4wtb-9" target="WADw0BpMhU3uEaADD-8K-28" edge="1">
          <mxGeometry width="50" height="50" relative="1" as="geometry">
            <mxPoint x="400" y="450" as="sourcePoint" />
            <mxPoint x="450" y="400" as="targetPoint" />
          </mxGeometry>
        </mxCell>
        <mxCell id="Ul6DKK56gcki7yTC4wtb-35" value="Response" style="edgeLabel;html=1;align=center;verticalAlign=middle;resizable=0;points=[];" parent="Ul6DKK56gcki7yTC4wtb-34" vertex="1" connectable="0">
          <mxGeometry x="-0.1757" y="-2" relative="1" as="geometry">
            <mxPoint x="9" y="-13" as="offset" />
          </mxGeometry>
        </mxCell>
        <mxCell id="Ul6DKK56gcki7yTC4wtb-36" value="" style="endArrow=classic;html=1;rounded=0;exitX=0.75;exitY=1;exitDx=0;exitDy=0;entryX=0.25;entryY=0;entryDx=0;entryDy=0;" parent="WADw0BpMhU3uEaADD-8K-1" source="WADw0BpMhU3uEaADD-8K-28" target="Ul6DKK56gcki7yTC4wtb-10" edge="1">
          <mxGeometry width="50" height="50" relative="1" as="geometry">
            <mxPoint x="400" y="450" as="sourcePoint" />
            <mxPoint x="450" y="400" as="targetPoint" />
          </mxGeometry>
        </mxCell>
        <mxCell id="Ul6DKK56gcki7yTC4wtb-37" value="Request" style="edgeLabel;html=1;align=center;verticalAlign=middle;resizable=0;points=[];" parent="Ul6DKK56gcki7yTC4wtb-36" vertex="1" connectable="0">
          <mxGeometry x="-0.5024" y="1" relative="1" as="geometry">
            <mxPoint as="offset" />
          </mxGeometry>
        </mxCell>
        <mxCell id="Ul6DKK56gcki7yTC4wtb-38" value="" style="endArrow=classic;html=1;rounded=0;exitX=0.75;exitY=0;exitDx=0;exitDy=0;entryX=0.925;entryY=0.967;entryDx=0;entryDy=0;entryPerimeter=0;" parent="WADw0BpMhU3uEaADD-8K-1" source="Ul6DKK56gcki7yTC4wtb-10" target="WADw0BpMhU3uEaADD-8K-28" edge="1">
          <mxGeometry width="50" height="50" relative="1" as="geometry">
            <mxPoint x="400" y="450" as="sourcePoint" />
            <mxPoint x="450" y="400" as="targetPoint" />
          </mxGeometry>
        </mxCell>
        <mxCell id="Ul6DKK56gcki7yTC4wtb-39" value="Response" style="edgeLabel;html=1;align=center;verticalAlign=middle;resizable=0;points=[];" parent="Ul6DKK56gcki7yTC4wtb-38" vertex="1" connectable="0">
          <mxGeometry x="-0.152" y="-2" relative="1" as="geometry">
            <mxPoint y="-1" as="offset" />
          </mxGeometry>
        </mxCell>
      </root>
    </mxGraphModel>
  </diagram>
  <diagram name="Repository Pattern" id="SSh5hsQmxP4CtACY2Up7">
    <mxGraphModel dx="1211" dy="820" grid="1" gridSize="10" guides="1" tooltips="1" connect="1" arrows="1" fold="1" page="1" pageScale="1" pageWidth="850" pageHeight="1100" math="0" shadow="0">
      <root>
        <mxCell id="3-bLGzzLRzYr9LNJIbRG-0" />
        <mxCell id="3-bLGzzLRzYr9LNJIbRG-1" parent="3-bLGzzLRzYr9LNJIbRG-0" />
        <mxCell id="3-bLGzzLRzYr9LNJIbRG-2" value="" style="rounded=0;whiteSpace=wrap;html=1;fillColor=#fff2cc;strokeColor=#d6b656;" parent="3-bLGzzLRzYr9LNJIbRG-1" vertex="1">
          <mxGeometry x="310" y="420" width="480" height="220" as="geometry" />
        </mxCell>
        <mxCell id="3-bLGzzLRzYr9LNJIbRG-3" value="" style="rounded=0;whiteSpace=wrap;html=1;fillColor=#d5e8d4;strokeColor=#82b366;" parent="3-bLGzzLRzYr9LNJIbRG-1" vertex="1">
          <mxGeometry x="310" y="650" width="480" height="260" as="geometry" />
        </mxCell>
        <mxCell id="3-bLGzzLRzYr9LNJIbRG-4" value="&lt;font style=&quot;font-size: 18px;&quot;&gt;DBContext&lt;/font&gt;" style="rounded=1;whiteSpace=wrap;html=1;" parent="3-bLGzzLRzYr9LNJIbRG-1" vertex="1">
          <mxGeometry x="400" y="850" width="300" height="40" as="geometry" />
        </mxCell>
        <mxCell id="3-bLGzzLRzYr9LNJIbRG-5" value="" style="shape=cylinder3;whiteSpace=wrap;html=1;boundedLbl=1;backgroundOutline=1;size=15;" parent="3-bLGzzLRzYr9LNJIbRG-1" vertex="1">
          <mxGeometry x="520" y="940" width="60" height="80" as="geometry" />
        </mxCell>
        <mxCell id="3-bLGzzLRzYr9LNJIbRG-6" value="" style="endArrow=classic;startArrow=classic;html=1;rounded=0;exitX=0.5;exitY=0;exitDx=0;exitDy=0;exitPerimeter=0;entryX=0.5;entryY=1;entryDx=0;entryDy=0;" parent="3-bLGzzLRzYr9LNJIbRG-1" source="3-bLGzzLRzYr9LNJIbRG-5" target="3-bLGzzLRzYr9LNJIbRG-4" edge="1">
          <mxGeometry width="50" height="50" relative="1" as="geometry">
            <mxPoint x="520" y="860" as="sourcePoint" />
            <mxPoint x="570" y="810" as="targetPoint" />
          </mxGeometry>
        </mxCell>
        <mxCell id="3-bLGzzLRzYr9LNJIbRG-7" value="&lt;font style=&quot;font-size: 18px;&quot;&gt;Repository&lt;/font&gt;" style="rounded=1;whiteSpace=wrap;html=1;" parent="3-bLGzzLRzYr9LNJIbRG-1" vertex="1">
          <mxGeometry x="400" y="770" width="300" height="40" as="geometry" />
        </mxCell>
        <mxCell id="3-bLGzzLRzYr9LNJIbRG-8" value="" style="endArrow=classic;startArrow=classic;html=1;rounded=0;exitX=0.5;exitY=0;exitDx=0;exitDy=0;entryX=0.5;entryY=1;entryDx=0;entryDy=0;" parent="3-bLGzzLRzYr9LNJIbRG-1" source="3-bLGzzLRzYr9LNJIbRG-4" target="3-bLGzzLRzYr9LNJIbRG-7" edge="1">
          <mxGeometry width="50" height="50" relative="1" as="geometry">
            <mxPoint x="510" y="680" as="sourcePoint" />
            <mxPoint x="550" y="770" as="targetPoint" />
          </mxGeometry>
        </mxCell>
        <mxCell id="3-bLGzzLRzYr9LNJIbRG-9" value="" style="shape=flexArrow;endArrow=classic;html=1;rounded=0;entryX=0;entryY=0.538;entryDx=0;entryDy=0;entryPerimeter=0;endWidth=37;endSize=9.33;fillColor=#f5f5f5;strokeColor=#666666;" parent="3-bLGzzLRzYr9LNJIbRG-1" edge="1">
          <mxGeometry width="50" height="50" relative="1" as="geometry">
            <mxPoint x="80" y="779.62" as="sourcePoint" />
            <mxPoint x="310" y="779.5000000000001" as="targetPoint" />
          </mxGeometry>
        </mxCell>
        <mxCell id="3-bLGzzLRzYr9LNJIbRG-10" value="&lt;font style=&quot;font-size: 14px;&quot;&gt;Infrastructure Layer&lt;/font&gt;" style="edgeLabel;html=1;align=center;verticalAlign=middle;resizable=0;points=[];" parent="3-bLGzzLRzYr9LNJIbRG-9" vertex="1" connectable="0">
          <mxGeometry x="-0.313" relative="1" as="geometry">
            <mxPoint x="21" y="-20" as="offset" />
          </mxGeometry>
        </mxCell>
        <mxCell id="3-bLGzzLRzYr9LNJIbRG-11" value="ILookup" style="rounded=1;whiteSpace=wrap;html=1;" parent="3-bLGzzLRzYr9LNJIbRG-1" vertex="1">
          <mxGeometry x="350" y="560" width="120" height="40" as="geometry" />
        </mxCell>
        <mxCell id="3-bLGzzLRzYr9LNJIbRG-12" value="ICRUD" style="rounded=1;whiteSpace=wrap;html=1;" parent="3-bLGzzLRzYr9LNJIbRG-1" vertex="1">
          <mxGeometry x="490" y="560" width="120" height="40" as="geometry" />
        </mxCell>
        <mxCell id="3-bLGzzLRzYr9LNJIbRG-13" value="IView" style="rounded=1;whiteSpace=wrap;html=1;" parent="3-bLGzzLRzYr9LNJIbRG-1" vertex="1">
          <mxGeometry x="630" y="560" width="120" height="40" as="geometry" />
        </mxCell>
        <mxCell id="3-bLGzzLRzYr9LNJIbRG-14" value="" style="endArrow=classic;startArrow=classic;html=1;rounded=0;entryX=0.5;entryY=1;entryDx=0;entryDy=0;" parent="3-bLGzzLRzYr9LNJIbRG-1" source="KuX4VvcZbhJw5G4tI8si-0" target="3-bLGzzLRzYr9LNJIbRG-11" edge="1">
          <mxGeometry width="50" height="50" relative="1" as="geometry">
            <mxPoint x="510" y="680" as="sourcePoint" />
            <mxPoint x="560" y="630" as="targetPoint" />
          </mxGeometry>
        </mxCell>
        <mxCell id="3-bLGzzLRzYr9LNJIbRG-15" value="" style="endArrow=classic;startArrow=classic;html=1;rounded=0;" parent="3-bLGzzLRzYr9LNJIbRG-1" source="3-bLGzzLRzYr9LNJIbRG-7" target="KuX4VvcZbhJw5G4tI8si-2" edge="1">
          <mxGeometry width="50" height="50" relative="1" as="geometry">
            <mxPoint x="510" y="680" as="sourcePoint" />
            <mxPoint x="560" y="630" as="targetPoint" />
          </mxGeometry>
        </mxCell>
        <mxCell id="3-bLGzzLRzYr9LNJIbRG-16" value="" style="endArrow=classic;startArrow=classic;html=1;rounded=0;entryX=0.45;entryY=0.967;entryDx=0;entryDy=0;exitX=0.813;exitY=0;exitDx=0;exitDy=0;exitPerimeter=0;entryPerimeter=0;" parent="3-bLGzzLRzYr9LNJIbRG-1" source="3-bLGzzLRzYr9LNJIbRG-7" target="KuX4VvcZbhJw5G4tI8si-3" edge="1">
          <mxGeometry width="50" height="50" relative="1" as="geometry">
            <mxPoint x="510" y="680" as="sourcePoint" />
            <mxPoint x="560" y="630" as="targetPoint" />
          </mxGeometry>
        </mxCell>
        <mxCell id="3-bLGzzLRzYr9LNJIbRG-17" value="" style="shape=flexArrow;endArrow=classic;html=1;rounded=0;entryX=0;entryY=0.538;entryDx=0;entryDy=0;entryPerimeter=0;endWidth=37;endSize=9.33;fillColor=#f5f5f5;strokeColor=#666666;" parent="3-bLGzzLRzYr9LNJIbRG-1" edge="1">
          <mxGeometry width="50" height="50" relative="1" as="geometry">
            <mxPoint x="80" y="529.62" as="sourcePoint" />
            <mxPoint x="310" y="529.5000000000001" as="targetPoint" />
          </mxGeometry>
        </mxCell>
        <mxCell id="3-bLGzzLRzYr9LNJIbRG-18" value="&lt;span style=&quot;font-size: 14px;&quot;&gt;Business/Domain/Core Layer&lt;/span&gt;" style="edgeLabel;html=1;align=center;verticalAlign=middle;resizable=0;points=[];" parent="3-bLGzzLRzYr9LNJIbRG-17" vertex="1" connectable="0">
          <mxGeometry x="-0.313" relative="1" as="geometry">
            <mxPoint x="21" y="-20" as="offset" />
          </mxGeometry>
        </mxCell>
        <mxCell id="3-bLGzzLRzYr9LNJIbRG-19" value="" style="rounded=0;whiteSpace=wrap;html=1;fillColor=#dae8fc;strokeColor=#6c8ebf;" parent="3-bLGzzLRzYr9LNJIbRG-1" vertex="1">
          <mxGeometry x="310" y="240" width="480" height="100" as="geometry" />
        </mxCell>
        <mxCell id="3-bLGzzLRzYr9LNJIbRG-20" value="REST API" style="rounded=1;whiteSpace=wrap;html=1;" parent="3-bLGzzLRzYr9LNJIbRG-1" vertex="1">
          <mxGeometry x="330" y="260" width="120" height="60" as="geometry" />
        </mxCell>
        <mxCell id="3-bLGzzLRzYr9LNJIbRG-21" value="User Interface" style="rounded=1;whiteSpace=wrap;html=1;" parent="3-bLGzzLRzYr9LNJIbRG-1" vertex="1">
          <mxGeometry x="490" y="260" width="120" height="60" as="geometry" />
        </mxCell>
        <mxCell id="3-bLGzzLRzYr9LNJIbRG-22" value="Unattended Process" style="rounded=1;whiteSpace=wrap;html=1;" parent="3-bLGzzLRzYr9LNJIbRG-1" vertex="1">
          <mxGeometry x="650" y="260" width="120" height="60" as="geometry" />
        </mxCell>
        <mxCell id="3-bLGzzLRzYr9LNJIbRG-23" value="" style="shape=flexArrow;endArrow=classic;html=1;rounded=0;entryX=0;entryY=0.538;entryDx=0;entryDy=0;entryPerimeter=0;endWidth=37;endSize=9.33;fillColor=#f5f5f5;strokeColor=#666666;" parent="3-bLGzzLRzYr9LNJIbRG-1" edge="1">
          <mxGeometry width="50" height="50" relative="1" as="geometry">
            <mxPoint x="80" y="290.03999999999996" as="sourcePoint" />
            <mxPoint x="310" y="289.9200000000001" as="targetPoint" />
          </mxGeometry>
        </mxCell>
        <mxCell id="3-bLGzzLRzYr9LNJIbRG-24" value="&lt;span style=&quot;font-size: 14px;&quot;&gt;Application Purpose&lt;/span&gt;" style="edgeLabel;html=1;align=center;verticalAlign=middle;resizable=0;points=[];" parent="3-bLGzzLRzYr9LNJIbRG-23" vertex="1" connectable="0">
          <mxGeometry x="-0.313" relative="1" as="geometry">
            <mxPoint x="21" y="-20" as="offset" />
          </mxGeometry>
        </mxCell>
        <mxCell id="3-bLGzzLRzYr9LNJIbRG-25" value="&lt;span style=&quot;font-size: 36px;&quot;&gt;Refactor Repository Services &lt;br&gt;in favor Repository Pattern&lt;br&gt;&lt;/span&gt;" style="text;strokeColor=none;align=center;fillColor=none;html=1;verticalAlign=middle;whiteSpace=wrap;rounded=0;" parent="3-bLGzzLRzYr9LNJIbRG-1" vertex="1">
          <mxGeometry x="90" y="50" width="710" height="150" as="geometry" />
        </mxCell>
        <mxCell id="3-bLGzzLRzYr9LNJIbRG-26" value="Handler" style="rounded=1;whiteSpace=wrap;html=1;" parent="3-bLGzzLRzYr9LNJIbRG-1" vertex="1">
          <mxGeometry x="412.5" y="460" width="60" height="30" as="geometry" />
        </mxCell>
        <mxCell id="3-bLGzzLRzYr9LNJIbRG-27" value="Handler" style="rounded=1;whiteSpace=wrap;html=1;" parent="3-bLGzzLRzYr9LNJIbRG-1" vertex="1">
          <mxGeometry x="342.5" y="460" width="60" height="30" as="geometry" />
        </mxCell>
        <mxCell id="3-bLGzzLRzYr9LNJIbRG-28" value="Handler" style="rounded=1;whiteSpace=wrap;html=1;" parent="3-bLGzzLRzYr9LNJIbRG-1" vertex="1">
          <mxGeometry x="482.5" y="460" width="60" height="30" as="geometry" />
        </mxCell>
        <mxCell id="3-bLGzzLRzYr9LNJIbRG-29" value="Handler" style="rounded=1;whiteSpace=wrap;html=1;" parent="3-bLGzzLRzYr9LNJIbRG-1" vertex="1">
          <mxGeometry x="557.5" y="460" width="60" height="30" as="geometry" />
        </mxCell>
        <mxCell id="3-bLGzzLRzYr9LNJIbRG-30" value="Handler" style="rounded=1;whiteSpace=wrap;html=1;" parent="3-bLGzzLRzYr9LNJIbRG-1" vertex="1">
          <mxGeometry x="627.5" y="460" width="60" height="30" as="geometry" />
        </mxCell>
        <mxCell id="3-bLGzzLRzYr9LNJIbRG-31" value="Handler" style="rounded=1;whiteSpace=wrap;html=1;" parent="3-bLGzzLRzYr9LNJIbRG-1" vertex="1">
          <mxGeometry x="697.5" y="460" width="60" height="30" as="geometry" />
        </mxCell>
        <mxCell id="3-bLGzzLRzYr9LNJIbRG-32" value="" style="endArrow=classic;startArrow=classic;html=1;rounded=0;exitX=0.25;exitY=0;exitDx=0;exitDy=0;entryX=0.5;entryY=1;entryDx=0;entryDy=0;" parent="3-bLGzzLRzYr9LNJIbRG-1" source="3-bLGzzLRzYr9LNJIbRG-11" target="3-bLGzzLRzYr9LNJIbRG-27" edge="1">
          <mxGeometry width="50" height="50" relative="1" as="geometry">
            <mxPoint x="400" y="450" as="sourcePoint" />
            <mxPoint x="450" y="400" as="targetPoint" />
          </mxGeometry>
        </mxCell>
        <mxCell id="3-bLGzzLRzYr9LNJIbRG-33" value="" style="endArrow=classic;startArrow=classic;html=1;rounded=0;entryX=0.5;entryY=1;entryDx=0;entryDy=0;" parent="3-bLGzzLRzYr9LNJIbRG-1" source="3-bLGzzLRzYr9LNJIbRG-11" target="3-bLGzzLRzYr9LNJIbRG-26" edge="1">
          <mxGeometry width="50" height="50" relative="1" as="geometry">
            <mxPoint x="400" y="450" as="sourcePoint" />
            <mxPoint x="450" y="400" as="targetPoint" />
          </mxGeometry>
        </mxCell>
        <mxCell id="3-bLGzzLRzYr9LNJIbRG-34" value="" style="endArrow=classic;startArrow=classic;html=1;rounded=0;exitX=0.025;exitY=0.133;exitDx=0;exitDy=0;exitPerimeter=0;entryX=0.5;entryY=1;entryDx=0;entryDy=0;" parent="3-bLGzzLRzYr9LNJIbRG-1" source="3-bLGzzLRzYr9LNJIbRG-12" target="3-bLGzzLRzYr9LNJIbRG-26" edge="1">
          <mxGeometry width="50" height="50" relative="1" as="geometry">
            <mxPoint x="400" y="450" as="sourcePoint" />
            <mxPoint x="450" y="400" as="targetPoint" />
          </mxGeometry>
        </mxCell>
        <mxCell id="3-bLGzzLRzYr9LNJIbRG-35" value="" style="endArrow=classic;startArrow=classic;html=1;rounded=0;entryX=0.5;entryY=1;entryDx=0;entryDy=0;" parent="3-bLGzzLRzYr9LNJIbRG-1" source="3-bLGzzLRzYr9LNJIbRG-11" target="3-bLGzzLRzYr9LNJIbRG-28" edge="1">
          <mxGeometry width="50" height="50" relative="1" as="geometry">
            <mxPoint x="400" y="450" as="sourcePoint" />
            <mxPoint x="450" y="400" as="targetPoint" />
          </mxGeometry>
        </mxCell>
        <mxCell id="3-bLGzzLRzYr9LNJIbRG-36" value="" style="endArrow=classic;startArrow=classic;html=1;rounded=0;exitX=0.5;exitY=0;exitDx=0;exitDy=0;entryX=0.5;entryY=1;entryDx=0;entryDy=0;" parent="3-bLGzzLRzYr9LNJIbRG-1" source="3-bLGzzLRzYr9LNJIbRG-12" target="3-bLGzzLRzYr9LNJIbRG-28" edge="1">
          <mxGeometry width="50" height="50" relative="1" as="geometry">
            <mxPoint x="400" y="450" as="sourcePoint" />
            <mxPoint x="450" y="400" as="targetPoint" />
          </mxGeometry>
        </mxCell>
        <mxCell id="3-bLGzzLRzYr9LNJIbRG-37" value="" style="endArrow=classic;startArrow=classic;html=1;rounded=0;exitX=0.75;exitY=0;exitDx=0;exitDy=0;entryX=0.5;entryY=1;entryDx=0;entryDy=0;" parent="3-bLGzzLRzYr9LNJIbRG-1" source="3-bLGzzLRzYr9LNJIbRG-12" target="3-bLGzzLRzYr9LNJIbRG-29" edge="1">
          <mxGeometry width="50" height="50" relative="1" as="geometry">
            <mxPoint x="400" y="450" as="sourcePoint" />
            <mxPoint x="450" y="400" as="targetPoint" />
          </mxGeometry>
        </mxCell>
        <mxCell id="3-bLGzzLRzYr9LNJIbRG-38" value="" style="endArrow=classic;startArrow=classic;html=1;rounded=0;exitX=0.25;exitY=0;exitDx=0;exitDy=0;" parent="3-bLGzzLRzYr9LNJIbRG-1" source="3-bLGzzLRzYr9LNJIbRG-13" target="3-bLGzzLRzYr9LNJIbRG-30" edge="1">
          <mxGeometry width="50" height="50" relative="1" as="geometry">
            <mxPoint x="400" y="450" as="sourcePoint" />
            <mxPoint x="450" y="400" as="targetPoint" />
          </mxGeometry>
        </mxCell>
        <mxCell id="3-bLGzzLRzYr9LNJIbRG-39" value="" style="endArrow=classic;startArrow=classic;html=1;rounded=0;exitX=0.75;exitY=0;exitDx=0;exitDy=0;" parent="3-bLGzzLRzYr9LNJIbRG-1" source="3-bLGzzLRzYr9LNJIbRG-13" target="3-bLGzzLRzYr9LNJIbRG-31" edge="1">
          <mxGeometry width="50" height="50" relative="1" as="geometry">
            <mxPoint x="400" y="450" as="sourcePoint" />
            <mxPoint x="450" y="400" as="targetPoint" />
          </mxGeometry>
        </mxCell>
        <mxCell id="3-bLGzzLRzYr9LNJIbRG-40" value="" style="endArrow=classic;html=1;rounded=0;exitX=0.25;exitY=1;exitDx=0;exitDy=0;entryX=0.25;entryY=0;entryDx=0;entryDy=0;" parent="3-bLGzzLRzYr9LNJIbRG-1" source="3-bLGzzLRzYr9LNJIbRG-20" target="3-bLGzzLRzYr9LNJIbRG-27" edge="1">
          <mxGeometry width="50" height="50" relative="1" as="geometry">
            <mxPoint x="400" y="450" as="sourcePoint" />
            <mxPoint x="450" y="400" as="targetPoint" />
          </mxGeometry>
        </mxCell>
        <mxCell id="3-bLGzzLRzYr9LNJIbRG-41" value="Request" style="edgeLabel;html=1;align=center;verticalAlign=middle;resizable=0;points=[];" parent="3-bLGzzLRzYr9LNJIbRG-40" vertex="1" connectable="0">
          <mxGeometry x="-0.2434" y="2" relative="1" as="geometry">
            <mxPoint y="-13" as="offset" />
          </mxGeometry>
        </mxCell>
        <mxCell id="3-bLGzzLRzYr9LNJIbRG-42" value="" style="endArrow=classic;html=1;rounded=0;exitX=0.75;exitY=0;exitDx=0;exitDy=0;entryX=0.5;entryY=1;entryDx=0;entryDy=0;" parent="3-bLGzzLRzYr9LNJIbRG-1" source="3-bLGzzLRzYr9LNJIbRG-27" target="3-bLGzzLRzYr9LNJIbRG-20" edge="1">
          <mxGeometry width="50" height="50" relative="1" as="geometry">
            <mxPoint x="400" y="450" as="sourcePoint" />
            <mxPoint x="450" y="400" as="targetPoint" />
          </mxGeometry>
        </mxCell>
        <mxCell id="3-bLGzzLRzYr9LNJIbRG-43" value="Response" style="edgeLabel;html=1;align=center;verticalAlign=middle;resizable=0;points=[];" parent="3-bLGzzLRzYr9LNJIbRG-42" vertex="1" connectable="0">
          <mxGeometry x="0.1439" y="-4" relative="1" as="geometry">
            <mxPoint x="-3" y="10" as="offset" />
          </mxGeometry>
        </mxCell>
        <mxCell id="3-bLGzzLRzYr9LNJIbRG-44" value="" style="endArrow=classic;html=1;rounded=0;exitX=0;exitY=0.75;exitDx=0;exitDy=0;entryX=0.25;entryY=0;entryDx=0;entryDy=0;" parent="3-bLGzzLRzYr9LNJIbRG-1" source="3-bLGzzLRzYr9LNJIbRG-21" target="3-bLGzzLRzYr9LNJIbRG-26" edge="1">
          <mxGeometry width="50" height="50" relative="1" as="geometry">
            <mxPoint x="400" y="450" as="sourcePoint" />
            <mxPoint x="450" y="400" as="targetPoint" />
          </mxGeometry>
        </mxCell>
        <mxCell id="3-bLGzzLRzYr9LNJIbRG-45" value="Request" style="edgeLabel;html=1;align=center;verticalAlign=middle;resizable=0;points=[];" parent="3-bLGzzLRzYr9LNJIbRG-44" vertex="1" connectable="0">
          <mxGeometry x="-0.3272" y="2" relative="1" as="geometry">
            <mxPoint x="-1" y="2" as="offset" />
          </mxGeometry>
        </mxCell>
        <mxCell id="3-bLGzzLRzYr9LNJIbRG-46" value="" style="endArrow=classic;html=1;rounded=0;exitX=0.75;exitY=0;exitDx=0;exitDy=0;entryX=0.167;entryY=0.967;entryDx=0;entryDy=0;entryPerimeter=0;" parent="3-bLGzzLRzYr9LNJIbRG-1" source="3-bLGzzLRzYr9LNJIbRG-26" target="3-bLGzzLRzYr9LNJIbRG-21" edge="1">
          <mxGeometry width="50" height="50" relative="1" as="geometry">
            <mxPoint x="400" y="450" as="sourcePoint" />
            <mxPoint x="450" y="400" as="targetPoint" />
          </mxGeometry>
        </mxCell>
        <mxCell id="3-bLGzzLRzYr9LNJIbRG-47" value="Response" style="edgeLabel;html=1;align=center;verticalAlign=middle;resizable=0;points=[];" parent="3-bLGzzLRzYr9LNJIbRG-46" vertex="1" connectable="0">
          <mxGeometry x="0.2218" y="-1" relative="1" as="geometry">
            <mxPoint y="15" as="offset" />
          </mxGeometry>
        </mxCell>
        <mxCell id="3-bLGzzLRzYr9LNJIbRG-48" value="" style="endArrow=classic;html=1;rounded=0;exitX=0.5;exitY=1;exitDx=0;exitDy=0;entryX=0.25;entryY=0;entryDx=0;entryDy=0;" parent="3-bLGzzLRzYr9LNJIbRG-1" source="3-bLGzzLRzYr9LNJIbRG-21" target="3-bLGzzLRzYr9LNJIbRG-28" edge="1">
          <mxGeometry width="50" height="50" relative="1" as="geometry">
            <mxPoint x="400" y="450" as="sourcePoint" />
            <mxPoint x="450" y="400" as="targetPoint" />
          </mxGeometry>
        </mxCell>
        <mxCell id="3-bLGzzLRzYr9LNJIbRG-49" value="Request" style="edgeLabel;html=1;align=center;verticalAlign=middle;resizable=0;points=[];" parent="3-bLGzzLRzYr9LNJIbRG-48" vertex="1" connectable="0">
          <mxGeometry x="-0.4239" y="-1" relative="1" as="geometry">
            <mxPoint as="offset" />
          </mxGeometry>
        </mxCell>
        <mxCell id="3-bLGzzLRzYr9LNJIbRG-50" value="" style="endArrow=classic;html=1;rounded=0;exitX=0.75;exitY=0;exitDx=0;exitDy=0;entryX=0.75;entryY=1;entryDx=0;entryDy=0;" parent="3-bLGzzLRzYr9LNJIbRG-1" source="3-bLGzzLRzYr9LNJIbRG-28" target="3-bLGzzLRzYr9LNJIbRG-21" edge="1">
          <mxGeometry width="50" height="50" relative="1" as="geometry">
            <mxPoint x="400" y="450" as="sourcePoint" />
            <mxPoint x="450" y="400" as="targetPoint" />
          </mxGeometry>
        </mxCell>
        <mxCell id="3-bLGzzLRzYr9LNJIbRG-51" value="Response" style="edgeLabel;html=1;align=center;verticalAlign=middle;resizable=0;points=[];" parent="3-bLGzzLRzYr9LNJIbRG-50" vertex="1" connectable="0">
          <mxGeometry x="-0.171" y="-3" relative="1" as="geometry">
            <mxPoint x="5" y="-13" as="offset" />
          </mxGeometry>
        </mxCell>
        <mxCell id="3-bLGzzLRzYr9LNJIbRG-52" value="" style="endArrow=classic;html=1;rounded=0;entryX=0.25;entryY=0;entryDx=0;entryDy=0;exitX=0.25;exitY=1;exitDx=0;exitDy=0;" parent="3-bLGzzLRzYr9LNJIbRG-1" source="3-bLGzzLRzYr9LNJIbRG-22" target="3-bLGzzLRzYr9LNJIbRG-30" edge="1">
          <mxGeometry width="50" height="50" relative="1" as="geometry">
            <mxPoint x="400" y="450" as="sourcePoint" />
            <mxPoint x="450" y="400" as="targetPoint" />
          </mxGeometry>
        </mxCell>
        <mxCell id="3-bLGzzLRzYr9LNJIbRG-53" value="Request" style="edgeLabel;html=1;align=center;verticalAlign=middle;resizable=0;points=[];" parent="3-bLGzzLRzYr9LNJIbRG-52" vertex="1" connectable="0">
          <mxGeometry x="-0.4614" y="1" relative="1" as="geometry">
            <mxPoint as="offset" />
          </mxGeometry>
        </mxCell>
        <mxCell id="3-bLGzzLRzYr9LNJIbRG-54" value="" style="endArrow=classic;html=1;rounded=0;exitX=0.5;exitY=0;exitDx=0;exitDy=0;entryX=0.5;entryY=1;entryDx=0;entryDy=0;" parent="3-bLGzzLRzYr9LNJIbRG-1" source="3-bLGzzLRzYr9LNJIbRG-30" target="3-bLGzzLRzYr9LNJIbRG-22" edge="1">
          <mxGeometry width="50" height="50" relative="1" as="geometry">
            <mxPoint x="400" y="450" as="sourcePoint" />
            <mxPoint x="450" y="400" as="targetPoint" />
          </mxGeometry>
        </mxCell>
        <mxCell id="3-bLGzzLRzYr9LNJIbRG-55" value="Response" style="edgeLabel;html=1;align=center;verticalAlign=middle;resizable=0;points=[];" parent="3-bLGzzLRzYr9LNJIbRG-54" vertex="1" connectable="0">
          <mxGeometry x="-0.1757" y="-2" relative="1" as="geometry">
            <mxPoint x="9" y="-13" as="offset" />
          </mxGeometry>
        </mxCell>
        <mxCell id="3-bLGzzLRzYr9LNJIbRG-56" value="" style="endArrow=classic;html=1;rounded=0;exitX=0.75;exitY=1;exitDx=0;exitDy=0;entryX=0.25;entryY=0;entryDx=0;entryDy=0;" parent="3-bLGzzLRzYr9LNJIbRG-1" source="3-bLGzzLRzYr9LNJIbRG-22" target="3-bLGzzLRzYr9LNJIbRG-31" edge="1">
          <mxGeometry width="50" height="50" relative="1" as="geometry">
            <mxPoint x="400" y="450" as="sourcePoint" />
            <mxPoint x="450" y="400" as="targetPoint" />
          </mxGeometry>
        </mxCell>
        <mxCell id="3-bLGzzLRzYr9LNJIbRG-57" value="Request" style="edgeLabel;html=1;align=center;verticalAlign=middle;resizable=0;points=[];" parent="3-bLGzzLRzYr9LNJIbRG-56" vertex="1" connectable="0">
          <mxGeometry x="-0.5024" y="1" relative="1" as="geometry">
            <mxPoint as="offset" />
          </mxGeometry>
        </mxCell>
        <mxCell id="3-bLGzzLRzYr9LNJIbRG-58" value="" style="endArrow=classic;html=1;rounded=0;exitX=0.75;exitY=0;exitDx=0;exitDy=0;entryX=0.925;entryY=0.967;entryDx=0;entryDy=0;entryPerimeter=0;" parent="3-bLGzzLRzYr9LNJIbRG-1" source="3-bLGzzLRzYr9LNJIbRG-31" target="3-bLGzzLRzYr9LNJIbRG-22" edge="1">
          <mxGeometry width="50" height="50" relative="1" as="geometry">
            <mxPoint x="400" y="450" as="sourcePoint" />
            <mxPoint x="450" y="400" as="targetPoint" />
          </mxGeometry>
        </mxCell>
        <mxCell id="3-bLGzzLRzYr9LNJIbRG-59" value="Response" style="edgeLabel;html=1;align=center;verticalAlign=middle;resizable=0;points=[];" parent="3-bLGzzLRzYr9LNJIbRG-58" vertex="1" connectable="0">
          <mxGeometry x="-0.152" y="-2" relative="1" as="geometry">
            <mxPoint y="-1" as="offset" />
          </mxGeometry>
        </mxCell>
        <mxCell id="KuX4VvcZbhJw5G4tI8si-1" value="" style="endArrow=classic;startArrow=classic;html=1;rounded=0;entryX=0.5;entryY=1;entryDx=0;entryDy=0;exitX=0.14;exitY=0.017;exitDx=0;exitDy=0;exitPerimeter=0;" parent="3-bLGzzLRzYr9LNJIbRG-1" source="3-bLGzzLRzYr9LNJIbRG-7" target="KuX4VvcZbhJw5G4tI8si-0" edge="1">
          <mxGeometry width="50" height="50" relative="1" as="geometry">
            <mxPoint x="442" y="741" as="sourcePoint" />
            <mxPoint x="410" y="600" as="targetPoint" />
          </mxGeometry>
        </mxCell>
        <mxCell id="KuX4VvcZbhJw5G4tI8si-0" value="Lookup Tables&lt;br&gt;Service" style="rounded=1;whiteSpace=wrap;html=1;" parent="3-bLGzzLRzYr9LNJIbRG-1" vertex="1">
          <mxGeometry x="342.5" y="680" width="120" height="40" as="geometry" />
        </mxCell>
        <mxCell id="KuX4VvcZbhJw5G4tI8si-2" value="CRUD &lt;br&gt;Service" style="rounded=1;whiteSpace=wrap;html=1;" parent="3-bLGzzLRzYr9LNJIbRG-1" vertex="1">
          <mxGeometry x="490" y="680" width="120" height="40" as="geometry" />
        </mxCell>
        <mxCell id="KuX4VvcZbhJw5G4tI8si-3" value="Specialized Views&lt;br&gt;Service" style="rounded=1;whiteSpace=wrap;html=1;" parent="3-bLGzzLRzYr9LNJIbRG-1" vertex="1">
          <mxGeometry x="650" y="680" width="120" height="40" as="geometry" />
        </mxCell>
        <mxCell id="KuX4VvcZbhJw5G4tI8si-4" value="" style="endArrow=classic;startArrow=classic;html=1;rounded=0;entryX=0.5;entryY=1;entryDx=0;entryDy=0;exitX=0.5;exitY=0;exitDx=0;exitDy=0;" parent="3-bLGzzLRzYr9LNJIbRG-1" source="KuX4VvcZbhJw5G4tI8si-2" target="3-bLGzzLRzYr9LNJIbRG-12" edge="1">
          <mxGeometry width="50" height="50" relative="1" as="geometry">
            <mxPoint x="400" y="660" as="sourcePoint" />
            <mxPoint x="450" y="610" as="targetPoint" />
          </mxGeometry>
        </mxCell>
        <mxCell id="KuX4VvcZbhJw5G4tI8si-5" value="" style="endArrow=classic;startArrow=classic;html=1;rounded=0;entryX=0.5;entryY=1;entryDx=0;entryDy=0;" parent="3-bLGzzLRzYr9LNJIbRG-1" source="KuX4VvcZbhJw5G4tI8si-3" target="3-bLGzzLRzYr9LNJIbRG-13" edge="1">
          <mxGeometry width="50" height="50" relative="1" as="geometry">
            <mxPoint x="400" y="660" as="sourcePoint" />
            <mxPoint x="450" y="610" as="targetPoint" />
          </mxGeometry>
        </mxCell>
      </root>
    </mxGraphModel>
  </diagram>
  <diagram name="Separation of Repositories" id="Dlr9R_sB2ikoM9FkPKgx">
    <mxGraphModel dx="1211" dy="820" grid="1" gridSize="10" guides="1" tooltips="1" connect="1" arrows="1" fold="1" page="1" pageScale="1" pageWidth="850" pageHeight="1100" math="0" shadow="0">
      <root>
        <mxCell id="23scjZwYSQDnCTFHyhv0-0" />
        <mxCell id="23scjZwYSQDnCTFHyhv0-1" parent="23scjZwYSQDnCTFHyhv0-0" />
        <mxCell id="23scjZwYSQDnCTFHyhv0-2" value="" style="rounded=0;whiteSpace=wrap;html=1;fillColor=#fff2cc;strokeColor=#d6b656;" parent="23scjZwYSQDnCTFHyhv0-1" vertex="1">
          <mxGeometry x="310" y="420" width="480" height="220" as="geometry" />
        </mxCell>
        <mxCell id="23scjZwYSQDnCTFHyhv0-3" value="" style="rounded=0;whiteSpace=wrap;html=1;fillColor=#d5e8d4;strokeColor=#82b366;" parent="23scjZwYSQDnCTFHyhv0-1" vertex="1">
          <mxGeometry x="310" y="670" width="480" height="260" as="geometry" />
        </mxCell>
        <mxCell id="23scjZwYSQDnCTFHyhv0-4" value="&lt;font style=&quot;font-size: 18px;&quot;&gt;DBContext&lt;/font&gt;" style="rounded=1;whiteSpace=wrap;html=1;" parent="23scjZwYSQDnCTFHyhv0-1" vertex="1">
          <mxGeometry x="320" y="850" width="460" height="40" as="geometry" />
        </mxCell>
        <mxCell id="23scjZwYSQDnCTFHyhv0-5" value="" style="shape=cylinder3;whiteSpace=wrap;html=1;boundedLbl=1;backgroundOutline=1;size=15;" parent="23scjZwYSQDnCTFHyhv0-1" vertex="1">
          <mxGeometry x="520" y="940" width="60" height="80" as="geometry" />
        </mxCell>
        <mxCell id="23scjZwYSQDnCTFHyhv0-6" value="" style="endArrow=classic;startArrow=classic;html=1;rounded=0;exitX=0.5;exitY=0;exitDx=0;exitDy=0;exitPerimeter=0;entryX=0.5;entryY=1;entryDx=0;entryDy=0;" parent="23scjZwYSQDnCTFHyhv0-1" source="23scjZwYSQDnCTFHyhv0-5" target="23scjZwYSQDnCTFHyhv0-4" edge="1">
          <mxGeometry width="50" height="50" relative="1" as="geometry">
            <mxPoint x="520" y="860" as="sourcePoint" />
            <mxPoint x="570" y="810" as="targetPoint" />
          </mxGeometry>
        </mxCell>
        <mxCell id="23scjZwYSQDnCTFHyhv0-7" value="Genres&lt;br&gt;Repo" style="rounded=1;whiteSpace=wrap;html=1;" parent="23scjZwYSQDnCTFHyhv0-1" vertex="1">
          <mxGeometry x="320" y="760" width="67" height="40" as="geometry" />
        </mxCell>
        <mxCell id="23scjZwYSQDnCTFHyhv0-9" value="" style="shape=flexArrow;endArrow=classic;html=1;rounded=0;entryX=0;entryY=0.538;entryDx=0;entryDy=0;entryPerimeter=0;endWidth=37;endSize=9.33;fillColor=#f5f5f5;strokeColor=#666666;" parent="23scjZwYSQDnCTFHyhv0-1" edge="1">
          <mxGeometry width="50" height="50" relative="1" as="geometry">
            <mxPoint x="80" y="779.62" as="sourcePoint" />
            <mxPoint x="310" y="779.5000000000001" as="targetPoint" />
          </mxGeometry>
        </mxCell>
        <mxCell id="23scjZwYSQDnCTFHyhv0-10" value="&lt;font style=&quot;font-size: 14px;&quot;&gt;Infrastructure Layer&lt;/font&gt;" style="edgeLabel;html=1;align=center;verticalAlign=middle;resizable=0;points=[];" parent="23scjZwYSQDnCTFHyhv0-9" vertex="1" connectable="0">
          <mxGeometry x="-0.313" relative="1" as="geometry">
            <mxPoint x="21" y="-20" as="offset" />
          </mxGeometry>
        </mxCell>
        <mxCell id="23scjZwYSQDnCTFHyhv0-11" value="ILookup" style="rounded=1;whiteSpace=wrap;html=1;" parent="23scjZwYSQDnCTFHyhv0-1" vertex="1">
          <mxGeometry x="350" y="560" width="120" height="40" as="geometry" />
        </mxCell>
        <mxCell id="23scjZwYSQDnCTFHyhv0-12" value="ICRUD" style="rounded=1;whiteSpace=wrap;html=1;" parent="23scjZwYSQDnCTFHyhv0-1" vertex="1">
          <mxGeometry x="490" y="560" width="120" height="40" as="geometry" />
        </mxCell>
        <mxCell id="23scjZwYSQDnCTFHyhv0-13" value="IView" style="rounded=1;whiteSpace=wrap;html=1;" parent="23scjZwYSQDnCTFHyhv0-1" vertex="1">
          <mxGeometry x="630" y="560" width="120" height="40" as="geometry" />
        </mxCell>
        <mxCell id="23scjZwYSQDnCTFHyhv0-14" value="" style="endArrow=classic;startArrow=classic;html=1;rounded=0;entryX=0.5;entryY=1;entryDx=0;entryDy=0;" parent="23scjZwYSQDnCTFHyhv0-1" source="23scjZwYSQDnCTFHyhv0-61" target="23scjZwYSQDnCTFHyhv0-11" edge="1">
          <mxGeometry width="50" height="50" relative="1" as="geometry">
            <mxPoint x="510" y="680" as="sourcePoint" />
            <mxPoint x="560" y="630" as="targetPoint" />
          </mxGeometry>
        </mxCell>
        <mxCell id="23scjZwYSQDnCTFHyhv0-17" value="" style="shape=flexArrow;endArrow=classic;html=1;rounded=0;entryX=0;entryY=0.538;entryDx=0;entryDy=0;entryPerimeter=0;endWidth=37;endSize=9.33;fillColor=#f5f5f5;strokeColor=#666666;" parent="23scjZwYSQDnCTFHyhv0-1" edge="1">
          <mxGeometry width="50" height="50" relative="1" as="geometry">
            <mxPoint x="80" y="529.62" as="sourcePoint" />
            <mxPoint x="310" y="529.5000000000001" as="targetPoint" />
          </mxGeometry>
        </mxCell>
        <mxCell id="23scjZwYSQDnCTFHyhv0-18" value="&lt;span style=&quot;font-size: 14px;&quot;&gt;Business/Domain/Core Layer&lt;/span&gt;" style="edgeLabel;html=1;align=center;verticalAlign=middle;resizable=0;points=[];" parent="23scjZwYSQDnCTFHyhv0-17" vertex="1" connectable="0">
          <mxGeometry x="-0.313" relative="1" as="geometry">
            <mxPoint x="21" y="-20" as="offset" />
          </mxGeometry>
        </mxCell>
        <mxCell id="23scjZwYSQDnCTFHyhv0-19" value="" style="rounded=0;whiteSpace=wrap;html=1;fillColor=#dae8fc;strokeColor=#6c8ebf;" parent="23scjZwYSQDnCTFHyhv0-1" vertex="1">
          <mxGeometry x="310" y="240" width="480" height="100" as="geometry" />
        </mxCell>
        <mxCell id="23scjZwYSQDnCTFHyhv0-20" value="REST API" style="rounded=1;whiteSpace=wrap;html=1;" parent="23scjZwYSQDnCTFHyhv0-1" vertex="1">
          <mxGeometry x="330" y="260" width="120" height="60" as="geometry" />
        </mxCell>
        <mxCell id="23scjZwYSQDnCTFHyhv0-21" value="User Interface" style="rounded=1;whiteSpace=wrap;html=1;" parent="23scjZwYSQDnCTFHyhv0-1" vertex="1">
          <mxGeometry x="490" y="260" width="120" height="60" as="geometry" />
        </mxCell>
        <mxCell id="23scjZwYSQDnCTFHyhv0-22" value="Unattended Process" style="rounded=1;whiteSpace=wrap;html=1;" parent="23scjZwYSQDnCTFHyhv0-1" vertex="1">
          <mxGeometry x="650" y="260" width="120" height="60" as="geometry" />
        </mxCell>
        <mxCell id="23scjZwYSQDnCTFHyhv0-23" value="" style="shape=flexArrow;endArrow=classic;html=1;rounded=0;entryX=0;entryY=0.538;entryDx=0;entryDy=0;entryPerimeter=0;endWidth=37;endSize=9.33;fillColor=#f5f5f5;strokeColor=#666666;" parent="23scjZwYSQDnCTFHyhv0-1" edge="1">
          <mxGeometry width="50" height="50" relative="1" as="geometry">
            <mxPoint x="80" y="290.03999999999996" as="sourcePoint" />
            <mxPoint x="310" y="289.9200000000001" as="targetPoint" />
          </mxGeometry>
        </mxCell>
        <mxCell id="23scjZwYSQDnCTFHyhv0-24" value="&lt;span style=&quot;font-size: 14px;&quot;&gt;Application Purpose&lt;/span&gt;" style="edgeLabel;html=1;align=center;verticalAlign=middle;resizable=0;points=[];" parent="23scjZwYSQDnCTFHyhv0-23" vertex="1" connectable="0">
          <mxGeometry x="-0.313" relative="1" as="geometry">
            <mxPoint x="21" y="-20" as="offset" />
          </mxGeometry>
        </mxCell>
        <mxCell id="23scjZwYSQDnCTFHyhv0-25" value="&lt;span style=&quot;font-size: 36px;&quot;&gt;Refactor One (big) Repository into Individual/Specialized Smaller Repositories&lt;br&gt;&lt;/span&gt;" style="text;strokeColor=none;align=center;fillColor=none;html=1;verticalAlign=middle;whiteSpace=wrap;rounded=0;" parent="23scjZwYSQDnCTFHyhv0-1" vertex="1">
          <mxGeometry x="90" y="50" width="710" height="150" as="geometry" />
        </mxCell>
        <mxCell id="23scjZwYSQDnCTFHyhv0-26" value="Handler" style="rounded=1;whiteSpace=wrap;html=1;" parent="23scjZwYSQDnCTFHyhv0-1" vertex="1">
          <mxGeometry x="412.5" y="460" width="60" height="30" as="geometry" />
        </mxCell>
        <mxCell id="23scjZwYSQDnCTFHyhv0-27" value="Handler" style="rounded=1;whiteSpace=wrap;html=1;" parent="23scjZwYSQDnCTFHyhv0-1" vertex="1">
          <mxGeometry x="342.5" y="460" width="60" height="30" as="geometry" />
        </mxCell>
        <mxCell id="23scjZwYSQDnCTFHyhv0-28" value="Handler" style="rounded=1;whiteSpace=wrap;html=1;" parent="23scjZwYSQDnCTFHyhv0-1" vertex="1">
          <mxGeometry x="482.5" y="460" width="60" height="30" as="geometry" />
        </mxCell>
        <mxCell id="23scjZwYSQDnCTFHyhv0-29" value="Handler" style="rounded=1;whiteSpace=wrap;html=1;" parent="23scjZwYSQDnCTFHyhv0-1" vertex="1">
          <mxGeometry x="557.5" y="460" width="60" height="30" as="geometry" />
        </mxCell>
        <mxCell id="23scjZwYSQDnCTFHyhv0-30" value="Handler" style="rounded=1;whiteSpace=wrap;html=1;" parent="23scjZwYSQDnCTFHyhv0-1" vertex="1">
          <mxGeometry x="627.5" y="460" width="60" height="30" as="geometry" />
        </mxCell>
        <mxCell id="23scjZwYSQDnCTFHyhv0-31" value="Handler" style="rounded=1;whiteSpace=wrap;html=1;" parent="23scjZwYSQDnCTFHyhv0-1" vertex="1">
          <mxGeometry x="697.5" y="460" width="60" height="30" as="geometry" />
        </mxCell>
        <mxCell id="23scjZwYSQDnCTFHyhv0-32" value="" style="endArrow=classic;startArrow=classic;html=1;rounded=0;exitX=0.25;exitY=0;exitDx=0;exitDy=0;entryX=0.5;entryY=1;entryDx=0;entryDy=0;" parent="23scjZwYSQDnCTFHyhv0-1" source="23scjZwYSQDnCTFHyhv0-11" target="23scjZwYSQDnCTFHyhv0-27" edge="1">
          <mxGeometry width="50" height="50" relative="1" as="geometry">
            <mxPoint x="400" y="450" as="sourcePoint" />
            <mxPoint x="450" y="400" as="targetPoint" />
          </mxGeometry>
        </mxCell>
        <mxCell id="23scjZwYSQDnCTFHyhv0-33" value="" style="endArrow=classic;startArrow=classic;html=1;rounded=0;entryX=0.5;entryY=1;entryDx=0;entryDy=0;" parent="23scjZwYSQDnCTFHyhv0-1" source="23scjZwYSQDnCTFHyhv0-11" target="23scjZwYSQDnCTFHyhv0-26" edge="1">
          <mxGeometry width="50" height="50" relative="1" as="geometry">
            <mxPoint x="400" y="450" as="sourcePoint" />
            <mxPoint x="450" y="400" as="targetPoint" />
          </mxGeometry>
        </mxCell>
        <mxCell id="23scjZwYSQDnCTFHyhv0-34" value="" style="endArrow=classic;startArrow=classic;html=1;rounded=0;exitX=0.025;exitY=0.133;exitDx=0;exitDy=0;exitPerimeter=0;entryX=0.5;entryY=1;entryDx=0;entryDy=0;" parent="23scjZwYSQDnCTFHyhv0-1" source="23scjZwYSQDnCTFHyhv0-12" target="23scjZwYSQDnCTFHyhv0-26" edge="1">
          <mxGeometry width="50" height="50" relative="1" as="geometry">
            <mxPoint x="400" y="450" as="sourcePoint" />
            <mxPoint x="450" y="400" as="targetPoint" />
          </mxGeometry>
        </mxCell>
        <mxCell id="23scjZwYSQDnCTFHyhv0-35" value="" style="endArrow=classic;startArrow=classic;html=1;rounded=0;entryX=0.5;entryY=1;entryDx=0;entryDy=0;" parent="23scjZwYSQDnCTFHyhv0-1" source="23scjZwYSQDnCTFHyhv0-11" target="23scjZwYSQDnCTFHyhv0-28" edge="1">
          <mxGeometry width="50" height="50" relative="1" as="geometry">
            <mxPoint x="400" y="450" as="sourcePoint" />
            <mxPoint x="450" y="400" as="targetPoint" />
          </mxGeometry>
        </mxCell>
        <mxCell id="23scjZwYSQDnCTFHyhv0-36" value="" style="endArrow=classic;startArrow=classic;html=1;rounded=0;exitX=0.5;exitY=0;exitDx=0;exitDy=0;entryX=0.5;entryY=1;entryDx=0;entryDy=0;" parent="23scjZwYSQDnCTFHyhv0-1" source="23scjZwYSQDnCTFHyhv0-12" target="23scjZwYSQDnCTFHyhv0-28" edge="1">
          <mxGeometry width="50" height="50" relative="1" as="geometry">
            <mxPoint x="400" y="450" as="sourcePoint" />
            <mxPoint x="450" y="400" as="targetPoint" />
          </mxGeometry>
        </mxCell>
        <mxCell id="23scjZwYSQDnCTFHyhv0-37" value="" style="endArrow=classic;startArrow=classic;html=1;rounded=0;exitX=0.75;exitY=0;exitDx=0;exitDy=0;entryX=0.5;entryY=1;entryDx=0;entryDy=0;" parent="23scjZwYSQDnCTFHyhv0-1" source="23scjZwYSQDnCTFHyhv0-12" target="23scjZwYSQDnCTFHyhv0-29" edge="1">
          <mxGeometry width="50" height="50" relative="1" as="geometry">
            <mxPoint x="400" y="450" as="sourcePoint" />
            <mxPoint x="450" y="400" as="targetPoint" />
          </mxGeometry>
        </mxCell>
        <mxCell id="23scjZwYSQDnCTFHyhv0-38" value="" style="endArrow=classic;startArrow=classic;html=1;rounded=0;exitX=0.25;exitY=0;exitDx=0;exitDy=0;" parent="23scjZwYSQDnCTFHyhv0-1" source="23scjZwYSQDnCTFHyhv0-13" target="23scjZwYSQDnCTFHyhv0-30" edge="1">
          <mxGeometry width="50" height="50" relative="1" as="geometry">
            <mxPoint x="400" y="450" as="sourcePoint" />
            <mxPoint x="450" y="400" as="targetPoint" />
          </mxGeometry>
        </mxCell>
        <mxCell id="23scjZwYSQDnCTFHyhv0-39" value="" style="endArrow=classic;startArrow=classic;html=1;rounded=0;exitX=0.75;exitY=0;exitDx=0;exitDy=0;" parent="23scjZwYSQDnCTFHyhv0-1" source="23scjZwYSQDnCTFHyhv0-13" target="23scjZwYSQDnCTFHyhv0-31" edge="1">
          <mxGeometry width="50" height="50" relative="1" as="geometry">
            <mxPoint x="400" y="450" as="sourcePoint" />
            <mxPoint x="450" y="400" as="targetPoint" />
          </mxGeometry>
        </mxCell>
        <mxCell id="23scjZwYSQDnCTFHyhv0-40" value="" style="endArrow=classic;html=1;rounded=0;exitX=0.25;exitY=1;exitDx=0;exitDy=0;entryX=0.25;entryY=0;entryDx=0;entryDy=0;" parent="23scjZwYSQDnCTFHyhv0-1" source="23scjZwYSQDnCTFHyhv0-20" target="23scjZwYSQDnCTFHyhv0-27" edge="1">
          <mxGeometry width="50" height="50" relative="1" as="geometry">
            <mxPoint x="400" y="450" as="sourcePoint" />
            <mxPoint x="450" y="400" as="targetPoint" />
          </mxGeometry>
        </mxCell>
        <mxCell id="23scjZwYSQDnCTFHyhv0-41" value="Request" style="edgeLabel;html=1;align=center;verticalAlign=middle;resizable=0;points=[];" parent="23scjZwYSQDnCTFHyhv0-40" vertex="1" connectable="0">
          <mxGeometry x="-0.2434" y="2" relative="1" as="geometry">
            <mxPoint y="-13" as="offset" />
          </mxGeometry>
        </mxCell>
        <mxCell id="23scjZwYSQDnCTFHyhv0-42" value="" style="endArrow=classic;html=1;rounded=0;exitX=0.75;exitY=0;exitDx=0;exitDy=0;entryX=0.5;entryY=1;entryDx=0;entryDy=0;" parent="23scjZwYSQDnCTFHyhv0-1" source="23scjZwYSQDnCTFHyhv0-27" target="23scjZwYSQDnCTFHyhv0-20" edge="1">
          <mxGeometry width="50" height="50" relative="1" as="geometry">
            <mxPoint x="400" y="450" as="sourcePoint" />
            <mxPoint x="450" y="400" as="targetPoint" />
          </mxGeometry>
        </mxCell>
        <mxCell id="23scjZwYSQDnCTFHyhv0-43" value="Response" style="edgeLabel;html=1;align=center;verticalAlign=middle;resizable=0;points=[];" parent="23scjZwYSQDnCTFHyhv0-42" vertex="1" connectable="0">
          <mxGeometry x="0.1439" y="-4" relative="1" as="geometry">
            <mxPoint x="-3" y="10" as="offset" />
          </mxGeometry>
        </mxCell>
        <mxCell id="23scjZwYSQDnCTFHyhv0-44" value="" style="endArrow=classic;html=1;rounded=0;exitX=0;exitY=0.75;exitDx=0;exitDy=0;entryX=0.25;entryY=0;entryDx=0;entryDy=0;" parent="23scjZwYSQDnCTFHyhv0-1" source="23scjZwYSQDnCTFHyhv0-21" target="23scjZwYSQDnCTFHyhv0-26" edge="1">
          <mxGeometry width="50" height="50" relative="1" as="geometry">
            <mxPoint x="400" y="450" as="sourcePoint" />
            <mxPoint x="450" y="400" as="targetPoint" />
          </mxGeometry>
        </mxCell>
        <mxCell id="23scjZwYSQDnCTFHyhv0-45" value="Request" style="edgeLabel;html=1;align=center;verticalAlign=middle;resizable=0;points=[];" parent="23scjZwYSQDnCTFHyhv0-44" vertex="1" connectable="0">
          <mxGeometry x="-0.3272" y="2" relative="1" as="geometry">
            <mxPoint x="-1" y="2" as="offset" />
          </mxGeometry>
        </mxCell>
        <mxCell id="23scjZwYSQDnCTFHyhv0-46" value="" style="endArrow=classic;html=1;rounded=0;exitX=0.75;exitY=0;exitDx=0;exitDy=0;entryX=0.167;entryY=0.967;entryDx=0;entryDy=0;entryPerimeter=0;" parent="23scjZwYSQDnCTFHyhv0-1" source="23scjZwYSQDnCTFHyhv0-26" target="23scjZwYSQDnCTFHyhv0-21" edge="1">
          <mxGeometry width="50" height="50" relative="1" as="geometry">
            <mxPoint x="400" y="450" as="sourcePoint" />
            <mxPoint x="450" y="400" as="targetPoint" />
          </mxGeometry>
        </mxCell>
        <mxCell id="23scjZwYSQDnCTFHyhv0-47" value="Response" style="edgeLabel;html=1;align=center;verticalAlign=middle;resizable=0;points=[];" parent="23scjZwYSQDnCTFHyhv0-46" vertex="1" connectable="0">
          <mxGeometry x="0.2218" y="-1" relative="1" as="geometry">
            <mxPoint y="15" as="offset" />
          </mxGeometry>
        </mxCell>
        <mxCell id="23scjZwYSQDnCTFHyhv0-48" value="" style="endArrow=classic;html=1;rounded=0;exitX=0.5;exitY=1;exitDx=0;exitDy=0;entryX=0.25;entryY=0;entryDx=0;entryDy=0;" parent="23scjZwYSQDnCTFHyhv0-1" source="23scjZwYSQDnCTFHyhv0-21" target="23scjZwYSQDnCTFHyhv0-28" edge="1">
          <mxGeometry width="50" height="50" relative="1" as="geometry">
            <mxPoint x="400" y="450" as="sourcePoint" />
            <mxPoint x="450" y="400" as="targetPoint" />
          </mxGeometry>
        </mxCell>
        <mxCell id="23scjZwYSQDnCTFHyhv0-49" value="Request" style="edgeLabel;html=1;align=center;verticalAlign=middle;resizable=0;points=[];" parent="23scjZwYSQDnCTFHyhv0-48" vertex="1" connectable="0">
          <mxGeometry x="-0.4239" y="-1" relative="1" as="geometry">
            <mxPoint as="offset" />
          </mxGeometry>
        </mxCell>
        <mxCell id="23scjZwYSQDnCTFHyhv0-50" value="" style="endArrow=classic;html=1;rounded=0;exitX=0.75;exitY=0;exitDx=0;exitDy=0;entryX=0.75;entryY=1;entryDx=0;entryDy=0;" parent="23scjZwYSQDnCTFHyhv0-1" source="23scjZwYSQDnCTFHyhv0-28" target="23scjZwYSQDnCTFHyhv0-21" edge="1">
          <mxGeometry width="50" height="50" relative="1" as="geometry">
            <mxPoint x="400" y="450" as="sourcePoint" />
            <mxPoint x="450" y="400" as="targetPoint" />
          </mxGeometry>
        </mxCell>
        <mxCell id="23scjZwYSQDnCTFHyhv0-51" value="Response" style="edgeLabel;html=1;align=center;verticalAlign=middle;resizable=0;points=[];" parent="23scjZwYSQDnCTFHyhv0-50" vertex="1" connectable="0">
          <mxGeometry x="-0.171" y="-3" relative="1" as="geometry">
            <mxPoint x="5" y="-13" as="offset" />
          </mxGeometry>
        </mxCell>
        <mxCell id="23scjZwYSQDnCTFHyhv0-52" value="" style="endArrow=classic;html=1;rounded=0;entryX=0.25;entryY=0;entryDx=0;entryDy=0;exitX=0.25;exitY=1;exitDx=0;exitDy=0;" parent="23scjZwYSQDnCTFHyhv0-1" source="23scjZwYSQDnCTFHyhv0-22" target="23scjZwYSQDnCTFHyhv0-30" edge="1">
          <mxGeometry width="50" height="50" relative="1" as="geometry">
            <mxPoint x="400" y="450" as="sourcePoint" />
            <mxPoint x="450" y="400" as="targetPoint" />
          </mxGeometry>
        </mxCell>
        <mxCell id="23scjZwYSQDnCTFHyhv0-53" value="Request" style="edgeLabel;html=1;align=center;verticalAlign=middle;resizable=0;points=[];" parent="23scjZwYSQDnCTFHyhv0-52" vertex="1" connectable="0">
          <mxGeometry x="-0.4614" y="1" relative="1" as="geometry">
            <mxPoint as="offset" />
          </mxGeometry>
        </mxCell>
        <mxCell id="23scjZwYSQDnCTFHyhv0-54" value="" style="endArrow=classic;html=1;rounded=0;exitX=0.5;exitY=0;exitDx=0;exitDy=0;entryX=0.5;entryY=1;entryDx=0;entryDy=0;" parent="23scjZwYSQDnCTFHyhv0-1" source="23scjZwYSQDnCTFHyhv0-30" target="23scjZwYSQDnCTFHyhv0-22" edge="1">
          <mxGeometry width="50" height="50" relative="1" as="geometry">
            <mxPoint x="400" y="450" as="sourcePoint" />
            <mxPoint x="450" y="400" as="targetPoint" />
          </mxGeometry>
        </mxCell>
        <mxCell id="23scjZwYSQDnCTFHyhv0-55" value="Response" style="edgeLabel;html=1;align=center;verticalAlign=middle;resizable=0;points=[];" parent="23scjZwYSQDnCTFHyhv0-54" vertex="1" connectable="0">
          <mxGeometry x="-0.1757" y="-2" relative="1" as="geometry">
            <mxPoint x="9" y="-13" as="offset" />
          </mxGeometry>
        </mxCell>
        <mxCell id="23scjZwYSQDnCTFHyhv0-56" value="" style="endArrow=classic;html=1;rounded=0;exitX=0.75;exitY=1;exitDx=0;exitDy=0;entryX=0.25;entryY=0;entryDx=0;entryDy=0;" parent="23scjZwYSQDnCTFHyhv0-1" source="23scjZwYSQDnCTFHyhv0-22" target="23scjZwYSQDnCTFHyhv0-31" edge="1">
          <mxGeometry width="50" height="50" relative="1" as="geometry">
            <mxPoint x="400" y="450" as="sourcePoint" />
            <mxPoint x="450" y="400" as="targetPoint" />
          </mxGeometry>
        </mxCell>
        <mxCell id="23scjZwYSQDnCTFHyhv0-57" value="Request" style="edgeLabel;html=1;align=center;verticalAlign=middle;resizable=0;points=[];" parent="23scjZwYSQDnCTFHyhv0-56" vertex="1" connectable="0">
          <mxGeometry x="-0.5024" y="1" relative="1" as="geometry">
            <mxPoint as="offset" />
          </mxGeometry>
        </mxCell>
        <mxCell id="23scjZwYSQDnCTFHyhv0-58" value="" style="endArrow=classic;html=1;rounded=0;exitX=0.75;exitY=0;exitDx=0;exitDy=0;entryX=0.925;entryY=0.967;entryDx=0;entryDy=0;entryPerimeter=0;" parent="23scjZwYSQDnCTFHyhv0-1" source="23scjZwYSQDnCTFHyhv0-31" target="23scjZwYSQDnCTFHyhv0-22" edge="1">
          <mxGeometry width="50" height="50" relative="1" as="geometry">
            <mxPoint x="400" y="450" as="sourcePoint" />
            <mxPoint x="450" y="400" as="targetPoint" />
          </mxGeometry>
        </mxCell>
        <mxCell id="23scjZwYSQDnCTFHyhv0-59" value="Response" style="edgeLabel;html=1;align=center;verticalAlign=middle;resizable=0;points=[];" parent="23scjZwYSQDnCTFHyhv0-58" vertex="1" connectable="0">
          <mxGeometry x="-0.152" y="-2" relative="1" as="geometry">
            <mxPoint y="-1" as="offset" />
          </mxGeometry>
        </mxCell>
        <mxCell id="23scjZwYSQDnCTFHyhv0-60" value="" style="endArrow=classic;startArrow=classic;html=1;rounded=0;entryX=0.5;entryY=1;entryDx=0;entryDy=0;exitX=0.585;exitY=0.05;exitDx=0;exitDy=0;exitPerimeter=0;" parent="23scjZwYSQDnCTFHyhv0-1" source="23scjZwYSQDnCTFHyhv0-7" target="23scjZwYSQDnCTFHyhv0-61" edge="1">
          <mxGeometry width="50" height="50" relative="1" as="geometry">
            <mxPoint x="442" y="741" as="sourcePoint" />
            <mxPoint x="410" y="600" as="targetPoint" />
          </mxGeometry>
        </mxCell>
        <mxCell id="23scjZwYSQDnCTFHyhv0-61" value="Lookup&lt;br&gt;Service" style="rounded=1;whiteSpace=wrap;html=1;" parent="23scjZwYSQDnCTFHyhv0-1" vertex="1">
          <mxGeometry x="342.5" y="680" width="120" height="40" as="geometry" />
        </mxCell>
        <mxCell id="23scjZwYSQDnCTFHyhv0-62" value="CRUD &lt;br&gt;Service" style="rounded=1;whiteSpace=wrap;html=1;" parent="23scjZwYSQDnCTFHyhv0-1" vertex="1">
          <mxGeometry x="490" y="680" width="120" height="40" as="geometry" />
        </mxCell>
        <mxCell id="23scjZwYSQDnCTFHyhv0-63" value="Specialized Views&lt;br&gt;Service" style="rounded=1;whiteSpace=wrap;html=1;" parent="23scjZwYSQDnCTFHyhv0-1" vertex="1">
          <mxGeometry x="650" y="680" width="120" height="40" as="geometry" />
        </mxCell>
        <mxCell id="23scjZwYSQDnCTFHyhv0-64" value="" style="endArrow=classic;startArrow=classic;html=1;rounded=0;entryX=0.5;entryY=1;entryDx=0;entryDy=0;exitX=0.5;exitY=0;exitDx=0;exitDy=0;" parent="23scjZwYSQDnCTFHyhv0-1" source="23scjZwYSQDnCTFHyhv0-62" target="23scjZwYSQDnCTFHyhv0-12" edge="1">
          <mxGeometry width="50" height="50" relative="1" as="geometry">
            <mxPoint x="400" y="660" as="sourcePoint" />
            <mxPoint x="450" y="610" as="targetPoint" />
          </mxGeometry>
        </mxCell>
        <mxCell id="23scjZwYSQDnCTFHyhv0-65" value="" style="endArrow=classic;startArrow=classic;html=1;rounded=0;entryX=0.5;entryY=1;entryDx=0;entryDy=0;" parent="23scjZwYSQDnCTFHyhv0-1" source="23scjZwYSQDnCTFHyhv0-63" target="23scjZwYSQDnCTFHyhv0-13" edge="1">
          <mxGeometry width="50" height="50" relative="1" as="geometry">
            <mxPoint x="400" y="660" as="sourcePoint" />
            <mxPoint x="450" y="610" as="targetPoint" />
          </mxGeometry>
        </mxCell>
        <mxCell id="PtcyjIXH7M_6OWkD23D3-0" value="Tracks&lt;br&gt;Repo" style="rounded=1;whiteSpace=wrap;html=1;" parent="23scjZwYSQDnCTFHyhv0-1" vertex="1">
          <mxGeometry x="392" y="760" width="60" height="40" as="geometry" />
        </mxCell>
        <mxCell id="PtcyjIXH7M_6OWkD23D3-1" value="Albums&lt;br&gt;Repo" style="rounded=1;whiteSpace=wrap;html=1;" parent="23scjZwYSQDnCTFHyhv0-1" vertex="1">
          <mxGeometry x="459.5" y="760" width="60" height="40" as="geometry" />
        </mxCell>
        <mxCell id="PtcyjIXH7M_6OWkD23D3-2" value="Artists&lt;br&gt;Repo" style="rounded=1;whiteSpace=wrap;html=1;" parent="23scjZwYSQDnCTFHyhv0-1" vertex="1">
          <mxGeometry x="530" y="760" width="62.5" height="40" as="geometry" />
        </mxCell>
        <mxCell id="PtcyjIXH7M_6OWkD23D3-3" value="AlbumTracks&lt;br&gt;Repo" style="rounded=1;whiteSpace=wrap;html=1;" parent="23scjZwYSQDnCTFHyhv0-1" vertex="1">
          <mxGeometry x="610" y="760" width="82.5" height="40" as="geometry" />
        </mxCell>
        <mxCell id="PtcyjIXH7M_6OWkD23D3-4" value="ArtistAlbums&lt;br&gt;Repo" style="rounded=1;whiteSpace=wrap;html=1;" parent="23scjZwYSQDnCTFHyhv0-1" vertex="1">
          <mxGeometry x="697.5" y="760" width="82.5" height="40" as="geometry" />
        </mxCell>
        <mxCell id="PtcyjIXH7M_6OWkD23D3-5" value="" style="endArrow=classic;startArrow=classic;html=1;rounded=0;exitX=0.5;exitY=0;exitDx=0;exitDy=0;entryX=0.5;entryY=1;entryDx=0;entryDy=0;" parent="23scjZwYSQDnCTFHyhv0-1" source="PtcyjIXH7M_6OWkD23D3-1" target="23scjZwYSQDnCTFHyhv0-61" edge="1">
          <mxGeometry width="50" height="50" relative="1" as="geometry">
            <mxPoint x="400" y="650" as="sourcePoint" />
            <mxPoint x="450" y="600" as="targetPoint" />
          </mxGeometry>
        </mxCell>
        <mxCell id="PtcyjIXH7M_6OWkD23D3-6" value="" style="endArrow=classic;startArrow=classic;html=1;rounded=0;exitX=0.5;exitY=0;exitDx=0;exitDy=0;entryX=0.317;entryY=0.95;entryDx=0;entryDy=0;entryPerimeter=0;" parent="23scjZwYSQDnCTFHyhv0-1" source="PtcyjIXH7M_6OWkD23D3-0" target="23scjZwYSQDnCTFHyhv0-62" edge="1">
          <mxGeometry width="50" height="50" relative="1" as="geometry">
            <mxPoint x="400" y="650" as="sourcePoint" />
            <mxPoint x="450" y="600" as="targetPoint" />
          </mxGeometry>
        </mxCell>
        <mxCell id="PtcyjIXH7M_6OWkD23D3-7" value="" style="endArrow=classic;startArrow=classic;html=1;rounded=0;exitX=0.5;exitY=0;exitDx=0;exitDy=0;entryX=0.5;entryY=1;entryDx=0;entryDy=0;" parent="23scjZwYSQDnCTFHyhv0-1" source="PtcyjIXH7M_6OWkD23D3-1" target="23scjZwYSQDnCTFHyhv0-62" edge="1">
          <mxGeometry width="50" height="50" relative="1" as="geometry">
            <mxPoint x="400" y="650" as="sourcePoint" />
            <mxPoint x="450" y="600" as="targetPoint" />
          </mxGeometry>
        </mxCell>
        <mxCell id="PtcyjIXH7M_6OWkD23D3-8" value="" style="endArrow=classic;startArrow=classic;html=1;rounded=0;exitX=0.5;exitY=0;exitDx=0;exitDy=0;entryX=0.675;entryY=1;entryDx=0;entryDy=0;entryPerimeter=0;" parent="23scjZwYSQDnCTFHyhv0-1" source="PtcyjIXH7M_6OWkD23D3-2" target="23scjZwYSQDnCTFHyhv0-62" edge="1">
          <mxGeometry width="50" height="50" relative="1" as="geometry">
            <mxPoint x="400" y="650" as="sourcePoint" />
            <mxPoint x="450" y="600" as="targetPoint" />
          </mxGeometry>
        </mxCell>
        <mxCell id="PtcyjIXH7M_6OWkD23D3-9" value="" style="endArrow=classic;startArrow=classic;html=1;rounded=0;entryX=0.342;entryY=0.975;entryDx=0;entryDy=0;entryPerimeter=0;" parent="23scjZwYSQDnCTFHyhv0-1" source="PtcyjIXH7M_6OWkD23D3-3" target="23scjZwYSQDnCTFHyhv0-63" edge="1">
          <mxGeometry width="50" height="50" relative="1" as="geometry">
            <mxPoint x="400" y="650" as="sourcePoint" />
            <mxPoint x="450" y="600" as="targetPoint" />
          </mxGeometry>
        </mxCell>
        <mxCell id="PtcyjIXH7M_6OWkD23D3-10" value="" style="endArrow=classic;startArrow=classic;html=1;rounded=0;exitX=0.5;exitY=0;exitDx=0;exitDy=0;entryX=0.583;entryY=0.95;entryDx=0;entryDy=0;entryPerimeter=0;" parent="23scjZwYSQDnCTFHyhv0-1" source="PtcyjIXH7M_6OWkD23D3-4" target="23scjZwYSQDnCTFHyhv0-63" edge="1">
          <mxGeometry width="50" height="50" relative="1" as="geometry">
            <mxPoint x="400" y="650" as="sourcePoint" />
            <mxPoint x="450" y="600" as="targetPoint" />
          </mxGeometry>
        </mxCell>
        <mxCell id="PtcyjIXH7M_6OWkD23D3-11" value="" style="endArrow=classic;startArrow=classic;html=1;rounded=0;exitX=0.072;exitY=0.05;exitDx=0;exitDy=0;exitPerimeter=0;" parent="23scjZwYSQDnCTFHyhv0-1" source="23scjZwYSQDnCTFHyhv0-4" target="23scjZwYSQDnCTFHyhv0-7" edge="1">
          <mxGeometry width="50" height="50" relative="1" as="geometry">
            <mxPoint x="400" y="650" as="sourcePoint" />
            <mxPoint x="450" y="600" as="targetPoint" />
          </mxGeometry>
        </mxCell>
        <mxCell id="PtcyjIXH7M_6OWkD23D3-12" value="" style="endArrow=classic;startArrow=classic;html=1;rounded=0;exitX=0.222;exitY=0.025;exitDx=0;exitDy=0;exitPerimeter=0;entryX=0.5;entryY=1;entryDx=0;entryDy=0;" parent="23scjZwYSQDnCTFHyhv0-1" source="23scjZwYSQDnCTFHyhv0-4" target="PtcyjIXH7M_6OWkD23D3-0" edge="1">
          <mxGeometry width="50" height="50" relative="1" as="geometry">
            <mxPoint x="363" y="862" as="sourcePoint" />
            <mxPoint x="363" y="810" as="targetPoint" />
          </mxGeometry>
        </mxCell>
        <mxCell id="PtcyjIXH7M_6OWkD23D3-13" value="" style="endArrow=classic;startArrow=classic;html=1;rounded=0;exitX=0.37;exitY=0.025;exitDx=0;exitDy=0;exitPerimeter=0;entryX=0.5;entryY=1;entryDx=0;entryDy=0;" parent="23scjZwYSQDnCTFHyhv0-1" source="23scjZwYSQDnCTFHyhv0-4" target="PtcyjIXH7M_6OWkD23D3-1" edge="1">
          <mxGeometry width="50" height="50" relative="1" as="geometry">
            <mxPoint x="373" y="872" as="sourcePoint" />
            <mxPoint x="373" y="820" as="targetPoint" />
          </mxGeometry>
        </mxCell>
        <mxCell id="PtcyjIXH7M_6OWkD23D3-14" value="" style="endArrow=classic;startArrow=classic;html=1;rounded=0;entryX=0.5;entryY=1;entryDx=0;entryDy=0;" parent="23scjZwYSQDnCTFHyhv0-1" target="PtcyjIXH7M_6OWkD23D3-2" edge="1">
          <mxGeometry width="50" height="50" relative="1" as="geometry">
            <mxPoint x="561" y="850" as="sourcePoint" />
            <mxPoint x="383" y="830" as="targetPoint" />
          </mxGeometry>
        </mxCell>
        <mxCell id="PtcyjIXH7M_6OWkD23D3-15" value="" style="endArrow=classic;startArrow=classic;html=1;rounded=0;exitX=0.72;exitY=0;exitDx=0;exitDy=0;exitPerimeter=0;entryX=0.5;entryY=1;entryDx=0;entryDy=0;" parent="23scjZwYSQDnCTFHyhv0-1" source="23scjZwYSQDnCTFHyhv0-4" target="PtcyjIXH7M_6OWkD23D3-3" edge="1">
          <mxGeometry width="50" height="50" relative="1" as="geometry">
            <mxPoint x="393" y="892" as="sourcePoint" />
            <mxPoint x="393" y="840" as="targetPoint" />
          </mxGeometry>
        </mxCell>
        <mxCell id="PtcyjIXH7M_6OWkD23D3-16" value="" style="endArrow=classic;startArrow=classic;html=1;rounded=0;exitX=0.913;exitY=0.025;exitDx=0;exitDy=0;exitPerimeter=0;entryX=0.5;entryY=1;entryDx=0;entryDy=0;" parent="23scjZwYSQDnCTFHyhv0-1" source="23scjZwYSQDnCTFHyhv0-4" target="PtcyjIXH7M_6OWkD23D3-4" edge="1">
          <mxGeometry width="50" height="50" relative="1" as="geometry">
            <mxPoint x="403" y="902" as="sourcePoint" />
            <mxPoint x="403" y="850" as="targetPoint" />
          </mxGeometry>
        </mxCell>
      </root>
    </mxGraphModel>
  </diagram>
  <diagram name="Verticle Slicing - Part 1" id="W0dN_8SstY1AURpkWWHa">
    <mxGraphModel dx="1211" dy="820" grid="1" gridSize="10" guides="1" tooltips="1" connect="1" arrows="1" fold="1" page="1" pageScale="1" pageWidth="850" pageHeight="1100" math="0" shadow="0">
      <root>
        <mxCell id="15KhPmG5_vcWzqK-4jpr-0" />
        <mxCell id="15KhPmG5_vcWzqK-4jpr-1" parent="15KhPmG5_vcWzqK-4jpr-0" />
        <mxCell id="15KhPmG5_vcWzqK-4jpr-2" value="" style="rounded=0;whiteSpace=wrap;html=1;fillColor=#fff2cc;strokeColor=#d6b656;" parent="15KhPmG5_vcWzqK-4jpr-1" vertex="1">
          <mxGeometry x="310" y="420" width="480" height="220" as="geometry" />
        </mxCell>
        <mxCell id="15KhPmG5_vcWzqK-4jpr-3" value="" style="rounded=0;whiteSpace=wrap;html=1;fillColor=#d5e8d4;strokeColor=#82b366;" parent="15KhPmG5_vcWzqK-4jpr-1" vertex="1">
          <mxGeometry x="310" y="670" width="480" height="260" as="geometry" />
        </mxCell>
        <mxCell id="15KhPmG5_vcWzqK-4jpr-4" value="&lt;font style=&quot;font-size: 18px;&quot;&gt;DBContext&lt;/font&gt;" style="rounded=1;whiteSpace=wrap;html=1;" parent="15KhPmG5_vcWzqK-4jpr-1" vertex="1">
          <mxGeometry x="320" y="850" width="460" height="40" as="geometry" />
        </mxCell>
        <mxCell id="15KhPmG5_vcWzqK-4jpr-5" value="" style="shape=cylinder3;whiteSpace=wrap;html=1;boundedLbl=1;backgroundOutline=1;size=15;" parent="15KhPmG5_vcWzqK-4jpr-1" vertex="1">
          <mxGeometry x="520" y="940" width="60" height="80" as="geometry" />
        </mxCell>
        <mxCell id="15KhPmG5_vcWzqK-4jpr-6" value="" style="endArrow=classic;startArrow=classic;html=1;rounded=0;exitX=0.5;exitY=0;exitDx=0;exitDy=0;exitPerimeter=0;entryX=0.5;entryY=1;entryDx=0;entryDy=0;" parent="15KhPmG5_vcWzqK-4jpr-1" source="15KhPmG5_vcWzqK-4jpr-5" target="15KhPmG5_vcWzqK-4jpr-4" edge="1">
          <mxGeometry width="50" height="50" relative="1" as="geometry">
            <mxPoint x="520" y="860" as="sourcePoint" />
            <mxPoint x="570" y="810" as="targetPoint" />
          </mxGeometry>
        </mxCell>
        <mxCell id="15KhPmG5_vcWzqK-4jpr-7" value="Genres&lt;br&gt;Repo" style="rounded=1;whiteSpace=wrap;html=1;" parent="15KhPmG5_vcWzqK-4jpr-1" vertex="1">
          <mxGeometry x="320" y="730" width="67" height="40" as="geometry" />
        </mxCell>
        <mxCell id="15KhPmG5_vcWzqK-4jpr-8" value="" style="shape=flexArrow;endArrow=classic;html=1;rounded=0;entryX=0;entryY=0.538;entryDx=0;entryDy=0;entryPerimeter=0;endWidth=37;endSize=9.33;fillColor=#f5f5f5;strokeColor=#666666;" parent="15KhPmG5_vcWzqK-4jpr-1" edge="1">
          <mxGeometry width="50" height="50" relative="1" as="geometry">
            <mxPoint x="80" y="779.62" as="sourcePoint" />
            <mxPoint x="310" y="779.5000000000001" as="targetPoint" />
          </mxGeometry>
        </mxCell>
        <mxCell id="15KhPmG5_vcWzqK-4jpr-9" value="&lt;font style=&quot;font-size: 14px;&quot;&gt;Infrastructure Layer&lt;/font&gt;" style="edgeLabel;html=1;align=center;verticalAlign=middle;resizable=0;points=[];" parent="15KhPmG5_vcWzqK-4jpr-8" vertex="1" connectable="0">
          <mxGeometry x="-0.313" relative="1" as="geometry">
            <mxPoint x="21" y="-20" as="offset" />
          </mxGeometry>
        </mxCell>
        <mxCell id="15KhPmG5_vcWzqK-4jpr-14" value="" style="shape=flexArrow;endArrow=classic;html=1;rounded=0;entryX=0;entryY=0.538;entryDx=0;entryDy=0;entryPerimeter=0;endWidth=37;endSize=9.33;fillColor=#f5f5f5;strokeColor=#666666;" parent="15KhPmG5_vcWzqK-4jpr-1" edge="1">
          <mxGeometry width="50" height="50" relative="1" as="geometry">
            <mxPoint x="80" y="529.62" as="sourcePoint" />
            <mxPoint x="310" y="529.5000000000001" as="targetPoint" />
          </mxGeometry>
        </mxCell>
        <mxCell id="15KhPmG5_vcWzqK-4jpr-15" value="&lt;span style=&quot;font-size: 14px;&quot;&gt;Business/Domain/Core Layer&lt;/span&gt;" style="edgeLabel;html=1;align=center;verticalAlign=middle;resizable=0;points=[];" parent="15KhPmG5_vcWzqK-4jpr-14" vertex="1" connectable="0">
          <mxGeometry x="-0.313" relative="1" as="geometry">
            <mxPoint x="21" y="-20" as="offset" />
          </mxGeometry>
        </mxCell>
        <mxCell id="15KhPmG5_vcWzqK-4jpr-16" value="" style="rounded=0;whiteSpace=wrap;html=1;fillColor=#dae8fc;strokeColor=#6c8ebf;" parent="15KhPmG5_vcWzqK-4jpr-1" vertex="1">
          <mxGeometry x="310" y="240" width="480" height="100" as="geometry" />
        </mxCell>
        <mxCell id="15KhPmG5_vcWzqK-4jpr-17" value="REST API" style="rounded=1;whiteSpace=wrap;html=1;" parent="15KhPmG5_vcWzqK-4jpr-1" vertex="1">
          <mxGeometry x="330" y="260" width="120" height="60" as="geometry" />
        </mxCell>
        <mxCell id="15KhPmG5_vcWzqK-4jpr-18" value="User Interface" style="rounded=1;whiteSpace=wrap;html=1;" parent="15KhPmG5_vcWzqK-4jpr-1" vertex="1">
          <mxGeometry x="490" y="260" width="120" height="60" as="geometry" />
        </mxCell>
        <mxCell id="15KhPmG5_vcWzqK-4jpr-19" value="Unattended Process" style="rounded=1;whiteSpace=wrap;html=1;" parent="15KhPmG5_vcWzqK-4jpr-1" vertex="1">
          <mxGeometry x="650" y="260" width="120" height="60" as="geometry" />
        </mxCell>
        <mxCell id="15KhPmG5_vcWzqK-4jpr-20" value="" style="shape=flexArrow;endArrow=classic;html=1;rounded=0;entryX=0;entryY=0.538;entryDx=0;entryDy=0;entryPerimeter=0;endWidth=37;endSize=9.33;fillColor=#f5f5f5;strokeColor=#666666;" parent="15KhPmG5_vcWzqK-4jpr-1" edge="1">
          <mxGeometry width="50" height="50" relative="1" as="geometry">
            <mxPoint x="80" y="290.03999999999996" as="sourcePoint" />
            <mxPoint x="310" y="289.9200000000001" as="targetPoint" />
          </mxGeometry>
        </mxCell>
        <mxCell id="15KhPmG5_vcWzqK-4jpr-21" value="&lt;span style=&quot;font-size: 14px;&quot;&gt;Application Purpose&lt;/span&gt;" style="edgeLabel;html=1;align=center;verticalAlign=middle;resizable=0;points=[];" parent="15KhPmG5_vcWzqK-4jpr-20" vertex="1" connectable="0">
          <mxGeometry x="-0.313" relative="1" as="geometry">
            <mxPoint x="21" y="-20" as="offset" />
          </mxGeometry>
        </mxCell>
        <mxCell id="15KhPmG5_vcWzqK-4jpr-22" value="&lt;span style=&quot;font-size: 36px;&quot;&gt;Refactor so that code in &quot;Facade/Services&quot; are in the Individual Repositories&lt;br&gt;&lt;/span&gt;" style="text;strokeColor=none;align=center;fillColor=none;html=1;verticalAlign=middle;whiteSpace=wrap;rounded=0;" parent="15KhPmG5_vcWzqK-4jpr-1" vertex="1">
          <mxGeometry x="90" y="50" width="710" height="150" as="geometry" />
        </mxCell>
        <mxCell id="15KhPmG5_vcWzqK-4jpr-23" value="Handler" style="rounded=1;whiteSpace=wrap;html=1;" parent="15KhPmG5_vcWzqK-4jpr-1" vertex="1">
          <mxGeometry x="412.5" y="460" width="60" height="30" as="geometry" />
        </mxCell>
        <mxCell id="15KhPmG5_vcWzqK-4jpr-24" value="Handler" style="rounded=1;whiteSpace=wrap;html=1;" parent="15KhPmG5_vcWzqK-4jpr-1" vertex="1">
          <mxGeometry x="342.5" y="460" width="60" height="30" as="geometry" />
        </mxCell>
        <mxCell id="15KhPmG5_vcWzqK-4jpr-25" value="Handler" style="rounded=1;whiteSpace=wrap;html=1;" parent="15KhPmG5_vcWzqK-4jpr-1" vertex="1">
          <mxGeometry x="482.5" y="460" width="60" height="30" as="geometry" />
        </mxCell>
        <mxCell id="15KhPmG5_vcWzqK-4jpr-26" value="Handler" style="rounded=1;whiteSpace=wrap;html=1;" parent="15KhPmG5_vcWzqK-4jpr-1" vertex="1">
          <mxGeometry x="557.5" y="460" width="60" height="30" as="geometry" />
        </mxCell>
        <mxCell id="15KhPmG5_vcWzqK-4jpr-27" value="Handler" style="rounded=1;whiteSpace=wrap;html=1;" parent="15KhPmG5_vcWzqK-4jpr-1" vertex="1">
          <mxGeometry x="627.5" y="460" width="60" height="30" as="geometry" />
        </mxCell>
        <mxCell id="15KhPmG5_vcWzqK-4jpr-28" value="Handler" style="rounded=1;whiteSpace=wrap;html=1;" parent="15KhPmG5_vcWzqK-4jpr-1" vertex="1">
          <mxGeometry x="697.5" y="460" width="60" height="30" as="geometry" />
        </mxCell>
        <mxCell id="15KhPmG5_vcWzqK-4jpr-29" value="" style="endArrow=classic;startArrow=classic;html=1;rounded=0;exitX=0.5;exitY=0;exitDx=0;exitDy=0;entryX=0.5;entryY=1;entryDx=0;entryDy=0;" parent="15KhPmG5_vcWzqK-4jpr-1" source="ZlH0fL1B-FTutQNMoYRV-0" target="15KhPmG5_vcWzqK-4jpr-24" edge="1">
          <mxGeometry width="50" height="50" relative="1" as="geometry">
            <mxPoint x="400" y="450" as="sourcePoint" />
            <mxPoint x="450" y="400" as="targetPoint" />
          </mxGeometry>
        </mxCell>
        <mxCell id="15KhPmG5_vcWzqK-4jpr-30" value="" style="endArrow=classic;startArrow=classic;html=1;rounded=0;entryX=0.5;entryY=1;entryDx=0;entryDy=0;exitX=0.75;exitY=0;exitDx=0;exitDy=0;" parent="15KhPmG5_vcWzqK-4jpr-1" source="ZlH0fL1B-FTutQNMoYRV-0" target="15KhPmG5_vcWzqK-4jpr-23" edge="1">
          <mxGeometry width="50" height="50" relative="1" as="geometry">
            <mxPoint x="400" y="450" as="sourcePoint" />
            <mxPoint x="450" y="400" as="targetPoint" />
          </mxGeometry>
        </mxCell>
        <mxCell id="15KhPmG5_vcWzqK-4jpr-31" value="" style="endArrow=classic;startArrow=classic;html=1;rounded=0;exitX=0.633;exitY=0;exitDx=0;exitDy=0;exitPerimeter=0;entryX=0.5;entryY=1;entryDx=0;entryDy=0;" parent="15KhPmG5_vcWzqK-4jpr-1" source="ZlH0fL1B-FTutQNMoYRV-1" target="15KhPmG5_vcWzqK-4jpr-23" edge="1">
          <mxGeometry width="50" height="50" relative="1" as="geometry">
            <mxPoint x="400" y="450" as="sourcePoint" />
            <mxPoint x="450" y="400" as="targetPoint" />
          </mxGeometry>
        </mxCell>
        <mxCell id="15KhPmG5_vcWzqK-4jpr-32" value="" style="endArrow=classic;startArrow=classic;html=1;rounded=0;entryX=0.5;entryY=1;entryDx=0;entryDy=0;exitX=0.5;exitY=0;exitDx=0;exitDy=0;" parent="15KhPmG5_vcWzqK-4jpr-1" source="ZlH0fL1B-FTutQNMoYRV-2" target="15KhPmG5_vcWzqK-4jpr-25" edge="1">
          <mxGeometry width="50" height="50" relative="1" as="geometry">
            <mxPoint x="400" y="450" as="sourcePoint" />
            <mxPoint x="450" y="400" as="targetPoint" />
          </mxGeometry>
        </mxCell>
        <mxCell id="15KhPmG5_vcWzqK-4jpr-33" value="" style="endArrow=classic;startArrow=classic;html=1;rounded=0;exitX=0.25;exitY=0;exitDx=0;exitDy=0;entryX=0.5;entryY=1;entryDx=0;entryDy=0;" parent="15KhPmG5_vcWzqK-4jpr-1" source="ZlH0fL1B-FTutQNMoYRV-3" target="15KhPmG5_vcWzqK-4jpr-25" edge="1">
          <mxGeometry width="50" height="50" relative="1" as="geometry">
            <mxPoint x="400" y="450" as="sourcePoint" />
            <mxPoint x="450" y="400" as="targetPoint" />
          </mxGeometry>
        </mxCell>
        <mxCell id="15KhPmG5_vcWzqK-4jpr-34" value="" style="endArrow=classic;startArrow=classic;html=1;rounded=0;exitX=0.75;exitY=0;exitDx=0;exitDy=0;entryX=0.5;entryY=1;entryDx=0;entryDy=0;" parent="15KhPmG5_vcWzqK-4jpr-1" source="ZlH0fL1B-FTutQNMoYRV-3" target="15KhPmG5_vcWzqK-4jpr-26" edge="1">
          <mxGeometry width="50" height="50" relative="1" as="geometry">
            <mxPoint x="400" y="450" as="sourcePoint" />
            <mxPoint x="450" y="400" as="targetPoint" />
          </mxGeometry>
        </mxCell>
        <mxCell id="15KhPmG5_vcWzqK-4jpr-35" value="" style="endArrow=classic;startArrow=classic;html=1;rounded=0;exitX=0.5;exitY=0;exitDx=0;exitDy=0;" parent="15KhPmG5_vcWzqK-4jpr-1" source="ZlH0fL1B-FTutQNMoYRV-4" target="15KhPmG5_vcWzqK-4jpr-27" edge="1">
          <mxGeometry width="50" height="50" relative="1" as="geometry">
            <mxPoint x="400" y="450" as="sourcePoint" />
            <mxPoint x="450" y="400" as="targetPoint" />
          </mxGeometry>
        </mxCell>
        <mxCell id="15KhPmG5_vcWzqK-4jpr-36" value="" style="endArrow=classic;startArrow=classic;html=1;rounded=0;exitX=0.5;exitY=0;exitDx=0;exitDy=0;" parent="15KhPmG5_vcWzqK-4jpr-1" source="ZlH0fL1B-FTutQNMoYRV-5" target="15KhPmG5_vcWzqK-4jpr-28" edge="1">
          <mxGeometry width="50" height="50" relative="1" as="geometry">
            <mxPoint x="400" y="450" as="sourcePoint" />
            <mxPoint x="450" y="400" as="targetPoint" />
          </mxGeometry>
        </mxCell>
        <mxCell id="15KhPmG5_vcWzqK-4jpr-37" value="" style="endArrow=classic;html=1;rounded=0;exitX=0.25;exitY=1;exitDx=0;exitDy=0;entryX=0.25;entryY=0;entryDx=0;entryDy=0;" parent="15KhPmG5_vcWzqK-4jpr-1" source="15KhPmG5_vcWzqK-4jpr-17" target="15KhPmG5_vcWzqK-4jpr-24" edge="1">
          <mxGeometry width="50" height="50" relative="1" as="geometry">
            <mxPoint x="400" y="450" as="sourcePoint" />
            <mxPoint x="450" y="400" as="targetPoint" />
          </mxGeometry>
        </mxCell>
        <mxCell id="15KhPmG5_vcWzqK-4jpr-38" value="Request" style="edgeLabel;html=1;align=center;verticalAlign=middle;resizable=0;points=[];" parent="15KhPmG5_vcWzqK-4jpr-37" vertex="1" connectable="0">
          <mxGeometry x="-0.2434" y="2" relative="1" as="geometry">
            <mxPoint y="-13" as="offset" />
          </mxGeometry>
        </mxCell>
        <mxCell id="15KhPmG5_vcWzqK-4jpr-39" value="" style="endArrow=classic;html=1;rounded=0;exitX=0.75;exitY=0;exitDx=0;exitDy=0;entryX=0.5;entryY=1;entryDx=0;entryDy=0;" parent="15KhPmG5_vcWzqK-4jpr-1" source="15KhPmG5_vcWzqK-4jpr-24" target="15KhPmG5_vcWzqK-4jpr-17" edge="1">
          <mxGeometry width="50" height="50" relative="1" as="geometry">
            <mxPoint x="400" y="450" as="sourcePoint" />
            <mxPoint x="450" y="400" as="targetPoint" />
          </mxGeometry>
        </mxCell>
        <mxCell id="15KhPmG5_vcWzqK-4jpr-40" value="Response" style="edgeLabel;html=1;align=center;verticalAlign=middle;resizable=0;points=[];" parent="15KhPmG5_vcWzqK-4jpr-39" vertex="1" connectable="0">
          <mxGeometry x="0.1439" y="-4" relative="1" as="geometry">
            <mxPoint x="-3" y="10" as="offset" />
          </mxGeometry>
        </mxCell>
        <mxCell id="15KhPmG5_vcWzqK-4jpr-41" value="" style="endArrow=classic;html=1;rounded=0;exitX=0;exitY=0.75;exitDx=0;exitDy=0;entryX=0.25;entryY=0;entryDx=0;entryDy=0;" parent="15KhPmG5_vcWzqK-4jpr-1" source="15KhPmG5_vcWzqK-4jpr-18" target="15KhPmG5_vcWzqK-4jpr-23" edge="1">
          <mxGeometry width="50" height="50" relative="1" as="geometry">
            <mxPoint x="400" y="450" as="sourcePoint" />
            <mxPoint x="450" y="400" as="targetPoint" />
          </mxGeometry>
        </mxCell>
        <mxCell id="15KhPmG5_vcWzqK-4jpr-42" value="Request" style="edgeLabel;html=1;align=center;verticalAlign=middle;resizable=0;points=[];" parent="15KhPmG5_vcWzqK-4jpr-41" vertex="1" connectable="0">
          <mxGeometry x="-0.3272" y="2" relative="1" as="geometry">
            <mxPoint x="-1" y="2" as="offset" />
          </mxGeometry>
        </mxCell>
        <mxCell id="15KhPmG5_vcWzqK-4jpr-43" value="" style="endArrow=classic;html=1;rounded=0;exitX=0.75;exitY=0;exitDx=0;exitDy=0;entryX=0.167;entryY=0.967;entryDx=0;entryDy=0;entryPerimeter=0;" parent="15KhPmG5_vcWzqK-4jpr-1" source="15KhPmG5_vcWzqK-4jpr-23" target="15KhPmG5_vcWzqK-4jpr-18" edge="1">
          <mxGeometry width="50" height="50" relative="1" as="geometry">
            <mxPoint x="400" y="450" as="sourcePoint" />
            <mxPoint x="450" y="400" as="targetPoint" />
          </mxGeometry>
        </mxCell>
        <mxCell id="15KhPmG5_vcWzqK-4jpr-44" value="Response" style="edgeLabel;html=1;align=center;verticalAlign=middle;resizable=0;points=[];" parent="15KhPmG5_vcWzqK-4jpr-43" vertex="1" connectable="0">
          <mxGeometry x="0.2218" y="-1" relative="1" as="geometry">
            <mxPoint y="15" as="offset" />
          </mxGeometry>
        </mxCell>
        <mxCell id="15KhPmG5_vcWzqK-4jpr-45" value="" style="endArrow=classic;html=1;rounded=0;exitX=0.5;exitY=1;exitDx=0;exitDy=0;entryX=0.25;entryY=0;entryDx=0;entryDy=0;" parent="15KhPmG5_vcWzqK-4jpr-1" source="15KhPmG5_vcWzqK-4jpr-18" target="15KhPmG5_vcWzqK-4jpr-25" edge="1">
          <mxGeometry width="50" height="50" relative="1" as="geometry">
            <mxPoint x="400" y="450" as="sourcePoint" />
            <mxPoint x="450" y="400" as="targetPoint" />
          </mxGeometry>
        </mxCell>
        <mxCell id="15KhPmG5_vcWzqK-4jpr-46" value="Request" style="edgeLabel;html=1;align=center;verticalAlign=middle;resizable=0;points=[];" parent="15KhPmG5_vcWzqK-4jpr-45" vertex="1" connectable="0">
          <mxGeometry x="-0.4239" y="-1" relative="1" as="geometry">
            <mxPoint as="offset" />
          </mxGeometry>
        </mxCell>
        <mxCell id="15KhPmG5_vcWzqK-4jpr-47" value="" style="endArrow=classic;html=1;rounded=0;exitX=0.75;exitY=0;exitDx=0;exitDy=0;entryX=0.75;entryY=1;entryDx=0;entryDy=0;" parent="15KhPmG5_vcWzqK-4jpr-1" source="15KhPmG5_vcWzqK-4jpr-25" target="15KhPmG5_vcWzqK-4jpr-18" edge="1">
          <mxGeometry width="50" height="50" relative="1" as="geometry">
            <mxPoint x="400" y="450" as="sourcePoint" />
            <mxPoint x="450" y="400" as="targetPoint" />
          </mxGeometry>
        </mxCell>
        <mxCell id="15KhPmG5_vcWzqK-4jpr-48" value="Response" style="edgeLabel;html=1;align=center;verticalAlign=middle;resizable=0;points=[];" parent="15KhPmG5_vcWzqK-4jpr-47" vertex="1" connectable="0">
          <mxGeometry x="-0.171" y="-3" relative="1" as="geometry">
            <mxPoint x="5" y="-13" as="offset" />
          </mxGeometry>
        </mxCell>
        <mxCell id="15KhPmG5_vcWzqK-4jpr-49" value="" style="endArrow=classic;html=1;rounded=0;entryX=0.25;entryY=0;entryDx=0;entryDy=0;exitX=0.25;exitY=1;exitDx=0;exitDy=0;" parent="15KhPmG5_vcWzqK-4jpr-1" source="15KhPmG5_vcWzqK-4jpr-19" target="15KhPmG5_vcWzqK-4jpr-27" edge="1">
          <mxGeometry width="50" height="50" relative="1" as="geometry">
            <mxPoint x="400" y="450" as="sourcePoint" />
            <mxPoint x="450" y="400" as="targetPoint" />
          </mxGeometry>
        </mxCell>
        <mxCell id="15KhPmG5_vcWzqK-4jpr-50" value="Request" style="edgeLabel;html=1;align=center;verticalAlign=middle;resizable=0;points=[];" parent="15KhPmG5_vcWzqK-4jpr-49" vertex="1" connectable="0">
          <mxGeometry x="-0.4614" y="1" relative="1" as="geometry">
            <mxPoint as="offset" />
          </mxGeometry>
        </mxCell>
        <mxCell id="15KhPmG5_vcWzqK-4jpr-51" value="" style="endArrow=classic;html=1;rounded=0;exitX=0.5;exitY=0;exitDx=0;exitDy=0;entryX=0.5;entryY=1;entryDx=0;entryDy=0;" parent="15KhPmG5_vcWzqK-4jpr-1" source="15KhPmG5_vcWzqK-4jpr-27" target="15KhPmG5_vcWzqK-4jpr-19" edge="1">
          <mxGeometry width="50" height="50" relative="1" as="geometry">
            <mxPoint x="400" y="450" as="sourcePoint" />
            <mxPoint x="450" y="400" as="targetPoint" />
          </mxGeometry>
        </mxCell>
        <mxCell id="15KhPmG5_vcWzqK-4jpr-52" value="Response" style="edgeLabel;html=1;align=center;verticalAlign=middle;resizable=0;points=[];" parent="15KhPmG5_vcWzqK-4jpr-51" vertex="1" connectable="0">
          <mxGeometry x="-0.1757" y="-2" relative="1" as="geometry">
            <mxPoint x="9" y="-13" as="offset" />
          </mxGeometry>
        </mxCell>
        <mxCell id="15KhPmG5_vcWzqK-4jpr-53" value="" style="endArrow=classic;html=1;rounded=0;exitX=0.75;exitY=1;exitDx=0;exitDy=0;entryX=0.25;entryY=0;entryDx=0;entryDy=0;" parent="15KhPmG5_vcWzqK-4jpr-1" source="15KhPmG5_vcWzqK-4jpr-19" target="15KhPmG5_vcWzqK-4jpr-28" edge="1">
          <mxGeometry width="50" height="50" relative="1" as="geometry">
            <mxPoint x="400" y="450" as="sourcePoint" />
            <mxPoint x="450" y="400" as="targetPoint" />
          </mxGeometry>
        </mxCell>
        <mxCell id="15KhPmG5_vcWzqK-4jpr-54" value="Request" style="edgeLabel;html=1;align=center;verticalAlign=middle;resizable=0;points=[];" parent="15KhPmG5_vcWzqK-4jpr-53" vertex="1" connectable="0">
          <mxGeometry x="-0.5024" y="1" relative="1" as="geometry">
            <mxPoint as="offset" />
          </mxGeometry>
        </mxCell>
        <mxCell id="15KhPmG5_vcWzqK-4jpr-55" value="" style="endArrow=classic;html=1;rounded=0;exitX=0.75;exitY=0;exitDx=0;exitDy=0;entryX=0.925;entryY=0.967;entryDx=0;entryDy=0;entryPerimeter=0;" parent="15KhPmG5_vcWzqK-4jpr-1" source="15KhPmG5_vcWzqK-4jpr-28" target="15KhPmG5_vcWzqK-4jpr-19" edge="1">
          <mxGeometry width="50" height="50" relative="1" as="geometry">
            <mxPoint x="400" y="450" as="sourcePoint" />
            <mxPoint x="450" y="400" as="targetPoint" />
          </mxGeometry>
        </mxCell>
        <mxCell id="15KhPmG5_vcWzqK-4jpr-56" value="Response" style="edgeLabel;html=1;align=center;verticalAlign=middle;resizable=0;points=[];" parent="15KhPmG5_vcWzqK-4jpr-55" vertex="1" connectable="0">
          <mxGeometry x="-0.152" y="-2" relative="1" as="geometry">
            <mxPoint y="-1" as="offset" />
          </mxGeometry>
        </mxCell>
        <mxCell id="15KhPmG5_vcWzqK-4jpr-57" value="" style="endArrow=classic;startArrow=classic;html=1;rounded=0;entryX=0.5;entryY=1;entryDx=0;entryDy=0;exitX=0.5;exitY=0;exitDx=0;exitDy=0;" parent="15KhPmG5_vcWzqK-4jpr-1" source="15KhPmG5_vcWzqK-4jpr-7" target="ZlH0fL1B-FTutQNMoYRV-0" edge="1">
          <mxGeometry width="50" height="50" relative="1" as="geometry">
            <mxPoint x="442" y="741" as="sourcePoint" />
            <mxPoint x="402.5" y="720" as="targetPoint" />
          </mxGeometry>
        </mxCell>
        <mxCell id="15KhPmG5_vcWzqK-4jpr-63" value="Tracks&lt;br&gt;Repo" style="rounded=1;whiteSpace=wrap;html=1;" parent="15KhPmG5_vcWzqK-4jpr-1" vertex="1">
          <mxGeometry x="392" y="730" width="60" height="40" as="geometry" />
        </mxCell>
        <mxCell id="15KhPmG5_vcWzqK-4jpr-64" value="Albums&lt;br&gt;Repo" style="rounded=1;whiteSpace=wrap;html=1;" parent="15KhPmG5_vcWzqK-4jpr-1" vertex="1">
          <mxGeometry x="459.5" y="730" width="60" height="40" as="geometry" />
        </mxCell>
        <mxCell id="15KhPmG5_vcWzqK-4jpr-65" value="Artists&lt;br&gt;Repo" style="rounded=1;whiteSpace=wrap;html=1;" parent="15KhPmG5_vcWzqK-4jpr-1" vertex="1">
          <mxGeometry x="530" y="730" width="62.5" height="40" as="geometry" />
        </mxCell>
        <mxCell id="15KhPmG5_vcWzqK-4jpr-66" value="AlbumTracks&lt;br&gt;Repo" style="rounded=1;whiteSpace=wrap;html=1;" parent="15KhPmG5_vcWzqK-4jpr-1" vertex="1">
          <mxGeometry x="610" y="730" width="82.5" height="40" as="geometry" />
        </mxCell>
        <mxCell id="15KhPmG5_vcWzqK-4jpr-67" value="ArtistAlbums&lt;br&gt;Repo" style="rounded=1;whiteSpace=wrap;html=1;" parent="15KhPmG5_vcWzqK-4jpr-1" vertex="1">
          <mxGeometry x="697.5" y="730" width="82.5" height="40" as="geometry" />
        </mxCell>
        <mxCell id="15KhPmG5_vcWzqK-4jpr-69" value="" style="endArrow=classic;startArrow=classic;html=1;rounded=0;exitX=0.5;exitY=0;exitDx=0;exitDy=0;entryX=0.5;entryY=1;entryDx=0;entryDy=0;" parent="15KhPmG5_vcWzqK-4jpr-1" source="15KhPmG5_vcWzqK-4jpr-63" target="ZlH0fL1B-FTutQNMoYRV-1" edge="1">
          <mxGeometry width="50" height="50" relative="1" as="geometry">
            <mxPoint x="400" y="650" as="sourcePoint" />
            <mxPoint x="528.04" y="718" as="targetPoint" />
          </mxGeometry>
        </mxCell>
        <mxCell id="15KhPmG5_vcWzqK-4jpr-70" value="" style="endArrow=classic;startArrow=classic;html=1;rounded=0;exitX=0.5;exitY=0;exitDx=0;exitDy=0;" parent="15KhPmG5_vcWzqK-4jpr-1" source="15KhPmG5_vcWzqK-4jpr-64" target="ZlH0fL1B-FTutQNMoYRV-2" edge="1">
          <mxGeometry width="50" height="50" relative="1" as="geometry">
            <mxPoint x="400" y="650" as="sourcePoint" />
            <mxPoint x="550" y="720" as="targetPoint" />
          </mxGeometry>
        </mxCell>
        <mxCell id="15KhPmG5_vcWzqK-4jpr-71" value="" style="endArrow=classic;startArrow=classic;html=1;rounded=0;exitX=0.5;exitY=0;exitDx=0;exitDy=0;entryX=0.5;entryY=1;entryDx=0;entryDy=0;" parent="15KhPmG5_vcWzqK-4jpr-1" source="15KhPmG5_vcWzqK-4jpr-65" target="ZlH0fL1B-FTutQNMoYRV-3" edge="1">
          <mxGeometry width="50" height="50" relative="1" as="geometry">
            <mxPoint x="400" y="650" as="sourcePoint" />
            <mxPoint x="571" y="720" as="targetPoint" />
          </mxGeometry>
        </mxCell>
        <mxCell id="15KhPmG5_vcWzqK-4jpr-72" value="" style="endArrow=classic;startArrow=classic;html=1;rounded=0;entryX=0.5;entryY=1;entryDx=0;entryDy=0;" parent="15KhPmG5_vcWzqK-4jpr-1" source="15KhPmG5_vcWzqK-4jpr-66" target="ZlH0fL1B-FTutQNMoYRV-4" edge="1">
          <mxGeometry width="50" height="50" relative="1" as="geometry">
            <mxPoint x="400" y="650" as="sourcePoint" />
            <mxPoint x="691.04" y="719" as="targetPoint" />
          </mxGeometry>
        </mxCell>
        <mxCell id="15KhPmG5_vcWzqK-4jpr-73" value="" style="endArrow=classic;startArrow=classic;html=1;rounded=0;exitX=0.5;exitY=0;exitDx=0;exitDy=0;entryX=0.5;entryY=1;entryDx=0;entryDy=0;" parent="15KhPmG5_vcWzqK-4jpr-1" source="15KhPmG5_vcWzqK-4jpr-67" target="ZlH0fL1B-FTutQNMoYRV-5" edge="1">
          <mxGeometry width="50" height="50" relative="1" as="geometry">
            <mxPoint x="400" y="650" as="sourcePoint" />
            <mxPoint x="719.96" y="718" as="targetPoint" />
          </mxGeometry>
        </mxCell>
        <mxCell id="15KhPmG5_vcWzqK-4jpr-74" value="" style="endArrow=classic;startArrow=classic;html=1;rounded=0;exitX=0.072;exitY=0.05;exitDx=0;exitDy=0;exitPerimeter=0;" parent="15KhPmG5_vcWzqK-4jpr-1" source="15KhPmG5_vcWzqK-4jpr-4" target="15KhPmG5_vcWzqK-4jpr-7" edge="1">
          <mxGeometry width="50" height="50" relative="1" as="geometry">
            <mxPoint x="400" y="650" as="sourcePoint" />
            <mxPoint x="450" y="600" as="targetPoint" />
          </mxGeometry>
        </mxCell>
        <mxCell id="15KhPmG5_vcWzqK-4jpr-75" value="" style="endArrow=classic;startArrow=classic;html=1;rounded=0;exitX=0.222;exitY=0.025;exitDx=0;exitDy=0;exitPerimeter=0;entryX=0.5;entryY=1;entryDx=0;entryDy=0;" parent="15KhPmG5_vcWzqK-4jpr-1" source="15KhPmG5_vcWzqK-4jpr-4" target="15KhPmG5_vcWzqK-4jpr-63" edge="1">
          <mxGeometry width="50" height="50" relative="1" as="geometry">
            <mxPoint x="363" y="862" as="sourcePoint" />
            <mxPoint x="363" y="810" as="targetPoint" />
          </mxGeometry>
        </mxCell>
        <mxCell id="15KhPmG5_vcWzqK-4jpr-76" value="" style="endArrow=classic;startArrow=classic;html=1;rounded=0;exitX=0.37;exitY=0.025;exitDx=0;exitDy=0;exitPerimeter=0;entryX=0.5;entryY=1;entryDx=0;entryDy=0;" parent="15KhPmG5_vcWzqK-4jpr-1" source="15KhPmG5_vcWzqK-4jpr-4" target="15KhPmG5_vcWzqK-4jpr-64" edge="1">
          <mxGeometry width="50" height="50" relative="1" as="geometry">
            <mxPoint x="373" y="872" as="sourcePoint" />
            <mxPoint x="373" y="820" as="targetPoint" />
          </mxGeometry>
        </mxCell>
        <mxCell id="15KhPmG5_vcWzqK-4jpr-77" value="" style="endArrow=classic;startArrow=classic;html=1;rounded=0;entryX=0.5;entryY=1;entryDx=0;entryDy=0;" parent="15KhPmG5_vcWzqK-4jpr-1" target="15KhPmG5_vcWzqK-4jpr-65" edge="1">
          <mxGeometry width="50" height="50" relative="1" as="geometry">
            <mxPoint x="561" y="850" as="sourcePoint" />
            <mxPoint x="383" y="830" as="targetPoint" />
          </mxGeometry>
        </mxCell>
        <mxCell id="15KhPmG5_vcWzqK-4jpr-78" value="" style="endArrow=classic;startArrow=classic;html=1;rounded=0;exitX=0.72;exitY=0;exitDx=0;exitDy=0;exitPerimeter=0;entryX=0.5;entryY=1;entryDx=0;entryDy=0;" parent="15KhPmG5_vcWzqK-4jpr-1" source="15KhPmG5_vcWzqK-4jpr-4" target="15KhPmG5_vcWzqK-4jpr-66" edge="1">
          <mxGeometry width="50" height="50" relative="1" as="geometry">
            <mxPoint x="393" y="892" as="sourcePoint" />
            <mxPoint x="393" y="840" as="targetPoint" />
          </mxGeometry>
        </mxCell>
        <mxCell id="15KhPmG5_vcWzqK-4jpr-79" value="" style="endArrow=classic;startArrow=classic;html=1;rounded=0;exitX=0.913;exitY=0.025;exitDx=0;exitDy=0;exitPerimeter=0;entryX=0.5;entryY=1;entryDx=0;entryDy=0;" parent="15KhPmG5_vcWzqK-4jpr-1" source="15KhPmG5_vcWzqK-4jpr-4" target="15KhPmG5_vcWzqK-4jpr-67" edge="1">
          <mxGeometry width="50" height="50" relative="1" as="geometry">
            <mxPoint x="403" y="902" as="sourcePoint" />
            <mxPoint x="403" y="850" as="targetPoint" />
          </mxGeometry>
        </mxCell>
        <mxCell id="ZlH0fL1B-FTutQNMoYRV-0" value="IGenres&lt;br&gt;Repo" style="rounded=1;whiteSpace=wrap;html=1;" parent="15KhPmG5_vcWzqK-4jpr-1" vertex="1">
          <mxGeometry x="320" y="570" width="67" height="40" as="geometry" />
        </mxCell>
        <mxCell id="ZlH0fL1B-FTutQNMoYRV-1" value="ITracks&lt;br&gt;Repo" style="rounded=1;whiteSpace=wrap;html=1;" parent="15KhPmG5_vcWzqK-4jpr-1" vertex="1">
          <mxGeometry x="392" y="570" width="60" height="40" as="geometry" />
        </mxCell>
        <mxCell id="ZlH0fL1B-FTutQNMoYRV-2" value="IAlbums&lt;br&gt;Repo" style="rounded=1;whiteSpace=wrap;html=1;" parent="15KhPmG5_vcWzqK-4jpr-1" vertex="1">
          <mxGeometry x="459.5" y="570" width="60" height="40" as="geometry" />
        </mxCell>
        <mxCell id="ZlH0fL1B-FTutQNMoYRV-3" value="IArtists&lt;br&gt;Repo" style="rounded=1;whiteSpace=wrap;html=1;" parent="15KhPmG5_vcWzqK-4jpr-1" vertex="1">
          <mxGeometry x="530" y="570" width="62.5" height="40" as="geometry" />
        </mxCell>
        <mxCell id="ZlH0fL1B-FTutQNMoYRV-4" value="IAlbumTracks&lt;br&gt;Repo" style="rounded=1;whiteSpace=wrap;html=1;" parent="15KhPmG5_vcWzqK-4jpr-1" vertex="1">
          <mxGeometry x="610" y="570" width="82.5" height="40" as="geometry" />
        </mxCell>
        <mxCell id="ZlH0fL1B-FTutQNMoYRV-5" value="IArtistAlbums&lt;br&gt;Repo" style="rounded=1;whiteSpace=wrap;html=1;" parent="15KhPmG5_vcWzqK-4jpr-1" vertex="1">
          <mxGeometry x="697.5" y="570" width="82.5" height="40" as="geometry" />
        </mxCell>
      </root>
    </mxGraphModel>
  </diagram>
  <diagram name="Verticle Slicing - Part 2" id="C5caR4heP7YM1GiRzJLL">
    <mxGraphModel dx="1211" dy="820" grid="1" gridSize="10" guides="1" tooltips="1" connect="1" arrows="1" fold="1" page="1" pageScale="1" pageWidth="850" pageHeight="1100" math="0" shadow="0">
      <root>
        <mxCell id="pTqcBcNtVvPr7RdLX65o-0" />
        <mxCell id="pTqcBcNtVvPr7RdLX65o-1" parent="pTqcBcNtVvPr7RdLX65o-0" />
        <mxCell id="pTqcBcNtVvPr7RdLX65o-2" value="" style="rounded=0;whiteSpace=wrap;html=1;fillColor=#fff2cc;strokeColor=#d6b656;" parent="pTqcBcNtVvPr7RdLX65o-1" vertex="1">
          <mxGeometry x="20" y="420" width="810" height="220" as="geometry" />
        </mxCell>
        <mxCell id="pTqcBcNtVvPr7RdLX65o-3" value="" style="rounded=0;whiteSpace=wrap;html=1;fillColor=#d5e8d4;strokeColor=#82b366;" parent="pTqcBcNtVvPr7RdLX65o-1" vertex="1">
          <mxGeometry x="20" y="670" width="810" height="260" as="geometry" />
        </mxCell>
        <mxCell id="pTqcBcNtVvPr7RdLX65o-4" value="&lt;font style=&quot;font-size: 18px;&quot;&gt;CRUD&lt;br&gt;DBContext&lt;br&gt;R/W&lt;br&gt;&lt;/font&gt;" style="rounded=1;whiteSpace=wrap;html=1;" parent="pTqcBcNtVvPr7RdLX65o-1" vertex="1">
          <mxGeometry x="308.75" y="800" width="260" height="70" as="geometry" />
        </mxCell>
        <mxCell id="pTqcBcNtVvPr7RdLX65o-5" value="" style="shape=cylinder3;whiteSpace=wrap;html=1;boundedLbl=1;backgroundOutline=1;size=15;" parent="pTqcBcNtVvPr7RdLX65o-1" vertex="1">
          <mxGeometry x="408.75" y="940" width="60" height="80" as="geometry" />
        </mxCell>
        <mxCell id="pTqcBcNtVvPr7RdLX65o-6" value="" style="endArrow=classic;startArrow=classic;html=1;rounded=0;exitX=0.5;exitY=0;exitDx=0;exitDy=0;exitPerimeter=0;entryX=0.5;entryY=1;entryDx=0;entryDy=0;" parent="pTqcBcNtVvPr7RdLX65o-1" source="pTqcBcNtVvPr7RdLX65o-5" target="pTqcBcNtVvPr7RdLX65o-4" edge="1">
          <mxGeometry width="50" height="50" relative="1" as="geometry">
            <mxPoint x="520" y="860" as="sourcePoint" />
            <mxPoint x="570" y="810" as="targetPoint" />
          </mxGeometry>
        </mxCell>
        <mxCell id="pTqcBcNtVvPr7RdLX65o-7" value="Genres&lt;br&gt;Repo" style="rounded=1;whiteSpace=wrap;html=1;" parent="pTqcBcNtVvPr7RdLX65o-1" vertex="1">
          <mxGeometry x="302.5" y="700" width="67" height="40" as="geometry" />
        </mxCell>
        <mxCell id="pTqcBcNtVvPr7RdLX65o-12" value="" style="rounded=0;whiteSpace=wrap;html=1;fillColor=#dae8fc;strokeColor=#6c8ebf;" parent="pTqcBcNtVvPr7RdLX65o-1" vertex="1">
          <mxGeometry x="20" y="240" width="810" height="100" as="geometry" />
        </mxCell>
        <mxCell id="pTqcBcNtVvPr7RdLX65o-13" value="REST API" style="rounded=1;whiteSpace=wrap;html=1;" parent="pTqcBcNtVvPr7RdLX65o-1" vertex="1">
          <mxGeometry x="150" y="260" width="200" height="60" as="geometry" />
        </mxCell>
        <mxCell id="pTqcBcNtVvPr7RdLX65o-14" value="User Interface" style="rounded=1;whiteSpace=wrap;html=1;" parent="pTqcBcNtVvPr7RdLX65o-1" vertex="1">
          <mxGeometry x="390" y="260" width="132.5" height="60" as="geometry" />
        </mxCell>
        <mxCell id="pTqcBcNtVvPr7RdLX65o-15" value="Unattended Process" style="rounded=1;whiteSpace=wrap;html=1;" parent="pTqcBcNtVvPr7RdLX65o-1" vertex="1">
          <mxGeometry x="640" y="260" width="152.5" height="60" as="geometry" />
        </mxCell>
        <mxCell id="pTqcBcNtVvPr7RdLX65o-18" value="&lt;span style=&quot;font-size: 36px;&quot;&gt;Refactor Handlers, Interfaces, Repositories, and Db Contexts based upon Overall Functionality&lt;br&gt;&lt;/span&gt;" style="text;strokeColor=none;align=center;fillColor=none;html=1;verticalAlign=middle;whiteSpace=wrap;rounded=0;" parent="pTqcBcNtVvPr7RdLX65o-1" vertex="1">
          <mxGeometry x="90" y="50" width="710" height="150" as="geometry" />
        </mxCell>
        <mxCell id="pTqcBcNtVvPr7RdLX65o-19" value="Handler" style="rounded=1;whiteSpace=wrap;html=1;" parent="pTqcBcNtVvPr7RdLX65o-1" vertex="1">
          <mxGeometry x="372.5" y="460" width="60" height="30" as="geometry" />
        </mxCell>
        <mxCell id="pTqcBcNtVvPr7RdLX65o-20" value="Handler" style="rounded=1;whiteSpace=wrap;html=1;" parent="pTqcBcNtVvPr7RdLX65o-1" vertex="1">
          <mxGeometry x="302.5" y="460" width="60" height="30" as="geometry" />
        </mxCell>
        <mxCell id="pTqcBcNtVvPr7RdLX65o-21" value="Handler" style="rounded=1;whiteSpace=wrap;html=1;" parent="pTqcBcNtVvPr7RdLX65o-1" vertex="1">
          <mxGeometry x="442.5" y="460" width="60" height="30" as="geometry" />
        </mxCell>
        <mxCell id="pTqcBcNtVvPr7RdLX65o-22" value="Handler" style="rounded=1;whiteSpace=wrap;html=1;" parent="pTqcBcNtVvPr7RdLX65o-1" vertex="1">
          <mxGeometry x="517.5" y="460" width="60" height="30" as="geometry" />
        </mxCell>
        <mxCell id="pTqcBcNtVvPr7RdLX65o-23" value="Handler" style="rounded=1;whiteSpace=wrap;html=1;" parent="pTqcBcNtVvPr7RdLX65o-1" vertex="1">
          <mxGeometry x="640" y="460" width="60" height="30" as="geometry" />
        </mxCell>
        <mxCell id="pTqcBcNtVvPr7RdLX65o-24" value="Handler" style="rounded=1;whiteSpace=wrap;html=1;" parent="pTqcBcNtVvPr7RdLX65o-1" vertex="1">
          <mxGeometry x="728.75" y="460" width="60" height="30" as="geometry" />
        </mxCell>
        <mxCell id="pTqcBcNtVvPr7RdLX65o-25" value="" style="endArrow=classic;startArrow=classic;html=1;rounded=0;exitX=0.5;exitY=0;exitDx=0;exitDy=0;entryX=0.5;entryY=1;entryDx=0;entryDy=0;" parent="pTqcBcNtVvPr7RdLX65o-1" source="pTqcBcNtVvPr7RdLX65o-70" target="pTqcBcNtVvPr7RdLX65o-20" edge="1">
          <mxGeometry width="50" height="50" relative="1" as="geometry">
            <mxPoint x="400" y="450" as="sourcePoint" />
            <mxPoint x="450" y="400" as="targetPoint" />
          </mxGeometry>
        </mxCell>
        <mxCell id="pTqcBcNtVvPr7RdLX65o-26" value="" style="endArrow=classic;startArrow=classic;html=1;rounded=0;entryX=0.5;entryY=1;entryDx=0;entryDy=0;exitX=0.75;exitY=0;exitDx=0;exitDy=0;" parent="pTqcBcNtVvPr7RdLX65o-1" source="pTqcBcNtVvPr7RdLX65o-70" target="pTqcBcNtVvPr7RdLX65o-19" edge="1">
          <mxGeometry width="50" height="50" relative="1" as="geometry">
            <mxPoint x="400" y="450" as="sourcePoint" />
            <mxPoint x="450" y="400" as="targetPoint" />
          </mxGeometry>
        </mxCell>
        <mxCell id="pTqcBcNtVvPr7RdLX65o-27" value="" style="endArrow=classic;startArrow=classic;html=1;rounded=0;exitX=0.633;exitY=0;exitDx=0;exitDy=0;exitPerimeter=0;entryX=0.5;entryY=1;entryDx=0;entryDy=0;" parent="pTqcBcNtVvPr7RdLX65o-1" source="pTqcBcNtVvPr7RdLX65o-71" target="pTqcBcNtVvPr7RdLX65o-19" edge="1">
          <mxGeometry width="50" height="50" relative="1" as="geometry">
            <mxPoint x="400" y="450" as="sourcePoint" />
            <mxPoint x="450" y="400" as="targetPoint" />
          </mxGeometry>
        </mxCell>
        <mxCell id="pTqcBcNtVvPr7RdLX65o-28" value="" style="endArrow=classic;startArrow=classic;html=1;rounded=0;entryX=0.5;entryY=1;entryDx=0;entryDy=0;exitX=0.5;exitY=0;exitDx=0;exitDy=0;" parent="pTqcBcNtVvPr7RdLX65o-1" source="pTqcBcNtVvPr7RdLX65o-72" target="pTqcBcNtVvPr7RdLX65o-21" edge="1">
          <mxGeometry width="50" height="50" relative="1" as="geometry">
            <mxPoint x="400" y="450" as="sourcePoint" />
            <mxPoint x="450" y="400" as="targetPoint" />
          </mxGeometry>
        </mxCell>
        <mxCell id="pTqcBcNtVvPr7RdLX65o-29" value="" style="endArrow=classic;startArrow=classic;html=1;rounded=0;exitX=0.25;exitY=0;exitDx=0;exitDy=0;entryX=0.5;entryY=1;entryDx=0;entryDy=0;" parent="pTqcBcNtVvPr7RdLX65o-1" source="pTqcBcNtVvPr7RdLX65o-73" target="pTqcBcNtVvPr7RdLX65o-21" edge="1">
          <mxGeometry width="50" height="50" relative="1" as="geometry">
            <mxPoint x="400" y="450" as="sourcePoint" />
            <mxPoint x="450" y="400" as="targetPoint" />
          </mxGeometry>
        </mxCell>
        <mxCell id="pTqcBcNtVvPr7RdLX65o-30" value="" style="endArrow=classic;startArrow=classic;html=1;rounded=0;exitX=0.75;exitY=0;exitDx=0;exitDy=0;entryX=0.5;entryY=1;entryDx=0;entryDy=0;" parent="pTqcBcNtVvPr7RdLX65o-1" source="pTqcBcNtVvPr7RdLX65o-73" target="pTqcBcNtVvPr7RdLX65o-22" edge="1">
          <mxGeometry width="50" height="50" relative="1" as="geometry">
            <mxPoint x="400" y="450" as="sourcePoint" />
            <mxPoint x="450" y="400" as="targetPoint" />
          </mxGeometry>
        </mxCell>
        <mxCell id="pTqcBcNtVvPr7RdLX65o-31" value="" style="endArrow=classic;startArrow=classic;html=1;rounded=0;exitX=0.5;exitY=0;exitDx=0;exitDy=0;" parent="pTqcBcNtVvPr7RdLX65o-1" source="pTqcBcNtVvPr7RdLX65o-74" target="pTqcBcNtVvPr7RdLX65o-23" edge="1">
          <mxGeometry width="50" height="50" relative="1" as="geometry">
            <mxPoint x="400" y="450" as="sourcePoint" />
            <mxPoint x="450" y="400" as="targetPoint" />
          </mxGeometry>
        </mxCell>
        <mxCell id="pTqcBcNtVvPr7RdLX65o-32" value="" style="endArrow=classic;startArrow=classic;html=1;rounded=0;exitX=0.5;exitY=0;exitDx=0;exitDy=0;" parent="pTqcBcNtVvPr7RdLX65o-1" source="pTqcBcNtVvPr7RdLX65o-75" target="pTqcBcNtVvPr7RdLX65o-24" edge="1">
          <mxGeometry width="50" height="50" relative="1" as="geometry">
            <mxPoint x="400" y="450" as="sourcePoint" />
            <mxPoint x="450" y="400" as="targetPoint" />
          </mxGeometry>
        </mxCell>
        <mxCell id="pTqcBcNtVvPr7RdLX65o-33" value="" style="endArrow=classic;html=1;rounded=0;exitX=0.68;exitY=0.983;exitDx=0;exitDy=0;entryX=0.25;entryY=0;entryDx=0;entryDy=0;exitPerimeter=0;" parent="pTqcBcNtVvPr7RdLX65o-1" source="pTqcBcNtVvPr7RdLX65o-13" target="pTqcBcNtVvPr7RdLX65o-20" edge="1">
          <mxGeometry width="50" height="50" relative="1" as="geometry">
            <mxPoint x="400" y="450" as="sourcePoint" />
            <mxPoint x="450" y="400" as="targetPoint" />
          </mxGeometry>
        </mxCell>
        <mxCell id="pTqcBcNtVvPr7RdLX65o-34" value="Request" style="edgeLabel;html=1;align=center;verticalAlign=middle;resizable=0;points=[];" parent="pTqcBcNtVvPr7RdLX65o-33" vertex="1" connectable="0">
          <mxGeometry x="-0.2434" y="2" relative="1" as="geometry">
            <mxPoint y="-13" as="offset" />
          </mxGeometry>
        </mxCell>
        <mxCell id="pTqcBcNtVvPr7RdLX65o-35" value="" style="endArrow=classic;html=1;rounded=0;exitX=0.75;exitY=0;exitDx=0;exitDy=0;entryX=0.875;entryY=1;entryDx=0;entryDy=0;entryPerimeter=0;" parent="pTqcBcNtVvPr7RdLX65o-1" source="pTqcBcNtVvPr7RdLX65o-20" target="pTqcBcNtVvPr7RdLX65o-13" edge="1">
          <mxGeometry width="50" height="50" relative="1" as="geometry">
            <mxPoint x="400" y="450" as="sourcePoint" />
            <mxPoint x="450" y="400" as="targetPoint" />
          </mxGeometry>
        </mxCell>
        <mxCell id="pTqcBcNtVvPr7RdLX65o-36" value="Response" style="edgeLabel;html=1;align=center;verticalAlign=middle;resizable=0;points=[];" parent="pTqcBcNtVvPr7RdLX65o-35" vertex="1" connectable="0">
          <mxGeometry x="0.1439" y="-4" relative="1" as="geometry">
            <mxPoint x="-3" y="10" as="offset" />
          </mxGeometry>
        </mxCell>
        <mxCell id="pTqcBcNtVvPr7RdLX65o-37" value="" style="endArrow=classic;html=1;rounded=0;exitX=0.053;exitY=1.033;exitDx=0;exitDy=0;exitPerimeter=0;" parent="pTqcBcNtVvPr7RdLX65o-1" source="pTqcBcNtVvPr7RdLX65o-14" edge="1">
          <mxGeometry width="50" height="50" relative="1" as="geometry">
            <mxPoint x="400" y="450" as="sourcePoint" />
            <mxPoint x="397" y="460" as="targetPoint" />
          </mxGeometry>
        </mxCell>
        <mxCell id="pTqcBcNtVvPr7RdLX65o-38" value="Request" style="edgeLabel;html=1;align=center;verticalAlign=middle;resizable=0;points=[];" parent="pTqcBcNtVvPr7RdLX65o-37" vertex="1" connectable="0">
          <mxGeometry x="-0.3272" y="2" relative="1" as="geometry">
            <mxPoint x="-1" y="2" as="offset" />
          </mxGeometry>
        </mxCell>
        <mxCell id="pTqcBcNtVvPr7RdLX65o-39" value="" style="endArrow=classic;html=1;rounded=0;exitX=0.75;exitY=0;exitDx=0;exitDy=0;" parent="pTqcBcNtVvPr7RdLX65o-1" source="pTqcBcNtVvPr7RdLX65o-19" edge="1">
          <mxGeometry width="50" height="50" relative="1" as="geometry">
            <mxPoint x="400" y="450" as="sourcePoint" />
            <mxPoint x="418" y="310" as="targetPoint" />
          </mxGeometry>
        </mxCell>
        <mxCell id="pTqcBcNtVvPr7RdLX65o-40" value="Response" style="edgeLabel;html=1;align=center;verticalAlign=middle;resizable=0;points=[];" parent="pTqcBcNtVvPr7RdLX65o-39" vertex="1" connectable="0">
          <mxGeometry x="0.2218" y="-1" relative="1" as="geometry">
            <mxPoint y="15" as="offset" />
          </mxGeometry>
        </mxCell>
        <mxCell id="pTqcBcNtVvPr7RdLX65o-41" value="" style="endArrow=classic;html=1;rounded=0;exitX=0.5;exitY=1;exitDx=0;exitDy=0;entryX=0.25;entryY=0;entryDx=0;entryDy=0;" parent="pTqcBcNtVvPr7RdLX65o-1" source="pTqcBcNtVvPr7RdLX65o-14" target="pTqcBcNtVvPr7RdLX65o-21" edge="1">
          <mxGeometry width="50" height="50" relative="1" as="geometry">
            <mxPoint x="400" y="450" as="sourcePoint" />
            <mxPoint x="450" y="400" as="targetPoint" />
          </mxGeometry>
        </mxCell>
        <mxCell id="pTqcBcNtVvPr7RdLX65o-42" value="Request" style="edgeLabel;html=1;align=center;verticalAlign=middle;resizable=0;points=[];" parent="pTqcBcNtVvPr7RdLX65o-41" vertex="1" connectable="0">
          <mxGeometry x="-0.4239" y="-1" relative="1" as="geometry">
            <mxPoint as="offset" />
          </mxGeometry>
        </mxCell>
        <mxCell id="pTqcBcNtVvPr7RdLX65o-43" value="" style="endArrow=classic;html=1;rounded=0;exitX=0.75;exitY=0;exitDx=0;exitDy=0;entryX=0.75;entryY=1;entryDx=0;entryDy=0;" parent="pTqcBcNtVvPr7RdLX65o-1" source="pTqcBcNtVvPr7RdLX65o-21" target="pTqcBcNtVvPr7RdLX65o-14" edge="1">
          <mxGeometry width="50" height="50" relative="1" as="geometry">
            <mxPoint x="400" y="450" as="sourcePoint" />
            <mxPoint x="450" y="400" as="targetPoint" />
          </mxGeometry>
        </mxCell>
        <mxCell id="pTqcBcNtVvPr7RdLX65o-44" value="Response" style="edgeLabel;html=1;align=center;verticalAlign=middle;resizable=0;points=[];" parent="pTqcBcNtVvPr7RdLX65o-43" vertex="1" connectable="0">
          <mxGeometry x="-0.171" y="-3" relative="1" as="geometry">
            <mxPoint x="5" y="-13" as="offset" />
          </mxGeometry>
        </mxCell>
        <mxCell id="pTqcBcNtVvPr7RdLX65o-45" value="" style="endArrow=classic;html=1;rounded=0;entryX=0.25;entryY=0;entryDx=0;entryDy=0;exitX=0.111;exitY=1.033;exitDx=0;exitDy=0;exitPerimeter=0;" parent="pTqcBcNtVvPr7RdLX65o-1" source="pTqcBcNtVvPr7RdLX65o-15" target="pTqcBcNtVvPr7RdLX65o-23" edge="1">
          <mxGeometry width="50" height="50" relative="1" as="geometry">
            <mxPoint x="640" y="320" as="sourcePoint" />
            <mxPoint x="450" y="400" as="targetPoint" />
          </mxGeometry>
        </mxCell>
        <mxCell id="pTqcBcNtVvPr7RdLX65o-46" value="Request" style="edgeLabel;html=1;align=center;verticalAlign=middle;resizable=0;points=[];" parent="pTqcBcNtVvPr7RdLX65o-45" vertex="1" connectable="0">
          <mxGeometry x="-0.4614" y="1" relative="1" as="geometry">
            <mxPoint as="offset" />
          </mxGeometry>
        </mxCell>
        <mxCell id="pTqcBcNtVvPr7RdLX65o-47" value="" style="endArrow=classic;html=1;rounded=0;exitX=0.75;exitY=0;exitDx=0;exitDy=0;entryX=0.25;entryY=1;entryDx=0;entryDy=0;" parent="pTqcBcNtVvPr7RdLX65o-1" source="pTqcBcNtVvPr7RdLX65o-23" target="pTqcBcNtVvPr7RdLX65o-15" edge="1">
          <mxGeometry width="50" height="50" relative="1" as="geometry">
            <mxPoint x="400" y="450" as="sourcePoint" />
            <mxPoint x="670" y="320" as="targetPoint" />
          </mxGeometry>
        </mxCell>
        <mxCell id="pTqcBcNtVvPr7RdLX65o-48" value="Response" style="edgeLabel;html=1;align=center;verticalAlign=middle;resizable=0;points=[];" parent="pTqcBcNtVvPr7RdLX65o-47" vertex="1" connectable="0">
          <mxGeometry x="-0.1757" y="-2" relative="1" as="geometry">
            <mxPoint x="9" y="-13" as="offset" />
          </mxGeometry>
        </mxCell>
        <mxCell id="pTqcBcNtVvPr7RdLX65o-49" value="" style="endArrow=classic;html=1;rounded=0;exitX=0.75;exitY=1;exitDx=0;exitDy=0;entryX=0.25;entryY=0;entryDx=0;entryDy=0;" parent="pTqcBcNtVvPr7RdLX65o-1" source="pTqcBcNtVvPr7RdLX65o-15" target="pTqcBcNtVvPr7RdLX65o-24" edge="1">
          <mxGeometry width="50" height="50" relative="1" as="geometry">
            <mxPoint x="400" y="450" as="sourcePoint" />
            <mxPoint x="450" y="400" as="targetPoint" />
          </mxGeometry>
        </mxCell>
        <mxCell id="pTqcBcNtVvPr7RdLX65o-50" value="Request" style="edgeLabel;html=1;align=center;verticalAlign=middle;resizable=0;points=[];" parent="pTqcBcNtVvPr7RdLX65o-49" vertex="1" connectable="0">
          <mxGeometry x="-0.5024" y="1" relative="1" as="geometry">
            <mxPoint as="offset" />
          </mxGeometry>
        </mxCell>
        <mxCell id="pTqcBcNtVvPr7RdLX65o-51" value="" style="endArrow=classic;html=1;rounded=0;exitX=0.75;exitY=0;exitDx=0;exitDy=0;entryX=0.925;entryY=0.967;entryDx=0;entryDy=0;entryPerimeter=0;" parent="pTqcBcNtVvPr7RdLX65o-1" source="pTqcBcNtVvPr7RdLX65o-24" target="pTqcBcNtVvPr7RdLX65o-15" edge="1">
          <mxGeometry width="50" height="50" relative="1" as="geometry">
            <mxPoint x="400" y="450" as="sourcePoint" />
            <mxPoint x="450" y="400" as="targetPoint" />
          </mxGeometry>
        </mxCell>
        <mxCell id="pTqcBcNtVvPr7RdLX65o-52" value="Response" style="edgeLabel;html=1;align=center;verticalAlign=middle;resizable=0;points=[];" parent="pTqcBcNtVvPr7RdLX65o-51" vertex="1" connectable="0">
          <mxGeometry x="-0.152" y="-2" relative="1" as="geometry">
            <mxPoint y="-1" as="offset" />
          </mxGeometry>
        </mxCell>
        <mxCell id="pTqcBcNtVvPr7RdLX65o-53" value="" style="endArrow=classic;startArrow=classic;html=1;rounded=0;entryX=0.5;entryY=1;entryDx=0;entryDy=0;exitX=0.5;exitY=0;exitDx=0;exitDy=0;" parent="pTqcBcNtVvPr7RdLX65o-1" source="pTqcBcNtVvPr7RdLX65o-7" target="pTqcBcNtVvPr7RdLX65o-70" edge="1">
          <mxGeometry width="50" height="50" relative="1" as="geometry">
            <mxPoint x="442" y="741" as="sourcePoint" />
            <mxPoint x="402.5" y="720" as="targetPoint" />
          </mxGeometry>
        </mxCell>
        <mxCell id="pTqcBcNtVvPr7RdLX65o-54" value="Tracks&lt;br&gt;Repo" style="rounded=1;whiteSpace=wrap;html=1;" parent="pTqcBcNtVvPr7RdLX65o-1" vertex="1">
          <mxGeometry x="374.5" y="700" width="60" height="40" as="geometry" />
        </mxCell>
        <mxCell id="pTqcBcNtVvPr7RdLX65o-55" value="Albums&lt;br&gt;Repo" style="rounded=1;whiteSpace=wrap;html=1;" parent="pTqcBcNtVvPr7RdLX65o-1" vertex="1">
          <mxGeometry x="442" y="700" width="60" height="40" as="geometry" />
        </mxCell>
        <mxCell id="pTqcBcNtVvPr7RdLX65o-56" value="Artists&lt;br&gt;Repo" style="rounded=1;whiteSpace=wrap;html=1;" parent="pTqcBcNtVvPr7RdLX65o-1" vertex="1">
          <mxGeometry x="512.5" y="700" width="62.5" height="40" as="geometry" />
        </mxCell>
        <mxCell id="pTqcBcNtVvPr7RdLX65o-57" value="AlbumTracks&lt;br&gt;Repo" style="rounded=1;whiteSpace=wrap;html=1;" parent="pTqcBcNtVvPr7RdLX65o-1" vertex="1">
          <mxGeometry x="630" y="700" width="82.5" height="40" as="geometry" />
        </mxCell>
        <mxCell id="pTqcBcNtVvPr7RdLX65o-58" value="ArtistAlbums&lt;br&gt;Repo" style="rounded=1;whiteSpace=wrap;html=1;" parent="pTqcBcNtVvPr7RdLX65o-1" vertex="1">
          <mxGeometry x="717.5" y="700" width="82.5" height="40" as="geometry" />
        </mxCell>
        <mxCell id="pTqcBcNtVvPr7RdLX65o-59" value="" style="endArrow=classic;startArrow=classic;html=1;rounded=0;exitX=0.5;exitY=0;exitDx=0;exitDy=0;entryX=0.5;entryY=1;entryDx=0;entryDy=0;" parent="pTqcBcNtVvPr7RdLX65o-1" source="pTqcBcNtVvPr7RdLX65o-54" target="pTqcBcNtVvPr7RdLX65o-71" edge="1">
          <mxGeometry width="50" height="50" relative="1" as="geometry">
            <mxPoint x="400" y="650" as="sourcePoint" />
            <mxPoint x="528.04" y="718" as="targetPoint" />
          </mxGeometry>
        </mxCell>
        <mxCell id="pTqcBcNtVvPr7RdLX65o-60" value="" style="endArrow=classic;startArrow=classic;html=1;rounded=0;exitX=0.5;exitY=0;exitDx=0;exitDy=0;" parent="pTqcBcNtVvPr7RdLX65o-1" source="pTqcBcNtVvPr7RdLX65o-55" target="pTqcBcNtVvPr7RdLX65o-72" edge="1">
          <mxGeometry width="50" height="50" relative="1" as="geometry">
            <mxPoint x="400" y="650" as="sourcePoint" />
            <mxPoint x="550" y="720" as="targetPoint" />
          </mxGeometry>
        </mxCell>
        <mxCell id="pTqcBcNtVvPr7RdLX65o-61" value="" style="endArrow=classic;startArrow=classic;html=1;rounded=0;exitX=0.5;exitY=0;exitDx=0;exitDy=0;entryX=0.5;entryY=1;entryDx=0;entryDy=0;" parent="pTqcBcNtVvPr7RdLX65o-1" source="pTqcBcNtVvPr7RdLX65o-56" target="pTqcBcNtVvPr7RdLX65o-73" edge="1">
          <mxGeometry width="50" height="50" relative="1" as="geometry">
            <mxPoint x="400" y="650" as="sourcePoint" />
            <mxPoint x="571" y="720" as="targetPoint" />
          </mxGeometry>
        </mxCell>
        <mxCell id="pTqcBcNtVvPr7RdLX65o-62" value="" style="endArrow=classic;startArrow=classic;html=1;rounded=0;entryX=0.5;entryY=1;entryDx=0;entryDy=0;" parent="pTqcBcNtVvPr7RdLX65o-1" source="pTqcBcNtVvPr7RdLX65o-57" target="pTqcBcNtVvPr7RdLX65o-74" edge="1">
          <mxGeometry width="50" height="50" relative="1" as="geometry">
            <mxPoint x="400" y="650" as="sourcePoint" />
            <mxPoint x="691.04" y="719" as="targetPoint" />
          </mxGeometry>
        </mxCell>
        <mxCell id="pTqcBcNtVvPr7RdLX65o-63" value="" style="endArrow=classic;startArrow=classic;html=1;rounded=0;exitX=0.5;exitY=0;exitDx=0;exitDy=0;entryX=0.5;entryY=1;entryDx=0;entryDy=0;" parent="pTqcBcNtVvPr7RdLX65o-1" source="pTqcBcNtVvPr7RdLX65o-58" target="pTqcBcNtVvPr7RdLX65o-75" edge="1">
          <mxGeometry width="50" height="50" relative="1" as="geometry">
            <mxPoint x="400" y="650" as="sourcePoint" />
            <mxPoint x="719.96" y="718" as="targetPoint" />
          </mxGeometry>
        </mxCell>
        <mxCell id="pTqcBcNtVvPr7RdLX65o-64" value="" style="endArrow=classic;startArrow=classic;html=1;rounded=0;exitX=0.101;exitY=0.033;exitDx=0;exitDy=0;exitPerimeter=0;" parent="pTqcBcNtVvPr7RdLX65o-1" source="pTqcBcNtVvPr7RdLX65o-4" target="pTqcBcNtVvPr7RdLX65o-7" edge="1">
          <mxGeometry width="50" height="50" relative="1" as="geometry">
            <mxPoint x="400" y="650" as="sourcePoint" />
            <mxPoint x="450" y="600" as="targetPoint" />
          </mxGeometry>
        </mxCell>
        <mxCell id="pTqcBcNtVvPr7RdLX65o-65" value="" style="endArrow=classic;startArrow=classic;html=1;rounded=0;exitX=0.363;exitY=-0.017;exitDx=0;exitDy=0;exitPerimeter=0;entryX=0.5;entryY=1;entryDx=0;entryDy=0;" parent="pTqcBcNtVvPr7RdLX65o-1" source="pTqcBcNtVvPr7RdLX65o-4" target="pTqcBcNtVvPr7RdLX65o-54" edge="1">
          <mxGeometry width="50" height="50" relative="1" as="geometry">
            <mxPoint x="363" y="862" as="sourcePoint" />
            <mxPoint x="363" y="810" as="targetPoint" />
          </mxGeometry>
        </mxCell>
        <mxCell id="pTqcBcNtVvPr7RdLX65o-66" value="" style="endArrow=classic;startArrow=classic;html=1;rounded=0;entryX=0.5;entryY=1;entryDx=0;entryDy=0;exitX=0.628;exitY=-0.033;exitDx=0;exitDy=0;exitPerimeter=0;" parent="pTqcBcNtVvPr7RdLX65o-1" source="pTqcBcNtVvPr7RdLX65o-4" target="pTqcBcNtVvPr7RdLX65o-55" edge="1">
          <mxGeometry width="50" height="50" relative="1" as="geometry">
            <mxPoint x="470" y="800" as="sourcePoint" />
            <mxPoint x="373" y="820" as="targetPoint" />
          </mxGeometry>
        </mxCell>
        <mxCell id="pTqcBcNtVvPr7RdLX65o-67" value="" style="endArrow=classic;startArrow=classic;html=1;rounded=0;entryX=0.5;entryY=1;entryDx=0;entryDy=0;exitX=0.905;exitY=0.033;exitDx=0;exitDy=0;exitPerimeter=0;" parent="pTqcBcNtVvPr7RdLX65o-1" source="pTqcBcNtVvPr7RdLX65o-4" target="pTqcBcNtVvPr7RdLX65o-56" edge="1">
          <mxGeometry width="50" height="50" relative="1" as="geometry">
            <mxPoint x="561" y="850" as="sourcePoint" />
            <mxPoint x="383" y="830" as="targetPoint" />
          </mxGeometry>
        </mxCell>
        <mxCell id="pTqcBcNtVvPr7RdLX65o-68" value="" style="endArrow=classic;startArrow=classic;html=1;rounded=0;entryX=0.5;entryY=1;entryDx=0;entryDy=0;exitX=0.2;exitY=0.017;exitDx=0;exitDy=0;exitPerimeter=0;" parent="pTqcBcNtVvPr7RdLX65o-1" source="RFKbaSm9KmMwJRQujlas-22" target="pTqcBcNtVvPr7RdLX65o-57" edge="1">
          <mxGeometry width="50" height="50" relative="1" as="geometry">
            <mxPoint x="393" y="892" as="sourcePoint" />
            <mxPoint x="393" y="840" as="targetPoint" />
          </mxGeometry>
        </mxCell>
        <mxCell id="pTqcBcNtVvPr7RdLX65o-69" value="" style="endArrow=classic;startArrow=classic;html=1;rounded=0;entryX=0.5;entryY=1;entryDx=0;entryDy=0;exitX=0.793;exitY=-0.014;exitDx=0;exitDy=0;exitPerimeter=0;" parent="pTqcBcNtVvPr7RdLX65o-1" source="RFKbaSm9KmMwJRQujlas-22" target="pTqcBcNtVvPr7RdLX65o-58" edge="1">
          <mxGeometry width="50" height="50" relative="1" as="geometry">
            <mxPoint x="403" y="902" as="sourcePoint" />
            <mxPoint x="403" y="850" as="targetPoint" />
          </mxGeometry>
        </mxCell>
        <mxCell id="pTqcBcNtVvPr7RdLX65o-70" value="IGenres&lt;br&gt;Repo" style="rounded=1;whiteSpace=wrap;html=1;" parent="pTqcBcNtVvPr7RdLX65o-1" vertex="1">
          <mxGeometry x="302.5" y="570" width="67" height="40" as="geometry" />
        </mxCell>
        <mxCell id="pTqcBcNtVvPr7RdLX65o-71" value="ITracks&lt;br&gt;Repo" style="rounded=1;whiteSpace=wrap;html=1;" parent="pTqcBcNtVvPr7RdLX65o-1" vertex="1">
          <mxGeometry x="374.5" y="570" width="60" height="40" as="geometry" />
        </mxCell>
        <mxCell id="pTqcBcNtVvPr7RdLX65o-72" value="IAlbums&lt;br&gt;Repo" style="rounded=1;whiteSpace=wrap;html=1;" parent="pTqcBcNtVvPr7RdLX65o-1" vertex="1">
          <mxGeometry x="442" y="570" width="60" height="40" as="geometry" />
        </mxCell>
        <mxCell id="pTqcBcNtVvPr7RdLX65o-73" value="IArtists&lt;br&gt;Repo" style="rounded=1;whiteSpace=wrap;html=1;" parent="pTqcBcNtVvPr7RdLX65o-1" vertex="1">
          <mxGeometry x="512.5" y="570" width="62.5" height="40" as="geometry" />
        </mxCell>
        <mxCell id="pTqcBcNtVvPr7RdLX65o-74" value="IAlbumTracks&lt;br&gt;Repo" style="rounded=1;whiteSpace=wrap;html=1;" parent="pTqcBcNtVvPr7RdLX65o-1" vertex="1">
          <mxGeometry x="630" y="570" width="82.5" height="40" as="geometry" />
        </mxCell>
        <mxCell id="pTqcBcNtVvPr7RdLX65o-75" value="IArtistAlbums&lt;br&gt;Repo" style="rounded=1;whiteSpace=wrap;html=1;" parent="pTqcBcNtVvPr7RdLX65o-1" vertex="1">
          <mxGeometry x="717.5" y="570" width="82.5" height="40" as="geometry" />
        </mxCell>
        <mxCell id="RFKbaSm9KmMwJRQujlas-1" value="" style="rounded=0;whiteSpace=wrap;html=1;fillColor=none;strokeWidth=3;" parent="pTqcBcNtVvPr7RdLX65o-1" vertex="1">
          <mxGeometry x="30" y="440" width="230" height="470" as="geometry" />
        </mxCell>
        <mxCell id="RFKbaSm9KmMwJRQujlas-2" value="&lt;b&gt;Aggregate Slicing&lt;/b&gt;" style="text;strokeColor=none;align=center;fillColor=none;html=1;verticalAlign=middle;whiteSpace=wrap;rounded=0;" parent="pTqcBcNtVvPr7RdLX65o-1" vertex="1">
          <mxGeometry x="90" y="410" width="120" height="40" as="geometry" />
        </mxCell>
        <mxCell id="RFKbaSm9KmMwJRQujlas-4" value="Album StatisticsHandler" style="rounded=1;whiteSpace=wrap;html=1;" parent="pTqcBcNtVvPr7RdLX65o-1" vertex="1">
          <mxGeometry x="40" y="470" width="100" height="30" as="geometry" />
        </mxCell>
        <mxCell id="RFKbaSm9KmMwJRQujlas-6" value="Artists StatisticsHandler" style="rounded=1;whiteSpace=wrap;html=1;" parent="pTqcBcNtVvPr7RdLX65o-1" vertex="1">
          <mxGeometry x="147.5" y="470" width="100" height="30" as="geometry" />
        </mxCell>
        <mxCell id="RFKbaSm9KmMwJRQujlas-7" value="ITracks&lt;br&gt;Repo" style="rounded=1;whiteSpace=wrap;html=1;" parent="pTqcBcNtVvPr7RdLX65o-1" vertex="1">
          <mxGeometry x="110" y="550" width="60" height="40" as="geometry" />
        </mxCell>
        <mxCell id="RFKbaSm9KmMwJRQujlas-8" value="Tracks&lt;br&gt;Repo" style="rounded=1;whiteSpace=wrap;html=1;" parent="pTqcBcNtVvPr7RdLX65o-1" vertex="1">
          <mxGeometry x="110" y="700" width="60" height="40" as="geometry" />
        </mxCell>
        <mxCell id="RFKbaSm9KmMwJRQujlas-9" value="" style="endArrow=classic;startArrow=classic;html=1;rounded=0;entryX=0.5;entryY=1;entryDx=0;entryDy=0;exitX=0.5;exitY=0;exitDx=0;exitDy=0;" parent="pTqcBcNtVvPr7RdLX65o-1" source="RFKbaSm9KmMwJRQujlas-7" target="RFKbaSm9KmMwJRQujlas-4" edge="1">
          <mxGeometry width="50" height="50" relative="1" as="geometry">
            <mxPoint x="400" y="650" as="sourcePoint" />
            <mxPoint x="450" y="600" as="targetPoint" />
          </mxGeometry>
        </mxCell>
        <mxCell id="RFKbaSm9KmMwJRQujlas-10" value="" style="endArrow=classic;startArrow=classic;html=1;rounded=0;entryX=0.575;entryY=1.1;entryDx=0;entryDy=0;exitX=0.617;exitY=0;exitDx=0;exitDy=0;entryPerimeter=0;exitPerimeter=0;" parent="pTqcBcNtVvPr7RdLX65o-1" source="RFKbaSm9KmMwJRQujlas-7" target="RFKbaSm9KmMwJRQujlas-6" edge="1">
          <mxGeometry width="50" height="50" relative="1" as="geometry">
            <mxPoint x="150" y="560" as="sourcePoint" />
            <mxPoint x="100" y="510" as="targetPoint" />
          </mxGeometry>
        </mxCell>
        <mxCell id="RFKbaSm9KmMwJRQujlas-11" value="" style="endArrow=classic;startArrow=classic;html=1;rounded=0;entryX=0.5;entryY=1;entryDx=0;entryDy=0;exitX=0.5;exitY=0;exitDx=0;exitDy=0;" parent="pTqcBcNtVvPr7RdLX65o-1" source="RFKbaSm9KmMwJRQujlas-8" target="RFKbaSm9KmMwJRQujlas-7" edge="1">
          <mxGeometry width="50" height="50" relative="1" as="geometry">
            <mxPoint x="400" y="650" as="sourcePoint" />
            <mxPoint x="450" y="600" as="targetPoint" />
          </mxGeometry>
        </mxCell>
        <mxCell id="RFKbaSm9KmMwJRQujlas-12" value="&lt;font style=&quot;font-size: 18px;&quot;&gt;Aggregate&lt;br&gt;DBContext&lt;br&gt;RO&lt;br&gt;&lt;/font&gt;" style="rounded=1;whiteSpace=wrap;html=1;" parent="pTqcBcNtVvPr7RdLX65o-1" vertex="1">
          <mxGeometry x="65" y="800" width="150" height="70" as="geometry" />
        </mxCell>
        <mxCell id="RFKbaSm9KmMwJRQujlas-13" value="" style="shape=cylinder3;whiteSpace=wrap;html=1;boundedLbl=1;backgroundOutline=1;size=15;" parent="pTqcBcNtVvPr7RdLX65o-1" vertex="1">
          <mxGeometry x="110" y="940" width="60" height="80" as="geometry" />
        </mxCell>
        <mxCell id="RFKbaSm9KmMwJRQujlas-14" value="" style="endArrow=classic;startArrow=classic;html=1;rounded=0;exitX=0.5;exitY=0;exitDx=0;exitDy=0;exitPerimeter=0;entryX=0.5;entryY=1;entryDx=0;entryDy=0;" parent="pTqcBcNtVvPr7RdLX65o-1" source="RFKbaSm9KmMwJRQujlas-13" target="RFKbaSm9KmMwJRQujlas-12" edge="1">
          <mxGeometry width="50" height="50" relative="1" as="geometry">
            <mxPoint x="400" y="650" as="sourcePoint" />
            <mxPoint x="450" y="600" as="targetPoint" />
          </mxGeometry>
        </mxCell>
        <mxCell id="RFKbaSm9KmMwJRQujlas-15" value="" style="endArrow=classic;startArrow=classic;html=1;rounded=0;exitX=0.5;exitY=0;exitDx=0;exitDy=0;" parent="pTqcBcNtVvPr7RdLX65o-1" source="RFKbaSm9KmMwJRQujlas-12" target="RFKbaSm9KmMwJRQujlas-8" edge="1">
          <mxGeometry width="50" height="50" relative="1" as="geometry">
            <mxPoint x="400" y="650" as="sourcePoint" />
            <mxPoint x="450" y="600" as="targetPoint" />
          </mxGeometry>
        </mxCell>
        <mxCell id="RFKbaSm9KmMwJRQujlas-16" value="" style="endArrow=classic;html=1;rounded=0;exitX=0.15;exitY=1;exitDx=0;exitDy=0;exitPerimeter=0;entryX=0.335;entryY=-0.033;entryDx=0;entryDy=0;entryPerimeter=0;" parent="pTqcBcNtVvPr7RdLX65o-1" source="pTqcBcNtVvPr7RdLX65o-13" target="RFKbaSm9KmMwJRQujlas-6" edge="1">
          <mxGeometry width="50" height="50" relative="1" as="geometry">
            <mxPoint x="60" y="370" as="sourcePoint" />
            <mxPoint x="200" y="470" as="targetPoint" />
          </mxGeometry>
        </mxCell>
        <mxCell id="RFKbaSm9KmMwJRQujlas-17" value="Request" style="edgeLabel;html=1;align=center;verticalAlign=middle;resizable=0;points=[];" parent="RFKbaSm9KmMwJRQujlas-16" vertex="1" connectable="0">
          <mxGeometry x="-0.2434" y="2" relative="1" as="geometry">
            <mxPoint y="-13" as="offset" />
          </mxGeometry>
        </mxCell>
        <mxCell id="RFKbaSm9KmMwJRQujlas-18" value="" style="endArrow=classic;html=1;rounded=0;exitX=0.75;exitY=0;exitDx=0;exitDy=0;entryX=0.36;entryY=1.05;entryDx=0;entryDy=0;entryPerimeter=0;" parent="pTqcBcNtVvPr7RdLX65o-1" source="RFKbaSm9KmMwJRQujlas-6" target="pTqcBcNtVvPr7RdLX65o-13" edge="1">
          <mxGeometry width="50" height="50" relative="1" as="geometry">
            <mxPoint x="248" y="510" as="sourcePoint" />
            <mxPoint x="90" y="370" as="targetPoint" />
          </mxGeometry>
        </mxCell>
        <mxCell id="RFKbaSm9KmMwJRQujlas-19" value="Response" style="edgeLabel;html=1;align=center;verticalAlign=middle;resizable=0;points=[];" parent="RFKbaSm9KmMwJRQujlas-18" vertex="1" connectable="0">
          <mxGeometry x="0.1439" y="-4" relative="1" as="geometry">
            <mxPoint x="-3" y="10" as="offset" />
          </mxGeometry>
        </mxCell>
        <mxCell id="RFKbaSm9KmMwJRQujlas-21" value="&lt;b&gt;CRUD Slicing&lt;/b&gt;" style="text;strokeColor=none;align=center;fillColor=none;html=1;verticalAlign=middle;whiteSpace=wrap;rounded=0;" parent="pTqcBcNtVvPr7RdLX65o-1" vertex="1">
          <mxGeometry x="369.5" y="410" width="120" height="40" as="geometry" />
        </mxCell>
        <mxCell id="RFKbaSm9KmMwJRQujlas-22" value="&lt;font style=&quot;font-size: 18px;&quot;&gt;Search&lt;br&gt;DBContext&lt;br&gt;RO&lt;br&gt;&lt;/font&gt;" style="rounded=1;whiteSpace=wrap;html=1;" parent="pTqcBcNtVvPr7RdLX65o-1" vertex="1">
          <mxGeometry x="640" y="800" width="152.5" height="70" as="geometry" />
        </mxCell>
        <mxCell id="RFKbaSm9KmMwJRQujlas-24" value="&lt;b&gt;Search Slicing&lt;/b&gt;" style="text;strokeColor=none;align=center;fillColor=none;html=1;verticalAlign=middle;whiteSpace=wrap;rounded=0;" parent="pTqcBcNtVvPr7RdLX65o-1" vertex="1">
          <mxGeometry x="656.25" y="410" width="120" height="40" as="geometry" />
        </mxCell>
        <mxCell id="RFKbaSm9KmMwJRQujlas-25" value="" style="shape=cylinder3;whiteSpace=wrap;html=1;boundedLbl=1;backgroundOutline=1;size=15;perimeterSpacing=0;dashed=1;" parent="pTqcBcNtVvPr7RdLX65o-1" vertex="1">
          <mxGeometry x="686.25" y="940" width="60" height="80" as="geometry" />
        </mxCell>
        <mxCell id="RFKbaSm9KmMwJRQujlas-26" value="" style="endArrow=classic;startArrow=classic;html=1;rounded=0;entryX=0.5;entryY=1;entryDx=0;entryDy=0;exitX=1;exitY=0.5;exitDx=0;exitDy=0;exitPerimeter=0;" parent="pTqcBcNtVvPr7RdLX65o-1" source="pTqcBcNtVvPr7RdLX65o-5" target="RFKbaSm9KmMwJRQujlas-22" edge="1">
          <mxGeometry width="50" height="50" relative="1" as="geometry">
            <mxPoint x="400" y="850" as="sourcePoint" />
            <mxPoint x="450" y="800" as="targetPoint" />
          </mxGeometry>
        </mxCell>
        <mxCell id="RFKbaSm9KmMwJRQujlas-27" value="" style="endArrow=classic;startArrow=classic;html=1;rounded=0;entryX=0.5;entryY=1;entryDx=0;entryDy=0;exitX=0.5;exitY=0;exitDx=0;exitDy=0;exitPerimeter=0;dashed=1;" parent="pTqcBcNtVvPr7RdLX65o-1" source="RFKbaSm9KmMwJRQujlas-25" target="RFKbaSm9KmMwJRQujlas-22" edge="1">
          <mxGeometry width="50" height="50" relative="1" as="geometry">
            <mxPoint x="400" y="850" as="sourcePoint" />
            <mxPoint x="450" y="800" as="targetPoint" />
          </mxGeometry>
        </mxCell>
        <mxCell id="RFKbaSm9KmMwJRQujlas-20" value="" style="rounded=0;whiteSpace=wrap;html=1;fillColor=none;strokeWidth=3;" parent="pTqcBcNtVvPr7RdLX65o-1" vertex="1">
          <mxGeometry x="280" y="440" width="317.5" height="470" as="geometry" />
        </mxCell>
        <mxCell id="RFKbaSm9KmMwJRQujlas-23" value="" style="rounded=0;whiteSpace=wrap;html=1;fillColor=none;strokeWidth=3;" parent="pTqcBcNtVvPr7RdLX65o-1" vertex="1">
          <mxGeometry x="610" y="440" width="210" height="470" as="geometry" />
        </mxCell>
      </root>
    </mxGraphModel>
  </diagram>
</mxfile>
